<svg width="229" height="289" viewBox="0 0 229 289" fill="none" xmlns="http://www.w3.org/2000/svg">
<g clip-path="url(#clip0_2996_2309)">
<path d="M89.2978 60.7359C90.2209 60.0384 90.5498 59.1823 90.5285 57.9617C90.4384 53.0791 90.3853 48.1913 90.5338 43.3141C90.6081 40.8675 89.7381 40.2017 87.3137 40.0802C73.1335 39.3721 58.9427 39.5623 44.7784 39.8741C33.6433 40.1172 22.5134 40.0379 11.3836 40.0802C8.07857 40.0907 7.0388 41.565 6.55605 44.4924C5.82926 48.8835 6.52422 53.2165 6.67806 57.5654C6.75764 59.7477 7.22447 61.9565 10.5878 61.576C19.4365 60.5826 28.3383 61.2537 37.2188 61.1533C46.7572 61.0476 56.3008 61.1269 65.8392 61.1269H88.8946" stroke="black" stroke-width="2" stroke-linecap="round" stroke-linejoin="round"/>
<path d="M31.6608 114.18H88.1216C90.4399 113.778 90.5566 111.685 90.5195 109.429C90.4452 105.207 90.4558 100.985 90.5195 96.7631C90.5513 94.5226 89.7397 93.5503 87.3206 93.5556C61.8779 93.619 36.4406 93.6138 10.9979 93.5662C8.65838 93.5662 7.62922 94.3482 7.36927 96.7578C6.73798 102.602 6.9661 108.393 7.45946 114.634C15.6344 114.317 23.454 115.078 31.2735 114.185" stroke="black" stroke-width="2" stroke-linecap="round" stroke-linejoin="round"/>
<path d="M48.3558 66.6753C41.8785 65.7558 35.348 66.1046 28.8813 66.3952C21.9795 66.707 15.0936 66.4216 7.93721 66.7387C6.2184 70.612 7.15207 74.8393 7.04597 78.945C6.78603 89.1804 6.89743 87.7748 15.7567 87.611C38.1491 87.1936 60.5467 87.3415 82.939 87.1724C85.1671 87.1566 87.7665 88.9479 89.6339 86.8078C91.3686 84.821 90.4455 82.1155 90.4508 79.7377C90.4615 75.5156 90.8275 71.2725 90.1379 66.8496C86.1167 65.3701 81.8886 65.6871 77.7826 65.9513C69.0346 66.5062 60.2867 66.1099 51.5441 66.279C50.6052 66.2948 49.629 66.1099 48.759 66.67" stroke="black" stroke-width="2" stroke-linecap="round" stroke-linejoin="round"/>
<path d="M1.44759 38.96C0.79508 39.3563 1.05502 40.0009 1.06033 40.5452C1.20356 65.2221 0.105433 89.9043 0.779165 114.576C1.0338 123.945 0.492696 133.329 1.38924 142.693C1.67571 145.673 3.28311 146.566 5.81889 146.635C25.0282 147.168 44.2429 147.877 63.4575 147.343C72.7306 147.084 82.0196 147.237 91.2927 146.709C94.4173 146.529 96.4491 145.974 96.5765 142.297C96.6136 141.303 96.8364 140.167 96.8205 139.126C96.5765 123.284 97.1017 107.453 97.2873 91.6164C97.4889 74.3214 96.5552 57.0423 96.8205 39.7526C96.8735 36.1752 94.9213 34.2412 91.2821 34.2306C64.2532 34.1884 37.2191 34.2095 10.1902 34.2042C8.03637 34.2042 6.0417 35.1131 3.82953 35.092C1.91974 35.0761 0.757945 36.3866 1.44759 38.5584" stroke="black" stroke-width="2" stroke-linecap="round" stroke-linejoin="round"/>
<path d="M45.9678 141.102C59.7501 141.102 73.5325 140.97 87.3095 141.229C89.6755 141.271 90.3705 140.273 90.4235 138.73C90.6039 133.192 90.4925 127.649 90.4925 122.106C90.4925 120.145 89.1609 120.098 87.7074 120.119C72.4715 120.373 57.2356 119.923 41.9891 120.415C31.9361 120.737 21.8408 121.054 11.7825 120.103C8.9815 119.839 7.02396 120.431 7.01335 123.686C6.99744 128.436 6.8489 133.197 7.07701 137.937C7.19372 140.299 8.45631 141.636 11.3847 141.583C22.7744 141.388 34.1748 141.504 45.5699 141.504" stroke="black" stroke-width="2" stroke-linecap="round" stroke-linejoin="round"/>
<path d="M177.148 112.203C183.647 112.816 190.225 112.594 196.628 114.169C202.538 115.622 208.331 117.255 212.527 122.095C214.331 124.172 214.135 126.434 212.14 128.447C207.201 133.435 200.686 135.174 194.214 136.193C187.557 137.24 180.766 138.138 173.965 137.911C164.491 137.588 155.159 136.236 146.141 133.181C143.059 132.14 140.512 130.127 138.279 127.945C136.91 126.603 136.815 124.299 138.199 122.507C141.61 118.09 146.639 116.431 151.711 115.009C158.321 113.155 165.095 112.468 171.976 112.568C176.745 112.637 176.745 112.494 176.745 107.849C176.745 102.174 176.639 96.4989 176.793 90.829C176.862 88.3561 176.045 87.4525 173.562 87.6374C161.249 88.5621 148.926 87.3838 136.586 87.928C123.759 88.4987 110.884 88.0549 98.0352 88.0549" stroke="black" stroke-width="2" stroke-linecap="round" stroke-linejoin="round"/>
<path d="M177.149 50.8387C177.149 56.7781 177.054 62.7174 177.197 68.6515C177.255 71.0981 176.423 71.8748 173.972 71.8643C155.818 71.785 137.659 72.0439 119.516 71.711C112.36 71.5789 105.203 71.6106 98.0469 71.4257" stroke="black" stroke-width="2" stroke-linecap="round" stroke-linejoin="round"/>
<path d="M206.57 21.9344C206.358 16.7243 205.117 11.7889 201.769 7.70424C192.825 -3.2075 175.717 -1.09384 169.213 10.061C168.634 11.0544 168.131 12.0848 167.213 12.8246C158.804 10.0715 153.966 11.4507 150.513 17.575C150.014 18.4575 149.452 19.4826 149.409 20.3545C149.293 22.8486 147.701 23.5038 145.744 23.9107C138.401 25.4431 134.136 31.4142 135.012 38.9599C135.728 45.1424 141.696 50.0408 148.529 50.046C167.345 50.046 186.162 49.9086 204.974 50.1253C211.271 50.1993 217.451 45.9455 218.846 37.3747C219.817 31.4195 214.809 23.9582 208.931 22.3941C207.706 22.0665 206.247 22.0982 204.974 22.7323" stroke="black" stroke-width="2" stroke-linecap="round" stroke-linejoin="round"/>
<path d="M136.602 184.258C116.194 184.258 95.7912 184.342 75.3829 184.221C66.7623 184.168 58.163 184.934 49.5424 184.638C47.5 184.57 46.248 184.934 46.3276 187.428C46.6989 199.175 45.9562 210.916 45.9297 222.663C45.9297 223.292 46.4018 223.678 46.3594 224.248" stroke="black" stroke-width="2" stroke-linecap="round" stroke-linejoin="round"/>
<path d="M137.798 128.436C136.636 129.578 136.859 131.068 137.044 132.389C137.739 137.398 137.649 142.455 137.278 147.427C136.954 151.739 138.997 154.281 142.206 156.093C148.455 159.623 155.373 161.171 162.45 162.096C171.728 163.306 181.017 163.29 190.275 162.054C198.412 160.965 206.136 158.577 212.937 153.774" stroke="black" stroke-width="2" stroke-linecap="round" stroke-linejoin="round"/>
<path d="M163.636 184.258C163.636 190.858 163.27 197.479 163.737 204.047C164.199 210.546 163.483 216.988 163.589 223.456C163.626 225.781 163.934 227.017 166.804 227.154C169.185 227.271 171.583 227.382 173.965 227.392C187.217 227.44 200.469 227.408 213.715 227.419C217.562 227.419 221.386 226.721 225.243 227.028C227.599 227.213 228.479 226.198 228.458 223.852C228.41 218.171 227.88 212.517 227.97 206.826C228.15 196.01 227.943 185.183 228.076 174.366C228.113 171.528 227.36 171.085 224.442 171.074C206.421 171.021 188.395 171.734 170.379 170.831C169.334 170.778 168.305 171.37 167.201 171.201C164.4 170.778 163.239 171.967 163.615 174.762C163.971 177.394 162.899 180.163 164.422 182.678" stroke="black" stroke-width="2" stroke-linecap="round" stroke-linejoin="round"/>
<path d="M70.6154 270.96C69.3422 271.594 67.9735 271.346 66.642 271.346C53.6554 271.362 40.6688 271.356 27.6875 271.356" stroke="black" stroke-width="2" stroke-linecap="round" stroke-linejoin="round"/>
<path d="M140.583 270.96C127.861 270.96 115.14 270.955 102.419 270.971C101.087 270.971 99.7185 270.722 98.4453 271.356" stroke="black" stroke-width="2" stroke-linecap="round" stroke-linejoin="round"/>
<path d="M137.798 175.941C136.896 182.26 137.447 188.612 137.479 194.942C137.495 197.537 139.93 199.27 141.835 200.374C148.413 204.195 155.352 207.281 163.235 207.217" stroke="black" stroke-width="2" stroke-linecap="round" stroke-linejoin="round"/>
<path d="M27.6875 287.985C30.4355 288.81 33.2524 288.334 36.0375 288.355C45.178 288.424 54.3238 288.382 63.4643 288.382" stroke="black" stroke-width="2" stroke-linecap="round" stroke-linejoin="round"/>
<path d="M180.333 158.524C178.508 157.224 178.434 156.014 179.866 154.117C181.919 151.396 181.553 147.496 179.537 145.065C177.415 142.503 175.092 142.365 172.779 144.669C170.705 146.735 170.126 150.725 171.596 153.372C173.086 156.051 175.161 157.478 178.344 156.152" stroke="black" stroke-width="2" stroke-linecap="round" stroke-linejoin="round"/>
<path d="M167.213 146.645C165.309 142.73 161.59 141.689 159.76 144.722C159.102 145.816 157.951 147.744 160.805 148.764C162.248 149.282 163.861 149.71 165.245 150.571C166.789 151.533 167.77 152.833 167.15 154.529C166.561 156.136 164.922 156.474 163.245 156.564C161.044 156.675 159.744 155.068 158.078 154.159" stroke="black" stroke-width="2" stroke-linecap="round" stroke-linejoin="round"/>
<path d="M41.9939 160.897C33.3786 162.022 24.7687 160.675 16.1534 160.897C14.424 160.939 12.6786 160.78 10.9863 161.298" stroke="black" stroke-width="2" stroke-linecap="round" stroke-linejoin="round"/>
<path d="M87.3148 161.293C77.1186 160.463 66.9066 161.092 56.7051 160.897" stroke="black" stroke-width="2" stroke-linecap="round" stroke-linejoin="round"/>
<path d="M7.41115 242.452C5.20958 241.274 2.94436 240.09 1.07701 242.864C-0.132529 244.661 0.801148 248.434 2.64197 249.977C4.5889 251.604 8.06366 250.494 8.13263 247.995C8.23873 244.043 8.58355 240.058 7.80902 236.122" stroke="black" stroke-width="2" stroke-linecap="round" stroke-linejoin="round"/>
<path d="M137.796 152.981C136.746 153.996 136.809 155.348 137.043 156.537C137.716 159.967 137.345 163.407 137.377 166.841C137.446 175.56 138.597 177.325 146.947 180.279C151.467 181.88 155.965 183.677 160.851 183.83C161.891 183.862 163.281 184.459 163.981 183.433C165.201 181.647 166.894 182.308 168.406 182.308C188.018 182.266 207.625 182.282 227.238 182.282" stroke="black" stroke-width="2" stroke-linecap="round" stroke-linejoin="round"/>
<path d="M26.4922 55.5891C28.2216 56.3923 29.4205 54.8811 29.5479 53.988C29.9776 50.9919 32.3277 48.7303 32.4762 45.692C29.4365 45.7237 27.4153 48.9417 26.4922 55.1928" stroke="black" stroke-width="2" stroke-linecap="round" stroke-linejoin="round"/>
<path d="M30.8644 98.7394C28.1642 101.804 26.9493 105.36 27.1191 109.419C30.2013 106.745 31.0872 103.014 32.3976 99.5109C32.4347 99.4158 31.9042 98.6337 31.2623 98.7394" stroke="black" stroke-width="2" stroke-linecap="round" stroke-linejoin="round"/>
<path d="M38.02 71.822C35.0333 74.2897 33.2614 79.5896 34.8529 82.665C36.2641 79.1352 39.7017 76.3505 38.4179 71.822" stroke="black" stroke-width="2" stroke-linecap="round" stroke-linejoin="round"/>
<path d="M19.7338 55.5891C19.9991 55.9854 20.2643 56.1175 20.5296 55.9854C22.9221 54.7912 25.1979 47.9905 23.8982 44.7778C21.4791 48.0962 20.7099 51.7898 19.3359 55.1928" stroke="black" stroke-width="2" stroke-linecap="round" stroke-linejoin="round"/>
<path d="M25.2998 125.662C24.451 124.864 23.8462 125.266 23.3104 126.058C21.7349 128.383 20.8595 131.041 19.6712 133.551C19.1354 134.682 19.2362 135.48 20.1593 135.892C20.9656 136.251 21.7932 135.934 22.1487 134.777C23.077 131.776 24.8064 129.086 25.6924 126.058" stroke="black" stroke-width="2" stroke-linecap="round" stroke-linejoin="round"/>
<path d="M18.541 126.058C17.9681 125.482 17.1511 124.574 16.6047 125.688C15.0079 128.959 12.7214 132.024 12.4668 136.785C16.9177 134 16.8222 129.699 18.541 126.455" stroke="black" stroke-width="2" stroke-linecap="round" stroke-linejoin="round"/>
<path d="M30.8636 71.822C27.7761 74.7547 26.9856 78.4535 27.2509 82.5118C29.3517 79.2197 32.6673 76.3927 31.2615 71.822" stroke="black" stroke-width="2" stroke-linecap="round" stroke-linejoin="round"/>
<path d="M44.3812 98.7394C41.9091 101.741 41.0391 105.424 39.7871 108.869C41.2937 110.005 42.3547 109.176 42.7314 108.219C43.8136 105.456 44.795 102.655 45.9303 99.9125C46.1743 99.3259 45.5006 98.8186 44.7844 98.7447" stroke="black" stroke-width="2" stroke-linecap="round" stroke-linejoin="round"/>
<path d="M38.0207 102.703C38.4345 101.413 40.2807 100.261 38.095 98.4963C35.4478 101.075 34.9757 104.816 33.2887 107.87C33.0977 108.214 33.5858 108.7 34.0155 109.07C34.9863 109.915 35.6653 109.313 35.9942 108.621C36.8537 106.808 37.0552 104.7 38.4186 103.099" stroke="black" stroke-width="2" stroke-linecap="round" stroke-linejoin="round"/>
<path d="M43.9839 72.2183C41.6126 74.8022 41.3632 78.3003 39.8301 81.2806C41.1457 81.6152 43.1899 78.7301 45.9626 72.6252C45.6762 71.8695 44.6735 72.5565 44.3764 71.822" stroke="black" stroke-width="2" stroke-linecap="round" stroke-linejoin="round"/>
<path d="M14.1698 103.886C13.8144 104.7 13.512 105.524 13.0876 106.317C12.7481 106.94 11.6606 108.452 13.39 108.985C14.4722 109.318 14.9762 108.758 15.4749 107.49C16.4138 105.08 17.2679 102.607 18.5199 100.309C18.8753 99.6536 18.2441 99.1568 17.7136 98.7235C15.268 98.639 16.4032 102.148 14.1751 102.306" stroke="black" stroke-width="2" stroke-linecap="round" stroke-linejoin="round"/>
<path d="M185.897 143.48C185.897 146.645 186.062 149.826 185.85 152.981C185.664 155.787 186.667 156.897 189.478 156.574C190.916 156.41 192.391 156.548 193.85 156.548" stroke="black" stroke-width="2" stroke-linecap="round" stroke-linejoin="round"/>
<path d="M84.9277 236.122C90.0736 242.457 89.2884 248.793 84.9277 255.123" stroke="black" stroke-width="2" stroke-linecap="round" stroke-linejoin="round"/>
<path d="M82.1419 236.518C77.1977 242.827 78.3542 249.01 82.5398 255.123" stroke="black" stroke-width="2" stroke-linecap="round" stroke-linejoin="round"/>
<path d="M42.3919 161.293C42.7367 163.296 43.3308 164.754 45.9727 164.527C49.1345 164.257 52.3387 164.463 55.4156 164.463C56.8479 158.323 56.2007 157.578 50.3387 158.128C48.9382 158.26 47.474 157.346 46.3918 157.51C44.7207 157.768 42.2592 158.101 42.3919 160.897" stroke="black" stroke-width="2" stroke-linecap="round" stroke-linejoin="round"/>
<path d="M58.2917 245.623C55.6817 245.133 53.519 246.117 51.8038 248.576C52.7215 250.114 53.6287 251.277 55.931 250.431C57.9734 249.681 59.0928 248.74 58.7214 246.41C58.4456 244.656 60.2758 242.188 57.4695 241.353C55.321 240.714 53.0239 241.105 51.5332 243.245" stroke="black" stroke-width="2" stroke-linecap="round" stroke-linejoin="round"/>
<path d="M213.324 128.436C214.009 129.086 214.666 129.646 214.544 130.814C213.902 137.134 214.12 143.491 213.887 149.805C213.627 156.838 214.417 163.803 214.12 170.799" stroke="black" stroke-width="2" stroke-linecap="round" stroke-linejoin="round"/>
<path d="M12.9756 245.226C14.9702 245.226 16.9702 245.226 19.9092 245.221C18.4185 243.171 18.5988 241.031 15.7554 241.221C13.766 241.353 12.4504 242.695 12.3231 244.053C12.1162 246.294 11.453 249.094 14.5564 250.389C16.5776 251.229 18.0418 250.864 18.9331 248.793" stroke="black" stroke-width="2" stroke-linecap="round" stroke-linejoin="round"/>
<path d="M164.434 200.094H227.239" stroke="black" stroke-width="2" stroke-linecap="round" stroke-linejoin="round"/>
<path d="M164.434 191.381H227.239" stroke="black" stroke-width="2" stroke-linecap="round" stroke-linejoin="round"/>
<path d="M227.637 217.907H164.434" stroke="black" stroke-width="2" stroke-linecap="round" stroke-linejoin="round"/>
<path d="M227.238 208.803C207.891 208.803 188.543 208.797 169.201 208.813C167.737 208.813 166.236 208.528 164.83 209.199" stroke="black" stroke-width="2" stroke-linecap="round" stroke-linejoin="round"/>
<path d="M74.5937 251.166V246.019C74.5937 240.687 73.522 240.048 68.6309 242.457" stroke="black" stroke-width="2" stroke-linecap="round" stroke-linejoin="round"/>
<path d="M24.1059 102.702C24.4613 101.403 26.1908 100.372 24.4825 98.4435C21.2677 100.879 21.1139 105.033 19.0078 108.388C22.9017 109.979 22.2438 106.454 23.3101 105.08" stroke="black" stroke-width="2" stroke-linecap="round" stroke-linejoin="round"/>
<path d="M88.105 288.377C83.6223 287.483 79.0918 288.213 74.5879 287.98" stroke="black" stroke-width="2" stroke-linecap="round" stroke-linejoin="round"/>
<path d="M47.9573 250.373C47.9573 248.391 47.8989 246.41 47.9732 244.434C48.0581 242.167 47.0502 241.11 44.7796 241.268C42.8009 241.406 41.4693 242.124 41.5807 244.434C41.6762 246.41 41.6019 248.391 41.6019 250.373" stroke="black" stroke-width="2" stroke-linecap="round" stroke-linejoin="round"/>
<path d="M81.3527 128.436C79.5065 129.44 78.9124 130.804 80.5888 132.362C81.5755 133.277 82.9548 133.192 83.7028 131.982C85.0502 129.8 83.533 128.806 81.7505 128.045" stroke="black" stroke-width="2" stroke-linecap="round" stroke-linejoin="round"/>
<path d="M46.3658 126.058C45.2942 125.171 44.5515 124.658 43.5117 126.412C41.8672 129.181 41.0131 132.183 39.8672 135.158C41.3314 136.278 42.1536 136.468 42.8539 134.397C43.7557 131.712 45.0024 129.134 45.9679 126.46" stroke="black" stroke-width="2" stroke-linecap="round" stroke-linejoin="round"/>
<path d="M84.5297 103.886C83.9992 103.331 84.2167 102.296 83.7021 101.957C82.535 101.191 81.2141 101.255 80.169 102.317C79.4582 103.041 79.5006 103.902 80.1584 104.673C81.0815 105.762 81.9939 106.629 83.3891 105.123C83.6332 104.858 84.1265 104.536 84.5244 104.277" stroke="black" stroke-width="2" stroke-linecap="round" stroke-linejoin="round"/>
<path d="M74.9909 130.016C73.9511 129.06 72.9432 127.327 71.4631 129.261C70.662 130.307 70.4074 132.088 71.8503 132.69C73.5957 133.424 74.8636 132.436 74.9909 130.407" stroke="black" stroke-width="2" stroke-linecap="round" stroke-linejoin="round"/>
<path d="M71.0118 104.282C70.9588 106.523 72.72 105.989 73.7757 105.773C74.5609 105.609 75.3195 104.636 74.9853 103.495C74.6988 102.518 74.1312 101.936 73.0012 101.889C71.537 101.831 70.3381 101.947 70.614 103.886" stroke="black" stroke-width="2" stroke-linecap="round" stroke-linejoin="round"/>
<path d="M25.2993 73.0056C24.5937 75.468 23.5274 77.7877 22.5142 80.1339C22.0544 81.2048 20.9969 81.7315 19.3418 81.7139C20.302 78.8287 21.2038 76.0493 22.5089 73.4019C23.172 72.0597 23.8245 70.9659 25.2993 72.6146" stroke="black" stroke-width="2" stroke-linecap="round" stroke-linejoin="round"/>
<path d="M46.7637 148.231V157.335" stroke="black" stroke-width="2" stroke-linecap="round" stroke-linejoin="round"/>
<path d="M51.1398 148.231C51.3308 151.264 50.7101 154.328 51.5377 157.335" stroke="black" stroke-width="2" stroke-linecap="round" stroke-linejoin="round"/>
<path d="M72.2051 52.4186C74.0141 52.6511 75.3722 52.313 74.9743 50.0461C74.672 48.3182 73.1547 48.6616 72.221 48.9205C70.0407 49.5229 70.6614 50.807 71.8073 52.0223" stroke="black" stroke-width="2" stroke-linecap="round" stroke-linejoin="round"/>
<path d="M181.127 183.069C180.559 184.617 180.734 186.229 180.734 187.819C180.724 198.509 180.729 209.199 180.734 219.889C180.734 222.272 180.612 224.66 181.132 227.017" stroke="black" stroke-width="2" stroke-linecap="round" stroke-linejoin="round"/>
<path d="M212.135 200.887V227.017" stroke="black" stroke-width="2" stroke-linecap="round" stroke-linejoin="round"/>
<path d="M88.1053 270.96C85.1876 271.018 82.2539 270.733 79.3574 271.356" stroke="black" stroke-width="2" stroke-linecap="round" stroke-linejoin="round"/>
<path d="M27.6868 236.518C25.0609 236.28 23.9893 237.464 24.0794 240.079C24.2015 243.509 24.1113 246.938 24.1113 250.373" stroke="black" stroke-width="2" stroke-linecap="round" stroke-linejoin="round"/>
<path d="M211.738 183.069C211.738 188.744 211.738 194.419 211.738 200.094" stroke="black" stroke-width="2" stroke-linecap="round" stroke-linejoin="round"/>
<path d="M197.027 192.173C196.274 197.701 196.772 203.26 196.629 208.803" stroke="black" stroke-width="2" stroke-linecap="round" stroke-linejoin="round"/>
<path d="M65.4467 49.2534C64.3804 47.9694 63.1232 48.4291 61.4733 48.8043C61.7916 50.2046 60.3062 52.0329 63.0648 52.4133C64.3592 52.593 64.8473 51.8796 65.0489 49.6497" stroke="black" stroke-width="2" stroke-linecap="round" stroke-linejoin="round"/>
<path d="M197.028 183.069C196.306 185.811 196.757 188.612 196.63 191.381" stroke="black" stroke-width="2" stroke-linecap="round" stroke-linejoin="round"/>
<path d="M41.597 242.452C37.2469 240.006 35.2416 241.131 35.2363 246.014C35.2363 247.467 35.2363 248.915 35.2363 250.368" stroke="black" stroke-width="2" stroke-linecap="round" stroke-linejoin="round"/>
<path d="M63.4629 241.665V249.58" stroke="black" stroke-width="2" stroke-linecap="round" stroke-linejoin="round"/>
<path d="M197.027 209.595C196.491 215.403 196.486 221.21 197.027 227.017" stroke="black" stroke-width="2" stroke-linecap="round" stroke-linejoin="round"/>
<path d="M67.8338 240.872C68.6986 244.037 67.3352 247.208 67.8338 250.373" stroke="black" stroke-width="2" stroke-linecap="round" stroke-linejoin="round"/>
<path d="M81.744 48.0645C83.1922 48.8149 85.2824 49.3063 83.6962 51.6049C83.0808 52.4979 82.2479 53.1796 80.9111 52.0752C79.3832 50.8123 79.2931 50.5269 81.3514 48.0645" stroke="black" stroke-width="2" stroke-linecap="round" stroke-linejoin="round"/>
<path d="M26.8903 241.268H22.1211" stroke="black" stroke-width="2" stroke-linecap="round" stroke-linejoin="round"/>
<path d="M17.3474 45.2956C14.6259 48.4978 13.1458 52.1808 12.4668 56.6988C16.1962 54.3526 18.8222 48.2547 17.7453 45.2956" stroke="black" stroke-width="2" stroke-linecap="round" stroke-linejoin="round"/>
<path d="M38.0213 45.2956C35.2415 48.334 33.6978 51.7792 34.4086 56.0118C37.3529 53.3169 38.1168 49.618 39.2043 46.0829C39.4006 45.4541 38.4723 45.7712 38.4192 45.2956" stroke="black" stroke-width="2" stroke-linecap="round" stroke-linejoin="round"/>
<path d="M44.3813 45.2956C42.1214 47.8003 41.5909 51.161 40.0472 54.025C39.6811 54.7067 40.01 55.6419 40.8217 55.9484C41.575 56.2391 42.6307 55.9801 42.7421 55.1875C43.2302 51.8057 45.2885 48.9786 45.9251 45.6813C46.0047 45.2692 45.2301 45.2745 44.7792 45.2956" stroke="black" stroke-width="2" stroke-linecap="round" stroke-linejoin="round"/>
<path d="M17.3475 71.822C14.1274 74.501 14.0849 78.6438 12.2812 81.9094C13.3741 82.702 14.7268 82.8236 14.8701 82.0944C15.5544 78.5804 19.4164 75.9436 17.7454 71.8167" stroke="black" stroke-width="2" stroke-linecap="round" stroke-linejoin="round"/>
<path d="M80.9532 74.5909C79.0912 75.4258 79.5845 76.8261 80.184 78.1418C80.6349 79.1352 81.8232 79.2832 82.497 78.8657C83.2343 78.4113 84.2211 77.8459 84.1627 76.5671C84.0672 74.612 82.8046 74.5222 81.3564 74.5909" stroke="black" stroke-width="2" stroke-linecap="round" stroke-linejoin="round"/>
<path d="M63.463 74.9872C61.7389 75.4469 60.7999 76.4086 61.9034 78.1312C62.6726 79.3307 64.2322 79.5157 64.959 78.4853C65.7972 77.2963 66.524 75.4205 63.8609 74.9872" stroke="black" stroke-width="2" stroke-linecap="round" stroke-linejoin="round"/>
<path d="M72.2066 74.9872C70.3446 75.8221 70.8273 77.2277 71.4427 78.5382C71.8247 79.3466 72.7796 79.0243 73.3896 78.9028C74.562 78.6703 75.0289 77.8354 75.0236 76.5725C75.0129 74.6807 73.7398 75.0084 72.6045 74.9872" stroke="black" stroke-width="2" stroke-linecap="round" stroke-linejoin="round"/>
<path d="M62.6671 128.833C60.2799 130.154 61.622 131.818 62.752 132.685C63.6644 133.382 65.1445 132.69 65.431 131.205C65.7864 129.372 64.9217 128.568 63.065 128.833" stroke="black" stroke-width="2" stroke-linecap="round" stroke-linejoin="round"/>
<path d="M30.8651 125.662C28.1066 128.552 26.8493 131.961 27.1251 135.908C29.1516 132.727 32.8863 130.222 31.263 125.662" stroke="black" stroke-width="2" stroke-linecap="round" stroke-linejoin="round"/>
<path d="M38.0217 125.266C34.8069 128.114 34.4196 132.114 32.791 136.399C36.844 134.307 39.523 128.304 38.4196 125.266" stroke="black" stroke-width="2" stroke-linecap="round" stroke-linejoin="round"/>
<path d="M63.463 101.91C61.7389 102.37 60.7999 103.331 61.9034 105.054C62.6726 106.253 64.2322 106.438 64.959 105.408C65.7972 104.219 66.524 102.343 63.8609 101.91" stroke="black" stroke-width="2" stroke-linecap="round" stroke-linejoin="round"/>
</g>
<defs>
<clipPath id="clip0_2996_2309">
<rect width="229" height="289" fill="white"/>
</clipPath>
</defs>
</svg>
