<svg width="237" height="295" viewBox="0 0 237 295" fill="none" xmlns="http://www.w3.org/2000/svg">
<g clip-path="url(#clip0_2996_2140)">
<path d="M20.7604 176.099C14.1549 175.191 7.54933 175.997 0.539062 175.557C0.539062 181.596 0.539062 187.104 0.539062 192.606C0.539062 224.948 0.539062 257.29 0.539062 289.627C0.539062 292.844 2.15626 294.454 5.39067 294.457C38.1484 294.457 70.9008 294.457 103.659 294.457C104.84 293.297 104.457 291.814 104.457 290.433C104.473 261.981 104.419 233.535 104.538 205.083C104.549 202.187 103.362 200.081 101.597 198.275C95.2236 191.741 88.699 185.352 82.223 178.915C80.1021 176.809 77.5927 176.11 74.5435 176.013C64.5597 175.707 54.5975 175.702 44.6136 176.03C36.8047 176.288 28.9687 176.304 21.1597 175.691" stroke="black" stroke-width="2" stroke-linecap="round" stroke-linejoin="round"/>
<path d="M11.4554 1.78393C9.11329 4.00848 8.946 6.84558 8.99996 9.83852C9.0971 14.9378 9.02695 20.0371 9.02695 25.1363C9.02695 60.5625 9.02695 95.9888 9.02695 131.42C9.02695 133.043 9.23742 134.65 9.36694 136.256C9.61518 139.448 11.0291 141.06 14.2671 141.592C15.6487 141.818 16.987 141.861 18.3308 141.861C81.9575 141.893 145.579 141.888 209.206 141.888C211.094 141.888 212.983 141.92 214.867 141.882C219.108 141.791 220.776 140.668 220.857 136.654C221.073 126.326 221.013 115.988 220.814 105.661C220.792 104.522 220.555 103.232 220.555 102.034C220.549 82.7113 220.517 63.3835 220.528 44.0611C220.533 31.7133 220.646 19.3654 220.474 7.0229C220.404 1.99349 218.601 0.580308 213.658 0.580308H64.8339C48.5251 0.580308 32.211 0.580308 15.9023 0.591055C14.5477 0.591055 13.1554 0.338509 11.8602 0.983306" stroke="black" stroke-width="2" stroke-linecap="round" stroke-linejoin="round"/>
<path d="M10.2422 20.3004H219.714" stroke="black" stroke-width="2" stroke-linecap="round" stroke-linejoin="round"/>
<path d="M223.358 265.474C224.847 264.27 225.727 262.465 227.152 261.336C230.093 262.663 229.845 268.273 234.918 266.79C233.493 263.776 231.993 261.406 231.377 258.757C232.43 256.86 235.166 258.94 235.819 256.704C231.798 252.82 226.618 250.611 222.111 247.006C220.061 248.978 221.021 251.095 221.383 252.986C222.128 256.85 221.917 257.392 218.107 257.398C190.746 257.441 163.379 257.478 136.018 257.365C131.253 257.344 126.612 253.373 125.538 246.946C124.728 242.105 128.56 236.436 133.606 234.926C135.533 234.351 137.551 233.981 139.656 234.029C148.28 234.228 156.914 234.314 165.538 234.341C176.045 234.373 186.563 234.094 197.082 234.072" stroke="black" stroke-width="2" stroke-linecap="round" stroke-linejoin="round"/>
<path d="M229.019 117.729C235.608 124.537 237.038 132.936 236.267 141.882C234.999 156.637 227.956 168.598 217.691 178.92" stroke="black" stroke-width="2" stroke-linecap="round" stroke-linejoin="round"/>
<path d="M229.423 250.982C229.935 248.032 230.2 245.001 229.363 242.143C227.96 237.36 223.432 234.233 218.1 234.094C214.058 233.991 210.011 234.072 205.969 234.072" stroke="black" stroke-width="2" stroke-linecap="round" stroke-linejoin="round"/>
<path d="M28.0404 188.985C27.1176 188.157 26.4484 186.873 25.1964 186.626C23.6476 186.319 21.926 186.733 21.246 188.222C20.6848 189.457 21.1921 190.785 22.7625 191.446C23.4371 191.73 24.225 191.789 24.7863 192.23C25.8332 193.052 27.5817 193.181 27.6411 195.03C27.6951 196.728 26.2488 197.2 25.1964 197.356C23.6206 197.587 21.5914 198.012 21.1165 195.443C21.0572 195.11 20.6254 194.901 20.7603 194.632" stroke="black" stroke-width="2" stroke-linecap="round" stroke-linejoin="round"/>
<path d="M37.7449 188.985C36.5955 188.721 36.2339 187.512 35.3164 186.975C33.433 185.879 31.7978 186.556 30.9559 188.222C30.3515 189.42 30.9128 190.752 32.467 191.44C33.406 191.859 34.4152 192.069 35.338 192.569C36.2501 193.068 36.9624 193.649 37.3618 194.578C34.9711 198.458 32.5911 198.458 30.4648 194.616" stroke="black" stroke-width="2" stroke-linecap="round" stroke-linejoin="round"/>
<path d="M79.3951 177.711C77.6358 179.334 79.1307 181.22 79.0713 182.95C78.8662 188.716 78.9904 194.487 78.9904 200.779C86.8101 200.258 94.6245 201.327 102.444 200.263" stroke="black" stroke-width="2" stroke-linecap="round" stroke-linejoin="round"/>
<path d="M18.3314 188.985C16.3238 187.781 14.6239 184.992 11.8608 187.776C10.4091 189.237 10.15 194.632 11.456 196.233C13.0588 198.189 15.061 197.818 17.9266 195.024" stroke="black" stroke-width="2" stroke-linecap="round" stroke-linejoin="round"/>
<path d="M50.6847 100.416C49.8428 101.104 50.3285 102.034 50.3123 102.834C50.28 104.36 49.7295 106.311 51.9098 106.795C53.1564 107.074 54.6405 107.235 55.5633 105.666C56.5779 103.931 56.7614 102.028 55.8601 100.465C54.716 98.482 52.8434 98.4766 51.0895 100.013" stroke="black" stroke-width="2" stroke-linecap="round" stroke-linejoin="round"/>
<path d="M43.4045 238.505C40.8681 239.187 40.296 241.133 40.636 243.325C40.8249 244.55 41.0354 245.979 42.9944 246.216C45.1908 246.484 46.5832 245.41 46.9447 243.712C47.452 241.315 46.9447 238.983 43.8093 238.5" stroke="black" stroke-width="2" stroke-linecap="round" stroke-linejoin="round"/>
<path d="M186.557 7.42055C185.763 9.97287 186.341 12.5198 186.055 15.5504C189.12 15.3301 191.678 15.7653 194.587 15.0614C194.792 12.3532 194.441 9.67734 193.831 7.01755C191.543 7.01755 189.25 7.01755 186.961 7.01755" stroke="black" stroke-width="2" stroke-linecap="round" stroke-linejoin="round"/>
<path d="M165.532 242.933C165.532 244.813 165.435 246.694 165.559 248.569C165.667 250.192 166.407 251.245 168.366 251.014C170.157 250.799 170.918 250.047 170.832 248.166C170.751 246.431 170.427 244.631 171.193 242.933" stroke="black" stroke-width="2" stroke-linecap="round" stroke-linejoin="round"/>
<path d="M188.177 211.531C186.742 209.215 185.052 209.188 183.342 211.144C182.063 212.606 182.592 216.254 184.135 217.157C186.126 218.318 187.767 218.43 188.172 215.556" stroke="black" stroke-width="2" stroke-linecap="round" stroke-linejoin="round"/>
<path d="M156.228 245.345C155.3 247.027 156.131 248.849 155.65 251.089C158.02 250.692 160.416 251.847 161.921 248.988C163.022 246.898 161.02 246.463 160.27 245.351" stroke="black" stroke-width="2" stroke-linecap="round" stroke-linejoin="round"/>
<path d="M61.2001 79.885C59.6297 79.0521 58.0161 78.3214 56.7695 80.2987C55.6092 82.131 55.593 84.0923 56.7803 85.9085C57.5196 87.0369 58.4748 87.1927 60.0183 86.8649C62.0528 86.4351 62.0744 85.4195 62.0258 83.915C61.9341 81.0994 62.0204 78.2784 62.015 75.4628" stroke="black" stroke-width="2" stroke-linecap="round" stroke-linejoin="round"/>
<path d="M119.833 86.3275C121.317 86.5962 122.958 88.1975 124.231 86.2953C125.354 84.6242 124.728 82.5394 124.555 80.7017C124.479 79.9226 123.233 78.5362 121.878 79.1327C120.669 79.6646 118.71 79.6485 119.002 81.8999C119.191 83.3668 118.743 84.8982 119.428 86.3275" stroke="black" stroke-width="2" stroke-linecap="round" stroke-linejoin="round"/>
<path d="M184.943 79.885C182.93 78.7136 181.187 78.4987 180.08 81.0886C179.141 83.2863 179.919 85.1616 181.349 86.6876C182.611 88.0309 185.99 86.5532 185.634 84.7371C185.051 81.7388 186.475 78.7673 185.348 75.855" stroke="black" stroke-width="2" stroke-linecap="round" stroke-linejoin="round"/>
<path d="M129.137 86.7306C131.009 87.3377 132.774 87.5097 133.988 85.5216C135.111 83.6839 134.334 81.8785 133.524 80.3202C132.456 78.2569 130.707 79.0521 129.137 79.885" stroke="black" stroke-width="2" stroke-linecap="round" stroke-linejoin="round"/>
<path d="M73.734 99.6104C72.0557 98.8151 70.2748 98.4068 69.3412 100.443C68.5155 102.249 68.2186 104.312 69.7081 106.037C70.8252 107.332 71.9262 106.816 73.3887 106.198C74.5273 105.714 74.5975 105.29 74.5327 104.441C74.2845 101.222 74.9753 97.9715 74.1334 94.7798" stroke="black" stroke-width="2" stroke-linecap="round" stroke-linejoin="round"/>
<path d="M216.083 166.438C216.65 167.459 216.639 168.604 216.455 169.651C215.808 173.321 215.479 176.948 216.893 180.527" stroke="black" stroke-width="2" stroke-linecap="round" stroke-linejoin="round"/>
<path d="M67.2639 59.7566C65.3373 58.9237 63.1031 58.9882 62.558 61.0032C61.9104 63.4051 61.8942 66.3066 65.3643 67.3652C67.6309 66.6344 68.3109 64.9687 68.1112 62.5722C67.9169 60.1703 68.068 57.747 68.068 55.329" stroke="black" stroke-width="2" stroke-linecap="round" stroke-linejoin="round"/>
<path d="M160.276 244.942C161.771 244.55 162.375 243.325 161.83 242.153C160.68 239.687 158.22 240.708 156.099 240.466C155.645 241.987 155.672 243.465 156.234 244.942C157.448 245.291 158.662 245.823 159.871 244.942" stroke="black" stroke-width="2" stroke-linecap="round" stroke-linejoin="round"/>
<path d="M24.8028 240.515C23.6803 238.134 21.8077 237.973 19.989 239.359C18.1109 240.794 18.2405 243.201 19.2442 244.883C20.5826 247.129 22.6441 246.474 24.3981 244.942" stroke="black" stroke-width="2" stroke-linecap="round" stroke-linejoin="round"/>
<path d="M51.8989 47.2743C51.8989 46.0654 51.8989 44.8564 51.8989 43.6527C51.8953 40.4682 50.2584 39.1284 46.988 39.6335C46.2486 42.1375 46.8207 44.7274 46.6426 47.2743" stroke="black" stroke-width="2" stroke-linecap="round" stroke-linejoin="round"/>
<path d="M36.125 115.714C33.8099 119.459 32.7036 123.694 31.2734 127.793" stroke="black" stroke-width="2" stroke-linecap="round" stroke-linejoin="round"/>
<path d="M229.423 177.711C225.564 180.027 221.646 182.101 216.757 180.882C215.391 182.123 214.706 184.304 212.439 184.552" stroke="black" stroke-width="2" stroke-linecap="round" stroke-linejoin="round"/>
<path d="M22.7786 226.829C22.7786 224.276 22.5951 221.713 22.8271 219.183C23.07 216.528 21.6129 216.829 19.9453 217.168" stroke="black" stroke-width="2" stroke-linecap="round" stroke-linejoin="round"/>
<path d="M61.1992 35.2006V47.2798" stroke="black" stroke-width="2" stroke-linecap="round" stroke-linejoin="round"/>
<path d="M67.668 114.908C68.5422 118.933 68.008 122.957 67.668 126.987" stroke="black" stroke-width="2" stroke-linecap="round" stroke-linejoin="round"/>
<path d="M58.7716 126.987C58.0106 125.289 58.2211 123.462 58.437 121.765C58.7068 119.621 57.6275 119.019 55.9383 118.97C54.1304 118.917 53.3317 119.873 53.4828 121.759C53.6232 123.495 53.5152 125.246 53.5152 126.993" stroke="black" stroke-width="2" stroke-linecap="round" stroke-linejoin="round"/>
<path d="M44.6181 59.7566C46.1831 59.0097 47.8453 58.5153 49.0272 60.1864C50.2306 61.8844 50.2198 63.9478 49.3941 65.7639C48.984 66.6667 47.9802 68.0046 46.6742 67.3437C45.4222 66.7096 43.6575 66.3657 43.7708 64.1896C43.9273 61.245 43.8086 58.2897 43.8086 55.3344" stroke="black" stroke-width="2" stroke-linecap="round" stroke-linejoin="round"/>
<path d="M57.1563 47.2744C57.7607 46.1191 57.5718 44.8671 57.5502 43.6528C57.4801 39.1607 56.5249 38.5804 52.3047 40.4342" stroke="black" stroke-width="2" stroke-linecap="round" stroke-linejoin="round"/>
<path d="M150.971 217.968C151.538 216.947 151.36 215.835 151.371 214.75C151.419 209.468 151.128 209.247 145.715 210.843C145.715 212.853 145.715 215.013 145.715 217.168" stroke="black" stroke-width="2" stroke-linecap="round" stroke-linejoin="round"/>
<path d="M90.7175 79.482C88.9258 78.7512 87.296 78.8695 86.2922 80.7018C85.3316 82.4642 85.6392 84.2911 86.7023 85.9031C87.323 86.8381 88.1001 87.5366 89.5356 86.7843C90.6689 86.1933 91.6079 85.8547 91.5539 84.3072C91.4568 81.3573 91.527 78.402 91.527 75.452" stroke="black" stroke-width="2" stroke-linecap="round" stroke-linejoin="round"/>
<path d="M16.3076 226.829C16.3076 225.217 16.2698 223.605 16.3184 221.998C16.3724 220.241 15.8867 218.602 13.8953 218.882C12.4112 219.091 10.5494 219.715 10.6357 221.998C10.6951 223.605 10.6465 225.217 10.6465 226.829" stroke="black" stroke-width="2" stroke-linecap="round" stroke-linejoin="round"/>
<path d="M83.436 99.2074C82.837 102.141 80.4949 104.495 80.6028 107.66C80.6568 109.325 78.9352 109.497 78.1797 110.475" stroke="black" stroke-width="2" stroke-linecap="round" stroke-linejoin="round"/>
<path d="M64.0313 126.987C64.0313 125.51 64.0691 124.032 64.0259 122.56C63.9126 118.729 62.7253 118.143 59.1797 120.142" stroke="black" stroke-width="2" stroke-linecap="round" stroke-linejoin="round"/>
<path d="M176.855 76.2634C175.824 80.1321 174.124 83.7645 172.812 87.5366" stroke="black" stroke-width="2" stroke-linecap="round" stroke-linejoin="round"/>
<path d="M37.3398 234.878V246.151" stroke="black" stroke-width="2" stroke-linecap="round" stroke-linejoin="round"/>
<path d="M47.4484 95.5858C46.0668 99.331 44.3345 102.953 43.4062 106.859" stroke="black" stroke-width="2" stroke-linecap="round" stroke-linejoin="round"/>
<path d="M39.7698 99.2074C38.2209 100.261 36.0083 100.185 34.875 102.093C36.4562 103.442 38.8469 103.479 40.1745 105.247" stroke="black" stroke-width="2" stroke-linecap="round" stroke-linejoin="round"/>
<path d="M178.473 213.138C177.938 213.191 178.602 213.127 178.068 213.127C176.373 213.132 174.711 213.245 174.058 215.163C173.902 215.631 173.896 216.233 174.404 216.786C175.958 218.484 177.393 217.033 178.877 216.765" stroke="black" stroke-width="2" stroke-linecap="round" stroke-linejoin="round"/>
<path d="M44.2164 126.987C43.5364 125.563 43.7469 124.032 43.844 122.56C44.0491 119.422 42.8672 118.234 39.7695 119.336" stroke="black" stroke-width="2" stroke-linecap="round" stroke-linejoin="round"/>
<path d="M30.8683 238.505C29.4814 238.903 28.0243 239.316 27.6627 240.928C27.2688 242.68 27.0637 244.518 28.8554 245.743C30.4258 246.818 31.9315 246.441 32.8489 244.926C34.0416 242.965 34.3384 240.918 32.088 239.306C31.7804 239.085 31.5429 238.774 31.2731 238.505" stroke="black" stroke-width="2" stroke-linecap="round" stroke-linejoin="round"/>
<path d="M142.078 206.7C141.36 210.166 141.786 213.675 141.673 217.168" stroke="black" stroke-width="2" stroke-linecap="round" stroke-linejoin="round"/>
<path d="M199.902 250.176C199.044 248.908 199.66 247.489 199.508 246.151C199.168 243.115 198.186 242.659 195.051 244.142" stroke="black" stroke-width="2" stroke-linecap="round" stroke-linejoin="round"/>
<path d="M179.283 15.0667C176.115 16.136 172.748 14.8034 169.58 15.8727" stroke="black" stroke-width="2" stroke-linecap="round" stroke-linejoin="round"/>
<path d="M172.002 209.919C170.059 209.865 169.017 210.558 169.125 212.74C169.212 214.476 169.53 216.276 168.764 217.974" stroke="black" stroke-width="2" stroke-linecap="round" stroke-linejoin="round"/>
<path d="M180.492 241.321C180.492 244.002 180.584 246.694 180.46 249.37C180.379 251.073 181.388 251.009 182.516 250.982" stroke="black" stroke-width="2" stroke-linecap="round" stroke-linejoin="round"/>
<path d="M53.1089 238.102C49.2773 239.779 50.3674 243.174 50.2756 246.151" stroke="black" stroke-width="2" stroke-linecap="round" stroke-linejoin="round"/>
<path d="M189.795 78.676C188.818 81.6259 189.671 84.5812 189.795 87.5312" stroke="black" stroke-width="2" stroke-linecap="round" stroke-linejoin="round"/>
<path d="M32.0826 47.2744C31.0626 41.8796 31.2353 41.4282 35.3152 38.8221C38.7637 40.9822 36.8371 44.4158 37.3389 47.2744" stroke="black" stroke-width="2" stroke-linecap="round" stroke-linejoin="round"/>
<path d="M160.681 213.541C162.3 213.573 163.913 213.385 166.229 214.288C165.495 211.413 164.831 209.656 162.305 209.967C160.249 210.225 159.197 213.653 160.276 215.953C161.231 217.984 162.273 218.065 165.532 216.356" stroke="black" stroke-width="2" stroke-linecap="round" stroke-linejoin="round"/>
<path d="M199.498 209.919C200.998 212.434 202.558 214.927 202.731 217.968" stroke="black" stroke-width="2" stroke-linecap="round" stroke-linejoin="round"/>
<path d="M208.802 213.541C210.567 213.53 212.332 213.557 214.096 213.53C214.053 211.252 212.855 210.397 211.258 209.774C208.003 210.875 207.739 213.492 208.505 215.926C209.202 218.129 210.772 218.086 214.059 216.362" stroke="black" stroke-width="2" stroke-linecap="round" stroke-linejoin="round"/>
<path d="M155.424 207.501C155.424 209.919 155.424 212.332 155.424 214.75C155.424 216.168 155.289 217.683 157.447 217.565" stroke="black" stroke-width="2" stroke-linecap="round" stroke-linejoin="round"/>
<path d="M36.1241 214.75C35.1365 216.227 33.6093 217.442 34.0788 219.586C34.4188 221.128 33.3287 221.869 32.082 222.396" stroke="black" stroke-width="2" stroke-linecap="round" stroke-linejoin="round"/>
<path d="M9.4375 253.4C10.6949 254.92 11.9631 256.409 11.4828 258.639C11.2832 259.563 11.4289 260.476 12.6755 260.648" stroke="black" stroke-width="2" stroke-linecap="round" stroke-linejoin="round"/>
<path d="M65.6463 79.482C65.8514 82.1633 65.1876 84.8875 66.051 87.5312" stroke="black" stroke-width="2" stroke-linecap="round" stroke-linejoin="round"/>
<path d="M174.83 241.321C174.83 243.201 174.841 245.077 174.83 246.957C174.814 248.65 174.857 250.299 176.854 250.982" stroke="black" stroke-width="2" stroke-linecap="round" stroke-linejoin="round"/>
<path d="M193.838 242.933C194.432 245.592 194.21 248.295 194.243 250.982" stroke="black" stroke-width="2" stroke-linecap="round" stroke-linejoin="round"/>
<path d="M82.2305 79.482C83.0939 82.131 82.4247 84.8553 82.6352 87.5312" stroke="black" stroke-width="2" stroke-linecap="round" stroke-linejoin="round"/>
<path d="M114.171 82.7006C113.631 82.7006 113.086 82.6522 112.552 82.7113C111.316 82.8457 110.221 83.0498 110.08 84.7102C109.978 85.8977 110.544 86.8273 111.359 87.0422C112.476 87.3377 113.836 86.7306 114.516 85.8762C116 84.0063 115.472 81.4271 114.419 79.9924C112.854 77.8592 110.879 78.8802 109.719 81.0886" stroke="black" stroke-width="2" stroke-linecap="round" stroke-linejoin="round"/>
<path d="M41.7857 36.8072C41.2298 39.064 41.4187 41.3638 41.3809 43.6528C41.3539 45.2594 41.64 46.6726 43.4047 47.2744" stroke="black" stroke-width="2" stroke-linecap="round" stroke-linejoin="round"/>
<path d="M179.687 217.571C178.408 216.641 179.514 215.416 179.304 214.347C179.007 212.837 179.984 210.822 178.046 209.978C176.309 209.226 174.992 210.687 173.621 211.531" stroke="black" stroke-width="2" stroke-linecap="round" stroke-linejoin="round"/>
<path d="M191.82 207.501C191.82 209.919 191.879 212.332 191.798 214.744C191.755 216.093 191.939 217.168 193.439 217.565" stroke="black" stroke-width="2" stroke-linecap="round" stroke-linejoin="round"/>
<path d="M196.67 209.919V217.168" stroke="black" stroke-width="2" stroke-linecap="round" stroke-linejoin="round"/>
<path d="M48.6624 116.52C49.1265 119.857 47.691 123.35 49.4719 126.584" stroke="black" stroke-width="2" stroke-linecap="round" stroke-linejoin="round"/>
<path d="M38.5547 114.908C39.6502 118.901 38.6896 122.963 38.9594 126.987" stroke="black" stroke-width="2" stroke-linecap="round" stroke-linejoin="round"/>
<path d="M74.9502 78.676C74.0327 80.9704 74.0111 83.6248 72.3274 86.0428C70.1363 84.1567 70.6598 81.5507 69.2891 79.885" stroke="black" stroke-width="2" stroke-linecap="round" stroke-linejoin="round"/>
<path d="M205.159 233.669C202.731 233.003 200.307 233.003 197.879 233.669" stroke="black" stroke-width="2" stroke-linecap="round" stroke-linejoin="round"/>
<path d="M192.623 79.079C194.328 80.8952 193.897 83.6409 195.548 85.9031C197.156 83.8612 198.025 81.814 198.284 79.482" stroke="black" stroke-width="2" stroke-linecap="round" stroke-linejoin="round"/>
<path d="M33.2969 222.804C34.4949 223.481 34.1495 224.642 34.0794 225.62C33.9553 227.334 34.4086 228.618 36.1301 229.247" stroke="black" stroke-width="2" stroke-linecap="round" stroke-linejoin="round"/>
<path d="M95.1641 83.5066C97.2796 84.2911 99.4814 83.7484 101.635 83.9096" stroke="black" stroke-width="2" stroke-linecap="round" stroke-linejoin="round"/>
<path d="M221.744 257.424C223.379 259.3 221.723 261.992 223.363 263.867" stroke="black" stroke-width="2" stroke-linecap="round" stroke-linejoin="round"/>
<path d="M12.6707 262.255C10.9168 262.615 11.5914 264.018 11.4564 265.071C11.3215 266.124 12.0015 267.526 10.2422 267.886" stroke="black" stroke-width="2" stroke-linecap="round" stroke-linejoin="round"/>
<path d="M101.635 79.885C99.4814 80.0462 97.2796 79.5035 95.1641 80.288" stroke="black" stroke-width="2" stroke-linecap="round" stroke-linejoin="round"/>
<path d="M205.97 209.919C204.221 211.397 205.16 214.212 203.137 215.556" stroke="black" stroke-width="2" stroke-linecap="round" stroke-linejoin="round"/>
<path d="M142.887 78.676C144.063 80.9865 147.204 79.8742 148.386 82.1149C146.859 83.2272 145.294 84.8069 142.887 84.7156" stroke="black" stroke-width="2" stroke-linecap="round" stroke-linejoin="round"/>
<path d="M74.1389 65.7961C74.263 68.2034 73.7665 70.2023 70.9062 70.6267" stroke="black" stroke-width="2" stroke-linecap="round" stroke-linejoin="round"/>
<path d="M70.9023 59.3536C72.9369 60.6862 71.9493 63.5286 73.7356 64.9902" stroke="black" stroke-width="2" stroke-linecap="round" stroke-linejoin="round"/>
<path d="M77.3723 59.3536C75.3378 60.6862 76.3254 63.5286 74.5391 64.9902" stroke="black" stroke-width="2" stroke-linecap="round" stroke-linejoin="round"/>
<path d="M64.4375 39.2252C66.4073 40.2783 68.6091 40.8318 70.6491 42.2611C69.0894 44.2653 66.3101 44.217 64.4375 45.6678" stroke="black" stroke-width="2" stroke-linecap="round" stroke-linejoin="round"/>
<path d="M201.117 78.676C202.407 80.7877 205.499 79.7614 206.606 82.0826C205.229 83.5549 203.195 84.3717 201.117 85.1186" stroke="black" stroke-width="2" stroke-linecap="round" stroke-linejoin="round"/>
<path d="M128.326 78.676C128.272 82.7006 129.282 86.7252 128.326 90.7552" stroke="black" stroke-width="2" stroke-linecap="round" stroke-linejoin="round"/>
<path d="M28.844 118.933C26.7285 119.61 24.7911 120.593 23.1289 122.098C24.7587 123.774 27.4516 123.446 28.844 125.375" stroke="black" stroke-width="2" stroke-linecap="round" stroke-linejoin="round"/>
<path d="M71.7109 118.933C73.6753 119.481 75.3591 120.55 77.2803 121.818C75.6667 123.613 72.909 123.371 71.7109 125.375" stroke="black" stroke-width="2" stroke-linecap="round" stroke-linejoin="round"/>
<path d="M85.4619 62.1692C83.5731 63.1095 81.9001 64.469 79.8008 64.9848" stroke="black" stroke-width="2" stroke-linecap="round" stroke-linejoin="round"/>
<path d="M28.8435 39.2252C26.9546 40.2944 24.8121 40.9231 23.0312 42.3524C24.8121 43.6044 26.6794 44.3352 28.4387 45.2594" stroke="black" stroke-width="2" stroke-linecap="round" stroke-linejoin="round"/>
<path d="M86.6743 99.2074C88.2933 100.013 89.9123 100.814 91.7256 101.727C90.3224 103.614 87.3165 103.017 86.2695 105.242" stroke="black" stroke-width="2" stroke-linecap="round" stroke-linejoin="round"/>
<path d="M53.1079 78.676C52.0502 80.8736 49.3087 80.3471 47.8516 81.8946" stroke="black" stroke-width="2" stroke-linecap="round" stroke-linejoin="round"/>
<path d="M170.384 79.482C168.274 79.7668 166.611 81.0994 164.652 81.8248C166.271 83.5603 168.306 84.3771 170.384 85.1186" stroke="black" stroke-width="2" stroke-linecap="round" stroke-linejoin="round"/>
<path d="M31.6794 35.2006C31.9978 36.9361 30.9562 38.8813 32.4889 40.4342" stroke="black" stroke-width="2" stroke-linecap="round" stroke-linejoin="round"/>
<path d="M50.6844 94.7798C50.0583 96.5261 50.0583 98.2671 50.6844 100.013" stroke="black" stroke-width="2" stroke-linecap="round" stroke-linejoin="round"/>
<path d="M40.1734 65.7961C39.4719 63.6361 37.1891 63.9477 35.7266 62.9805" stroke="black" stroke-width="2" stroke-linecap="round" stroke-linejoin="round"/>
<path d="M77.7773 99.2074C78.7865 100.857 78.711 103.012 80.2058 104.441" stroke="black" stroke-width="2" stroke-linecap="round" stroke-linejoin="round"/>
<path d="M10.6467 214.75C10.7816 216.496 10.2905 218.285 11.0515 219.983" stroke="black" stroke-width="2" stroke-linecap="round" stroke-linejoin="round"/>
<path d="M182.514 242.933C180.086 243.035 177.63 242.642 175.234 243.336" stroke="black" stroke-width="2" stroke-linecap="round" stroke-linejoin="round"/>
<path d="M39.7696 59.7565C38.1937 60.6431 36.3319 60.9602 34.918 62.1745" stroke="black" stroke-width="2" stroke-linecap="round" stroke-linejoin="round"/>
<path d="M210.017 7.01755C207.324 9.7042 204.626 12.3855 201.928 15.0668" stroke="black" stroke-width="2" stroke-linecap="round" stroke-linejoin="round"/>
<path d="M46.6367 81.9C48.7792 82.5824 50.6518 83.8451 52.7026 84.7156" stroke="black" stroke-width="2" stroke-linecap="round" stroke-linejoin="round"/>
<path d="M201.857 6.94769C202.802 8.42535 209.434 13.2237 210.012 15.0668" stroke="black" stroke-width="2" stroke-linecap="round" stroke-linejoin="round"/>
<path d="M80.207 59.7565C81.594 60.3476 83.2777 60.353 84.2491 61.7715" stroke="black" stroke-width="2" stroke-linecap="round" stroke-linejoin="round"/>
<path d="M137.227 74.6514V78.676" stroke="black" stroke-width="2" stroke-linecap="round" stroke-linejoin="round"/>
<path d="M139.648 75.4573V78.676" stroke="black" stroke-width="2" stroke-linecap="round" stroke-linejoin="round"/>
<path d="M106.896 75.4573C107.209 76.5857 106.286 77.5637 106.491 78.676" stroke="black" stroke-width="2" stroke-linecap="round" stroke-linejoin="round"/>
<path d="M63.625 240.515V243.733" stroke="black" stroke-width="2" stroke-linecap="round" stroke-linejoin="round"/>
<path d="M94.765 245.748C94.5815 246.78 93.9717 247.634 93.5508 248.564" stroke="black" stroke-width="2" stroke-linecap="round" stroke-linejoin="round"/>
<path d="M157.442 209.919H153.4" stroke="black" stroke-width="2" stroke-linecap="round" stroke-linejoin="round"/>
<path d="M39.3633 39.2252C40.7124 39.8377 42.0616 39.8377 43.4054 39.2252" stroke="black" stroke-width="2" stroke-linecap="round" stroke-linejoin="round"/>
<path d="M193.837 209.919H189.795" stroke="black" stroke-width="2" stroke-linecap="round" stroke-linejoin="round"/>
<path d="M50.6866 118.933H46.6445" stroke="black" stroke-width="2" stroke-linecap="round" stroke-linejoin="round"/>
<path d="M187.368 242.933C185.517 243.835 184.297 245.087 184.513 247.366C184.643 248.698 184.513 249.999 186.148 250.611C187.276 251.036 188.426 251.283 189.365 250.552C190.757 249.477 191.318 247.779 190.93 246.178C190.563 244.668 189.694 243.174 187.773 242.938" stroke="black" stroke-width="2" stroke-linecap="round" stroke-linejoin="round"/>
<path d="M134.392 201.064C128.66 203.068 125.406 206.652 125.406 213.143C125.406 219.607 130.279 224.346 136.415 224.368C163.642 224.475 190.873 224.47 218.099 224.368C224.624 224.346 229.233 220.128 230.231 213.944C230.938 209.564 227.365 203.219 222.924 201.977C220.382 201.263 217.614 201.026 214.867 201.032C188.175 201.085 161.488 201.064 134.796 201.064" stroke="black" stroke-width="2" stroke-linecap="round" stroke-linejoin="round"/>
<path d="M55.5384 59.3536C52.5055 60.1918 52.2465 62.7119 52.8563 64.9526C53.2179 66.2798 55.0257 67.9294 56.6987 67.2738C58.0317 66.7526 59.3593 65.4899 59.2513 63.3782C59.1272 61.0462 58.9545 59.1601 55.9432 59.3536" stroke="black" stroke-width="2" stroke-linecap="round" stroke-linejoin="round"/>
<path d="M62.8153 98.8044C60.4084 99.734 58.4872 100.739 59.491 104.065C60.1332 106.198 61.1909 107.058 63.2147 106.832C65.341 106.596 65.6594 105.086 65.6864 103.232C65.7133 101.201 65.0873 99.7017 63.2201 98.8044" stroke="black" stroke-width="2" stroke-linecap="round" stroke-linejoin="round"/>
</g>
<defs>
<clipPath id="clip0_2996_2140">
<rect width="237" height="295" fill="white"/>
</clipPath>
</defs>
</svg>
