<svg width="430" height="700" viewBox="0 0 430 700" fill="none" xmlns="http://www.w3.org/2000/svg">
<path d="M54.6133 0H259.691C269.132 1.6276 273.852 6.34766 273.852 14.1602V77.6367H40.4531V14.1602C42.0807 4.72005 46.8008 0 54.6133 0ZM-23.0234 77.6367H40.4531V141.113C40.4531 150.553 35.7331 155.273 26.293 155.273H-37.1836V91.7969C-35.556 82.3568 -30.8359 77.6367 -23.0234 77.6367ZM273.852 77.6367H337.328C346.768 79.2643 351.488 83.9844 351.488 91.7969V155.273H288.012C278.572 155.273 273.852 150.553 273.852 141.113V77.6367ZM-100.66 155.273H-37.1836V466.309H-100.66C-110.1 466.309 -114.82 461.589 -114.82 452.148V169.434C-113.193 159.993 -108.473 155.273 -100.66 155.273ZM351.488 155.273H415.453C424.893 156.901 429.613 161.621 429.613 169.434V452.148C429.613 461.589 424.893 466.309 415.453 466.309H351.488V155.273ZM132.738 233.398H182.055C191.495 234.701 196.215 239.421 196.215 247.559V311.035H118.578V247.559C119.88 238.118 124.6 233.398 132.738 233.398ZM54.6133 311.035H118.578V466.309H196.215V311.035H259.691C269.132 312.337 273.852 317.057 273.852 325.195V466.309H351.488V530.273C351.488 539.714 346.768 544.434 337.328 544.434H273.852V685.547C273.852 694.987 269.132 699.707 259.691 699.707H54.6133C45.1732 699.707 40.4531 694.987 40.4531 685.547V544.434H-23.0234C-32.4635 544.434 -37.1836 539.714 -37.1836 530.273V466.309H40.4531V325.195C42.0807 315.755 46.8008 311.035 54.6133 311.035Z" fill="#F8FBE7"/>
</svg>
