<svg width="568" height="700" viewBox="0 0 568 700" fill="none" xmlns="http://www.w3.org/2000/svg">
<path d="M92.7734 0H221.191C230.957 1.6276 235.84 6.34766 235.84 14.1602V71.2891C235.84 80.7292 230.957 85.4492 221.191 85.4492H92.7734C83.3333 85.4492 78.6133 80.7292 78.6133 71.2891V14.1602C79.9154 4.72005 84.6354 0 92.7734 0ZM478.516 0H606.934C616.374 1.6276 621.094 6.34766 621.094 14.1602V71.2891C621.094 80.7292 616.374 85.4492 606.934 85.4492H478.516C468.75 85.4492 463.867 80.7292 463.867 71.2891V14.1602C465.495 4.72005 470.378 0 478.516 0ZM92.7734 157.227H221.191C230.957 158.529 235.84 163.249 235.84 171.387V235.84H85.4492V335.449L84.9609 385.742H142.578C152.344 387.044 157.227 391.764 157.227 399.902V528.32C157.227 537.76 152.344 542.48 142.578 542.48H85.4492V614.258H235.84V235.84H299.805C309.245 237.142 313.965 241.862 313.965 250V606.934C313.965 616.374 309.245 621.094 299.805 621.094H235.84V685.547C235.84 694.987 230.957 699.707 221.191 699.707H92.7734C83.3333 699.707 78.6133 694.987 78.6133 685.547V621.094H14.1602C4.72005 621.094 0 616.374 0 606.934V250C1.6276 240.56 6.34766 235.84 14.1602 235.84H78.6133V171.387C79.9154 161.947 84.6354 157.227 92.7734 157.227ZM478.516 157.227H606.934C616.374 158.529 621.094 163.249 621.094 171.387V235.84H685.547C694.987 237.142 699.707 241.862 699.707 250V606.934C699.707 616.374 694.987 621.094 685.547 621.094H621.094V685.547C621.094 694.987 616.374 699.707 606.934 699.707H478.516C468.75 699.707 463.867 694.987 463.867 685.547V621.094H399.902C390.462 621.094 385.742 616.374 385.742 606.934V250C387.044 240.56 391.764 235.84 399.902 235.84H463.867V385.742H528.32C537.76 387.044 542.48 391.764 542.48 399.902V528.32C542.48 537.76 537.76 542.48 528.32 542.48H463.867V614.258H614.258V235.84H463.867V171.387C465.495 161.947 470.378 157.227 478.516 157.227Z" fill="#F8FBE7"/>
</svg>
