<svg width="699" height="699" viewBox="0 0 699 699" fill="none" xmlns="http://www.w3.org/2000/svg">
<path d="M244.629 0H300.293C309.733 1.30208 314.453 6.02214 314.453 14.1602V83.9844H565.918H614.746V14.1602C616.374 4.72005 621.094 0 628.906 0H684.57C694.01 1.30208 698.73 6.02214 698.73 14.1602V300.293C698.73 309.733 694.01 314.453 684.57 314.453H622.07V377.441C622.07 386.556 617.35 391.113 607.91 391.113H544.922V684.57C544.922 694.01 540.365 698.73 531.25 698.73H475.098C465.658 698.73 460.938 694.01 460.938 684.57V544.922H391.113V684.57C391.113 694.01 386.556 698.73 377.441 698.73H321.289C312.174 698.73 307.617 694.01 307.617 684.57L309.57 544.922H237.793V684.57C237.793 694.01 233.073 698.73 223.633 698.73H167.48C158.366 698.73 153.809 694.01 153.809 684.57V544.922H83.9844V684.57C83.9844 694.01 79.2643 698.73 69.8242 698.73H14.1602C4.72005 698.73 0 694.01 0 684.57V237.793L83.9844 238.281V314.453H230.469V14.1602C232.096 4.72005 236.816 0 244.629 0ZM391.113 160.645V237.793H470.703L468.262 160.645H391.113ZM544.922 160.645V237.793H565.918L614.746 235.352V160.645H544.922Z" fill="#F8FBE7"/>
</svg>
