<svg width="260" height="307" viewBox="0 0 260 307" fill="none" xmlns="http://www.w3.org/2000/svg">
<g clip-path="url(#clip0_2996_2391)">
<path d="M184.78 96.1304C191.876 97.3877 199.026 98.0074 206.229 97.8644C207.923 97.8286 208.924 96.7918 208.948 94.7897C209.068 85.816 214.262 79.4463 220.064 73.3446C229.474 63.4533 230.845 48.5687 224.912 38.588C214.685 21.3855 192.967 16.2015 176.735 29.1615C162.489 40.5365 160.426 60.6945 172.627 74.3338C175.429 77.462 178.977 80.2745 180.617 84.1357C182.555 88.706 186.384 93.2881 182.609 98.8535C181.727 100.158 183.116 101.749 185.221 102.381C192.228 104.49 199.497 104.204 206.67 104.544C210.69 104.735 211.685 102.309 209.795 97.918" stroke="black" stroke-width="2" stroke-linecap="round" stroke-linejoin="round"/>
<path d="M17.6641 131.399C20.6278 136.387 21.5759 142.113 23.3768 147.506C28.839 163.838 34.1999 180.212 39.5966 196.569C48.1657 222.543 55.6912 248.844 64.6359 274.692C65.6079 277.505 66.1804 280.425 67.2657 283.13C71.6426 283.898 75.5187 281.688 79.2636 280.341C100.987 272.535 123.319 266.809 145.455 260.41C153.475 258.092 161.567 256.03 169.588 253.73" stroke="black" stroke-width="2" stroke-linecap="round" stroke-linejoin="round"/>
<path d="M14.0899 138.544C11.7165 142.197 14.1257 145.706 15.1633 148.751C20.6076 164.756 25.5928 180.904 30.5244 197.058C38.4434 222.989 45.963 249.046 54.6692 274.734C55.1582 276.182 56.6013 277.839 55.1999 279.614" stroke="black" stroke-width="2" stroke-linecap="round" stroke-linejoin="round"/>
<path d="M173.165 259.975C168.025 263.234 161.859 264.062 156.134 265.641C141.083 269.788 126.205 274.472 111.053 278.274C94.3915 282.456 78.0584 287.646 61.4569 292.115C60.9739 291.234 60.4372 290.501 59.668 289.935" stroke="black" stroke-width="2" stroke-linecap="round" stroke-linejoin="round"/>
<path d="M221.426 199.262C225.2 215.839 228.498 232.559 233.662 248.76C235.684 255.106 239.226 261.053 243.746 266.249C249.166 272.476 253.609 279.507 259.411 285.424" stroke="black" stroke-width="2" stroke-linecap="round" stroke-linejoin="round"/>
<path d="M143.228 174.707C143.932 177.197 141.564 177.001 140.527 177.305C115.607 184.586 90.9012 192.594 65.9095 199.65C64.383 200.079 62.7729 201.36 61.0078 200.15" stroke="black" stroke-width="2" stroke-linecap="round" stroke-linejoin="round"/>
<path d="M107.031 103.722C112.333 100.26 118.54 99.3719 124.491 98.0848C128.051 97.3162 131.444 95.6656 135.678 95.6299C144.724 122.765 154.898 149.621 163.777 176.935" stroke="black" stroke-width="2" stroke-linecap="round" stroke-linejoin="round"/>
<path d="M144.123 175.601C145.005 175.392 146.037 176.059 146.967 174.993C141.267 158.297 135.25 141.601 130.074 124.547C117.909 126.305 106.561 130.243 94.9744 133.181C78.1524 137.447 61.5807 142.602 44.9196 147.434C44.2816 147.619 44.043 148.072 43.5898 148.364" stroke="black" stroke-width="2" stroke-linecap="round" stroke-linejoin="round"/>
<path d="M225.89 187.655C211.489 191.123 196.987 194.174 182.532 197.403C171.846 199.793 161.136 202.116 150.379 204.172" stroke="black" stroke-width="2" stroke-linecap="round" stroke-linejoin="round"/>
<path d="M226.783 192.565C216.211 195.735 205.37 197.778 194.612 200.162C181.35 203.1 167.873 205.12 154.844 209.082" stroke="black" stroke-width="2" stroke-linecap="round" stroke-linejoin="round"/>
<path d="M136.973 217.12C138.833 220.052 141.063 222.715 142.435 226.01C143.258 227.989 144.641 229.663 146.722 231.087C156.037 237.463 164.481 244.768 170.557 254.582C175.763 262.984 183.879 268.716 192.502 272.666C202.567 277.278 208.477 285.013 213.909 293.861C216.462 298.02 218.453 302.513 221.429 306.41" stroke="black" stroke-width="2" stroke-linecap="round" stroke-linejoin="round"/>
<path d="M130.72 222.924C121.829 225.26 113.164 228.358 104.351 230.932C93.4502 234.12 82.7403 237.934 71.7383 240.776" stroke="black" stroke-width="2" stroke-linecap="round" stroke-linejoin="round"/>
<path d="M131.609 230.062C113.278 235.681 95.0904 241.777 76.6225 246.943C75.7757 247.181 75.3046 247.998 74.4102 247.92" stroke="black" stroke-width="2" stroke-linecap="round" stroke-linejoin="round"/>
<path d="M100.777 201.044C94.3187 201.103 88.5106 203.821 82.4639 205.525C75.6063 207.461 68.6055 209.005 62.0938 212.598C63.7634 216.846 65.1588 221.047 66.6198 225.438C80.5915 221.684 94.3008 218.008 107.634 212.484C108.708 209.94 107.33 207.539 106.591 205.06" stroke="black" stroke-width="2" stroke-linecap="round" stroke-linejoin="round"/>
<path d="M48.4975 150.598C47.0067 148.697 43.8641 151.081 42.922 147.774C40.3816 151.468 42.9458 154.167 43.6852 156.819C47.7521 171.328 52.8924 185.492 57.8776 199.709" stroke="black" stroke-width="2" stroke-linecap="round" stroke-linejoin="round"/>
<path d="M50.2877 27.8268C47.9442 29.0661 47.9322 31.9203 46.2029 33.5292C47.0199 35.1141 47.9203 36.5502 48.4212 38.1173C48.6478 38.8264 49.6139 39.023 49.3932 39.881C58.004 39.2971 52.8459 45.5954 54.8793 49.4565C49.0831 48.4972 47.4492 51.7447 46.3043 56.0706C46.8291 57.3219 48.3974 58.5911 49.0414 60.7183C47.1928 62.3927 45.8034 64.7762 43.0961 65.7355C41.7484 64.9549 40.5439 63.8526 39.2081 63.0362C35.6123 65.0503 30.1083 65.223 32.0583 71.5571C29.9354 72.3078 28.2419 71.8967 26.602 72.0159C25.4511 72.0993 23.9782 72.2125 23.9782 70.6811C23.9663 66.0811 19.9054 65.5031 17.0132 63.5725C15.2541 63.9002 15.1646 66.9391 12.4812 66.4386C10.0363 65.6104 8.65287 63.0064 6.5598 61.4334C6.72677 59.5207 8.52764 58.7877 9.30285 57.3517C7.28134 54.2949 6.96529 49.82 1.98009 49.6949C1.12139 48.1874 1.34203 46.3879 0.757637 44.7612C0.137467 43.0272 1.41955 41.1204 2.89841 41.3588C6.92951 42.0142 7.13822 39.3031 7.85977 36.7587C8.11618 35.859 8.8258 35.0963 8.89736 33.9641C8.56938 32.248 6.4942 31.6939 5.94559 29.7156C7.60931 28.0472 9.40423 26.2656 11.2349 24.4244C12.9821 25.4373 13.9005 27.0283 15.0991 27.9042C18.7425 26.2656 22.3085 25.4373 23.2984 20.736C23.68 18.9365 27.4786 18.9842 29.7148 19.4311C32.4101 19.9673 31.939 22.7023 31.9629 24.6091C36.1609 25.628 40.2636 29.3998 43.0126 22.7083C45.064 25.0083 47.1511 26.492 48.5047 28.7146" stroke="black" stroke-width="2" stroke-linecap="round" stroke-linejoin="round"/>
<path d="M226.784 115.329C231.638 124.106 230.135 133.002 226.689 141.63C224.083 148.155 218.972 153.232 215.168 159.083C214.697 159.804 213.987 159.429 213.379 159.53C210.582 154.674 213.868 150.008 213.826 145.241" stroke="black" stroke-width="2" stroke-linecap="round" stroke-linejoin="round"/>
<path d="M93.6275 161.759C79.1847 158.166 64.8016 154.346 50.2812 151.045" stroke="black" stroke-width="2" stroke-linecap="round" stroke-linejoin="round"/>
<path d="M110.165 222.03C96.5628 226.529 82.758 230.36 69.0547 234.531" stroke="black" stroke-width="2" stroke-linecap="round" stroke-linejoin="round"/>
<path d="M131.159 38.9873C126.8 38.6655 123.198 35.9364 119.078 35.0486C111.284 33.3742 103.436 33.2253 95.8749 36.3476C94.3901 36.9613 92.7681 37.2235 91.3906 38.0935" stroke="black" stroke-width="2" stroke-linecap="round" stroke-linejoin="round"/>
<path d="M202.21 188.543C201.465 186.123 198.936 185.969 197.237 185.087C189.962 181.321 182.371 178.193 174.964 174.683C173.408 173.944 171.887 174.182 170.498 174.737C159.961 178.961 150.02 184.342 141.07 191.319C138.81 193.083 137.104 195.657 134.755 197.492C132.918 198.923 132.763 200.811 133.842 202.825" stroke="black" stroke-width="2" stroke-linecap="round" stroke-linejoin="round"/>
<path d="M101.227 163.546C114.966 166.984 128.735 170.285 142.337 174.26" stroke="black" stroke-width="2" stroke-linecap="round" stroke-linejoin="round"/>
<path d="M248.233 190.33C247.333 194.025 243.999 193.327 241.518 193.852C222.884 197.808 204.296 201.967 185.667 205.912C178.81 207.366 172.071 209.493 165.106 210.298C162.155 210.637 159.799 213.205 156.633 212.204" stroke="black" stroke-width="2" stroke-linecap="round" stroke-linejoin="round"/>
<path d="M127.587 125.596C125.16 129.499 121.791 132.579 118.666 135.874C110.831 144.139 103.252 152.642 95.8633 161.306" stroke="black" stroke-width="2" stroke-linecap="round" stroke-linejoin="round"/>
<path d="M100.331 163.099C98.4343 162.831 96.6096 162.355 94.755 161.127C84.7608 173.545 73.4964 184.807 62.6971 196.491C61.3971 197.898 61.8384 201.509 58.332 200.603" stroke="black" stroke-width="2" stroke-linecap="round" stroke-linejoin="round"/>
<path d="M106.585 203.278C105.303 202.432 105.112 201.038 104.528 199.131C100.64 202.778 96.1673 205.37 91.856 208.212C85.5767 212.341 78.9636 215.97 73.0541 220.666C71.9271 221.559 70.5496 222.143 70.3945 223.818" stroke="black" stroke-width="2" stroke-linecap="round" stroke-linejoin="round"/>
<path d="M233.042 194.793C232.04 191.063 230.735 187.417 230.025 183.531C210.561 186.815 191.724 192.529 172.307 195.27C170.286 193.482 170.131 191.337 170.93 188.99" stroke="black" stroke-width="2" stroke-linecap="round" stroke-linejoin="round"/>
<path d="M197.298 60.4204C199.558 56.3388 199.188 51.8996 196.403 49.7068C193.261 53.7527 193.398 57.3934 197.065 62.0352C195.121 63.6559 193.762 65.7593 190.601 65.9381C188.878 66.0394 186.946 67.821 185.294 66.5816C183.117 64.9549 180.983 62.9945 179.945 60.3847C179.468 59.1929 179.909 57.7688 181.197 56.8214C182.616 55.7787 184.006 56.6129 184.715 57.3577C186.958 59.7054 188.46 62.5774 189.253 65.7713" stroke="black" stroke-width="2" stroke-linecap="round" stroke-linejoin="round"/>
<path d="M203.554 65.7772C201.628 71.7358 201.246 77.8792 201.312 84.0821C201.359 88.3961 201.317 92.7102 201.317 97.0302" stroke="black" stroke-width="2" stroke-linecap="round" stroke-linejoin="round"/>
<path d="M189.254 67.1119C191.49 72.2602 191.609 77.7004 191.502 83.1823C191.419 87.4964 191.484 91.8104 191.484 96.1304" stroke="black" stroke-width="2" stroke-linecap="round" stroke-linejoin="round"/>
<path d="M135.185 236.313C125.447 238.625 116.234 242.641 106.586 245.239" stroke="black" stroke-width="2" stroke-linecap="round" stroke-linejoin="round"/>
<path d="M106.584 252.83C97.1083 254.868 87.9489 257.955 78.8789 261.315" stroke="black" stroke-width="2" stroke-linecap="round" stroke-linejoin="round"/>
<path d="M78.4341 80.5069C78.124 76.1869 78.9887 72.4687 82.8409 69.7099C84.2065 68.7327 83.5803 67.1 82.012 66.2241C79.2391 64.6689 77.0864 63.1852 79.6387 59.4372C80.6524 57.9476 78.9171 55.9693 77.4025 54.4618C74.0035 56.297 71.2366 56.6009 69.3403 52.0009C68.422 49.7664 65.9353 48.527 64.5578 52.3763C63.9138 54.1639 61.9519 53.9613 60.5625 54.6167" stroke="black" stroke-width="2" stroke-linecap="round" stroke-linejoin="round"/>
<path d="M184.341 103.275C184.019 104.353 183.166 105.068 182.617 106.129C183.375 108.28 184.943 108.947 187.459 109.192C193.715 109.799 199.916 110.967 206.237 110.854C210.03 110.783 211.3 108.667 209.815 105.062" stroke="black" stroke-width="2" stroke-linecap="round" stroke-linejoin="round"/>
<path d="M100.328 247.026C93.2441 248.838 86.3268 251.192 79.3201 253.259C78.9087 253.378 78.4316 253.277 77.9844 253.277" stroke="black" stroke-width="2" stroke-linecap="round" stroke-linejoin="round"/>
<path d="M75.3103 14.8846C73.7539 12.9957 69.8182 14.0147 69.7705 9.97472C69.7586 8.79491 65.805 9.6172 65.0358 11.3094C63.5569 14.5867 60.951 15.2362 57.7428 12.9957C56.413 14.0027 55.2204 15.1945 54.2186 16.5113C55.775 19.2821 55.7213 21.4451 53.0021 23.4114C49.7999 25.7293 49.8237 27.1713 53.0021 29.5726C54.9163 31.0206 56.2818 32.6056 55.1548 34.9473C53.6342 38.1054 57.2658 38.0934 57.7846 39.9525C61.5712 37.3129 62.7638 37.5393 65.0298 41.2217C66.7472 44.0163 68.9834 44.3381 70.3132 41.6269C72.1677 37.8432 74.4337 38.6357 77.4034 40.2981C78.5662 39.4163 79.7588 38.2245 80.5758 37.146C79.7588 33.9701 78.3754 31.2708 82.8716 29.948C85.3463 29.2211 85.4298 26.1107 83.3427 24.2575C81.2914 22.4342 79.5859 20.8194 80.9872 17.5005C81.9354 15.2541 78.6497 13.4248 75.7516 14.4318" stroke="black" stroke-width="2" stroke-linecap="round" stroke-linejoin="round"/>
<path d="M189.254 117.117C190.763 121.306 193.696 123.236 198.193 122.944C201.753 122.712 204.156 121.222 204.895 117.564" stroke="black" stroke-width="2" stroke-linecap="round" stroke-linejoin="round"/>
<path d="M138.758 221.583C137.649 222.525 137.936 224.163 137.303 225.075C135.95 227.041 134.531 228.924 136.582 230.897C138.758 232.988 141.448 233.661 144.119 231.403" stroke="black" stroke-width="2" stroke-linecap="round" stroke-linejoin="round"/>
<path d="M181.655 34.0773C175.382 37.8313 171.983 43.4562 170.934 50.5946" stroke="black" stroke-width="2" stroke-linecap="round" stroke-linejoin="round"/>
<path d="M186.571 216.673C184.913 218.592 184.71 221.959 180.536 221.541C175.646 217.99 174.895 217.942 171.383 221.363" stroke="black" stroke-width="2" stroke-linecap="round" stroke-linejoin="round"/>
<path d="M82.4577 212.651C77.4247 211.43 72.2905 213.712 67.2576 212.234C67.025 212.163 66.6672 212.204 66.375 211.757" stroke="black" stroke-width="2" stroke-linecap="round" stroke-linejoin="round"/>
<path d="M40.0071 122.027C39.3392 118.124 37.0434 115.27 35.153 116.33C32.6187 117.754 30.9073 120.084 32.41 123.367" stroke="black" stroke-width="2" stroke-linecap="round" stroke-linejoin="round"/>
<path d="M197.746 62.6489C203.691 67.106 209.851 64.943 211.563 57.7271C211.849 56.5175 211.968 54.8848 210.668 54.2473C209.559 53.6991 208.486 54.4439 207.538 55.4688C205.039 58.1621 203.96 61.2844 204.007 64.8834" stroke="black" stroke-width="2" stroke-linecap="round" stroke-linejoin="round"/>
<path d="M235.722 194.793C235.973 190.872 233.516 187.536 233.397 183.633C233.337 181.619 231.793 182.804 230.809 183.186" stroke="black" stroke-width="2" stroke-linecap="round" stroke-linejoin="round"/>
<path d="M208.019 111.313C208.866 114.912 207.459 117.421 204.453 117.051C199.385 116.431 194.28 117.152 189.277 116.497C187.655 116.282 185.652 115.097 184.352 113.553C185.013 112.26 184.727 110.872 184.787 109.525" stroke="black" stroke-width="2" stroke-linecap="round" stroke-linejoin="round"/>
<path d="M95.8645 114.882C97.0452 110.967 96.6993 107.333 94.6182 103.668C93.5746 101.827 92.9902 100.403 90.4916 101.005C87.7844 101.654 88.3986 103.68 88.2316 105.503C88.166 106.23 88.7623 106.647 88.7146 107.291" stroke="black" stroke-width="2" stroke-linecap="round" stroke-linejoin="round"/>
<path d="M103.015 212.651C98.3096 211.382 93.4198 213.027 88.7148 211.757" stroke="black" stroke-width="2" stroke-linecap="round" stroke-linejoin="round"/>
<path d="M157.969 213.098C162.584 219.516 169.162 222.197 176.705 223.532C178.434 223.836 178.774 222.614 179.86 222.477" stroke="black" stroke-width="2" stroke-linecap="round" stroke-linejoin="round"/>
<path d="M59.2184 55.9515C58.4134 54.8789 57.3102 54.2115 55.7121 53.6276C54.2988 55.4569 51.836 56.6248 54.1259 60.0867C55.2171 61.7373 53.4878 63.8705 51.2039 64.943C48.1627 66.3731 48.276 68.8578 51.1681 70.6931C53.2553 72.0219 55.0561 73.2374 52.6112 76.1214C51.2397 77.7362 51.6869 78.1116 55.1933 81.3948C59.6955 79.1782 62.0032 80.0719 63.2376 84.5171" stroke="black" stroke-width="2" stroke-linecap="round" stroke-linejoin="round"/>
<path d="M131.161 41.2217C128.752 44.0044 125.174 42.914 122.204 43.8316C120.922 44.2249 119.443 44.0283 118.203 44.7969" stroke="black" stroke-width="2" stroke-linecap="round" stroke-linejoin="round"/>
<path d="M121.331 247.473C116.614 249.118 112.094 251.394 107.031 251.936" stroke="black" stroke-width="2" stroke-linecap="round" stroke-linejoin="round"/>
<path d="M173.164 209.082C175.585 214.641 180.886 213.14 185.228 213.992" stroke="black" stroke-width="2" stroke-linecap="round" stroke-linejoin="round"/>
<path d="M145.012 202.831C148.637 205.745 152.215 208.719 155.733 211.757" stroke="black" stroke-width="2" stroke-linecap="round" stroke-linejoin="round"/>
<path d="M139.203 204.172C141.021 205.954 142.625 207.914 144.068 209.904C144.593 213.009 141.194 213.748 140.401 216.179C139.984 217.448 137.622 216.995 136.573 216.56C133.979 215.488 132.434 209.046 133.323 205.936C133.794 204.297 134.492 203.856 136.072 203.683C145.911 202.629 155.267 200.061 163.812 194.847C165.506 193.816 167.724 193.828 169.591 193.012" stroke="black" stroke-width="2" stroke-linecap="round" stroke-linejoin="round"/>
<path d="M195.957 0.595856C196.917 4.73114 196.166 8.93196 196.404 13.097" stroke="black" stroke-width="2" stroke-linecap="round" stroke-linejoin="round"/>
<path d="M147.247 232.297C146.788 233.417 146.352 234.466 145.547 235.491C144.301 237.07 143.09 239.245 144.629 241.175C146.299 243.273 149.006 242.683 151.248 242.421C152.023 242.331 153.186 241.241 153.949 240.335" stroke="black" stroke-width="2" stroke-linecap="round" stroke-linejoin="round"/>
<path d="M126.695 26.492C127.53 29.0483 128.687 31.4139 130.112 33.7318C130.625 34.566 130.81 35.5193 131.651 36.7647C134.698 41.2575 134.531 38.5642 128.92 42.771" stroke="black" stroke-width="2" stroke-linecap="round" stroke-linejoin="round"/>
<path d="M237.513 182.298C236.959 186.415 238.527 190.128 239.75 193.905" stroke="black" stroke-width="2" stroke-linecap="round" stroke-linejoin="round"/>
<path d="M227.232 159.083C225.109 159.113 223.045 159.137 220.94 159.864C219.491 160.364 217.613 160.632 216.062 159.524" stroke="black" stroke-width="2" stroke-linecap="round" stroke-linejoin="round"/>
<path d="M117.312 215.333C123.21 217.913 129.185 217.37 135.184 215.78" stroke="black" stroke-width="2" stroke-linecap="round" stroke-linejoin="round"/>
<path d="M169.145 7.74023C170.23 11.661 173.068 14.7059 174.505 18.4538" stroke="black" stroke-width="2" stroke-linecap="round" stroke-linejoin="round"/>
<path d="M226.339 7.74023C223.423 10.5467 221.318 13.9134 219.637 17.56" stroke="black" stroke-width="2" stroke-linecap="round" stroke-linejoin="round"/>
<path d="M170.935 195.687C167.726 197.546 164.411 198.768 160.66 197.475" stroke="black" stroke-width="2" stroke-linecap="round" stroke-linejoin="round"/>
<path d="M132.948 205.066C129.006 204.41 126.192 207.426 122.733 208.415C120.765 208.975 118.511 210.458 116.859 212.21" stroke="black" stroke-width="2" stroke-linecap="round" stroke-linejoin="round"/>
<path d="M154.845 55.0636C151.613 55.8382 148.327 56.0408 145.012 55.9574" stroke="black" stroke-width="2" stroke-linecap="round" stroke-linejoin="round"/>
<path d="M125.352 91.6674C128.512 94.1939 129.12 97.9121 129.21 101.493C129.251 103.191 129.001 105.056 128.923 106.844" stroke="black" stroke-width="2" stroke-linecap="round" stroke-linejoin="round"/>
<path d="M246.446 182.298C247.752 184.515 245.82 187.345 247.74 189.52C250.758 184.288 248.945 180.421 243.322 180.618C240.346 180.725 237.293 181.368 234.383 182.298" stroke="black" stroke-width="2" stroke-linecap="round" stroke-linejoin="round"/>
<path d="M230.809 73.8094C232.347 77.3548 236.67 77.331 238.853 80.06" stroke="black" stroke-width="2" stroke-linecap="round" stroke-linejoin="round"/>
<path d="M50.2862 125.596C50.4651 124.601 52.5403 125.87 52.0394 124.267C51.3 121.913 51.4669 119.405 50.3638 117.075C49.3679 114.983 48.7 112.85 45.8258 113.571C43.1006 114.251 42.3612 116.259 42.6355 118.904C42.7071 119.572 43.1841 120.042 43.1364 120.686" stroke="black" stroke-width="2" stroke-linecap="round" stroke-linejoin="round"/>
<path d="M63.247 122.027C64.0401 117.206 61.9112 112.779 57.4388 109.972C54.8926 111.224 56.7829 112.91 56.9916 114.435" stroke="black" stroke-width="2" stroke-linecap="round" stroke-linejoin="round"/>
<path d="M150.379 29.6143C153.593 30.1506 155.209 33.547 158.423 34.0774" stroke="black" stroke-width="2" stroke-linecap="round" stroke-linejoin="round"/>
<path d="M107.032 109.078C107.044 106.177 107.271 103.257 105.702 100.593C104.683 98.8654 103.454 97.6141 101.224 97.912C98.4214 98.2815 98.97 100.635 98.5705 102.393C98.4095 103.102 98.5466 103.877 98.5466 104.621" stroke="black" stroke-width="2" stroke-linecap="round" stroke-linejoin="round"/>
<path d="M30.1813 133.187C30.5391 129.385 28.8217 126.007 27.8676 122.491C27.474 121.031 26.1561 119.172 24.4209 119.905C22.2026 120.847 21.4273 123.123 21.6838 125.596C21.7136 125.888 21.6838 126.192 21.6838 126.49" stroke="black" stroke-width="2" stroke-linecap="round" stroke-linejoin="round"/>
<path d="M243.319 28.2737C241.071 26.9687 240.433 29.6739 238.931 30.2579C237.112 30.961 235.758 32.9631 233.492 33.1836" stroke="black" stroke-width="2" stroke-linecap="round" stroke-linejoin="round"/>
<path d="M55.647 111.76C52.0632 112.457 53.1842 115.317 52.9636 117.564" stroke="black" stroke-width="2" stroke-linecap="round" stroke-linejoin="round"/>
<path d="M248.681 54.1698C245.461 55.6297 242.11 54.0864 238.848 54.6167" stroke="black" stroke-width="2" stroke-linecap="round" stroke-linejoin="round"/>
<path d="M159.757 76.4908C157.587 77.8017 155.702 79.6429 153.055 80.06" stroke="black" stroke-width="2" stroke-linecap="round" stroke-linejoin="round"/>
<path d="M75.7549 82.7414C71.8431 79.8455 70.5431 80.3043 68.1578 85.4228H63.6914" stroke="black" stroke-width="2" stroke-linecap="round" stroke-linejoin="round"/>
<path d="M77.5395 110.866C77.0784 108.066 77.9729 105.535 80.223 103.275C85.1306 105.372 86.9136 108.751 85.4884 113.965C85.232 114.912 85.3572 115.788 85.1366 116.67" stroke="black" stroke-width="2" stroke-linecap="round" stroke-linejoin="round"/>
<path d="M40.0078 122.473C42.089 125.006 41.4867 127.532 40.0078 130.065" stroke="black" stroke-width="2" stroke-linecap="round" stroke-linejoin="round"/>
<path d="M183.891 207.294C183.95 209.32 187.635 210.423 185.298 213.152C184.827 213.706 186.031 214.54 186.598 214.826C188.309 215.684 188.309 213.08 189.699 213.098" stroke="black" stroke-width="2" stroke-linecap="round" stroke-linejoin="round"/>
<path d="M73.0721 109.525C73.0482 111.218 73.0601 112.868 73.9367 114.453C74.8551 116.104 74.7358 117.808 73.5193 119.345" stroke="black" stroke-width="2" stroke-linecap="round" stroke-linejoin="round"/>
<path d="M155.293 239.441C154.476 241.765 154.81 244.381 153.313 246.568C150.946 246.377 152.973 243.874 151.715 243.01" stroke="black" stroke-width="2" stroke-linecap="round" stroke-linejoin="round"/>
<path d="M117.312 100.152C118.01 102.238 119.906 104.514 116.418 105.956" stroke="black" stroke-width="2" stroke-linecap="round" stroke-linejoin="round"/>
<path d="M66.3715 108.185C64.0637 109.811 65.1788 111.962 65.477 113.988" stroke="black" stroke-width="2" stroke-linecap="round" stroke-linejoin="round"/>
<path d="M117.312 99.2587C116.483 97.483 114.7 96.3211 114.193 94.1998C110.651 95.4571 108.129 97.1911 109.715 101.493" stroke="black" stroke-width="2" stroke-linecap="round" stroke-linejoin="round"/>
<path d="M168.699 211.757C166.528 212.937 164.501 214.314 162.891 216.22" stroke="black" stroke-width="2" stroke-linecap="round" stroke-linejoin="round"/>
<path d="M124.457 91.2205C120.509 89.4806 122.03 93.8423 120.527 94.9208C119.961 95.326 120.438 97.1732 120.438 98.3649" stroke="black" stroke-width="2" stroke-linecap="round" stroke-linejoin="round"/>
<path d="M101.672 98.8118C102.614 100.331 101.624 102.202 102.566 103.722" stroke="black" stroke-width="2" stroke-linecap="round" stroke-linejoin="round"/>
<path d="M111.5 96.1304C112.585 97.626 111.339 99.5388 112.394 101.04" stroke="black" stroke-width="2" stroke-linecap="round" stroke-linejoin="round"/>
<path d="M153.055 194.346C154.772 195.139 155.834 196.36 155.738 198.362" stroke="black" stroke-width="2" stroke-linecap="round" stroke-linejoin="round"/>
<path d="M95.4173 106.85C92.1196 106.546 89.1679 108.077 86.0312 108.638" stroke="black" stroke-width="2" stroke-linecap="round" stroke-linejoin="round"/>
<path d="M226.785 184.973C226.111 188.829 227.19 192.469 228.126 196.134" stroke="black" stroke-width="2" stroke-linecap="round" stroke-linejoin="round"/>
<path d="M106.587 103.722C103.003 104.002 99.5207 104.693 96.3125 106.403" stroke="black" stroke-width="2" stroke-linecap="round" stroke-linejoin="round"/>
<path d="M157.529 247.026C156.67 248.463 155.567 248.177 154.398 247.473" stroke="black" stroke-width="2" stroke-linecap="round" stroke-linejoin="round"/>
<path d="M34.6445 118.904C35.7 119.905 34.4895 121.472 35.539 122.474" stroke="black" stroke-width="2" stroke-linecap="round" stroke-linejoin="round"/>
<path d="M128.484 211.317C126.241 213.17 129.951 214.487 128.931 216.226" stroke="black" stroke-width="2" stroke-linecap="round" stroke-linejoin="round"/>
<path d="M132.053 210.423C129.143 211.376 127.05 211.054 127.139 207.3" stroke="black" stroke-width="2" stroke-linecap="round" stroke-linejoin="round"/>
<path d="M187.017 223.812C185.556 223.383 183.958 224.33 182.551 223.365" stroke="black" stroke-width="2" stroke-linecap="round" stroke-linejoin="round"/>
<path d="M66.8183 20.2414C60.3005 23.4353 59.1794 28.0234 64.1468 31.3841C66.2398 32.7963 68.4164 33.3564 70.8613 31.8786C73.1392 30.5022 74.1649 28.5537 73.9264 26.0451C73.6878 23.5544 72.5489 21.5345 69.9489 20.6764C69.0723 20.3904 68.2136 20.0746 67.2655 20.2355" stroke="black" stroke-width="2" stroke-linecap="round" stroke-linejoin="round"/>
<path d="M25.2618 35.418C22.3995 36.9494 19.233 37.8134 18.0165 41.6388C16.2932 47.0671 18.6665 53.1092 23.9201 55.0576C30.5273 57.5126 36.1267 53.1747 37.7188 48.7892C40.2293 41.8712 34.3139 35.418 25.709 35.418" stroke="black" stroke-width="2" stroke-linecap="round" stroke-linejoin="round"/>
<path d="M65.4751 61.7551C59.9294 64.3293 58.2179 69.7397 61.8912 72.9276C63.9128 74.6854 66.2086 75.3408 68.5759 74.1967C71.0328 73.011 72.7263 71.0029 72.619 68.0057C72.5236 65.229 71.0626 63.3521 68.5998 62.208C67.765 61.8207 66.8705 61.5883 65.9223 61.7551" stroke="black" stroke-width="2" stroke-linecap="round" stroke-linejoin="round"/>
</g>
<defs>
<clipPath id="clip0_2996_2391">
<rect width="260" height="307" fill="white"/>
</clipPath>
</defs>
</svg>
