<svg width="146" height="55" viewBox="0 0 146 55" fill="none" xmlns="http://www.w3.org/2000/svg">
<rect x="20" y="24" width="107" height="21" fill="#C6E400"/>
<path d="M21.128 10.8004C22.4323 11.3302 22.3327 13.2097 20.9796 13.5987L14.1492 15.5627L11.0292 21.949C10.4106 23.2143 8.54183 22.9857 8.24608 21.6088L5.0665 6.778C5.00968 6.51438 5.02581 6.24027 5.11315 5.98514C5.2005 5.73001 5.35575 5.50352 5.56221 5.33005C5.76867 5.15657 6.01852 5.04266 6.28488 5.00059C6.55124 4.95851 6.82404 4.98985 7.07392 5.09125L21.128 10.8004Z" fill="white" stroke="#1A1A1A" stroke-width="2"/>
<path d="M29.624 35.048V31.448H26.024V16.856H29.816V31.256H33.224V20.456H37.016V31.256H40.424V16.856H44.216V31.448H40.616V35.048H29.624ZM48.5709 35.048V16.856H52.3629V35.048H48.5709ZM56.7271 35.048V20.456H60.3271V16.856H71.3191V20.456H74.9191V35.048H71.1271V20.648H60.5191V35.048H56.7271ZM79.274 35.048V20.456H82.874V16.856H93.866V20.456H97.466V35.048H93.674V20.648H83.066V35.048H79.274ZM101.821 35.048V16.856H120.013V20.648H105.613V24.056H116.413V27.848H105.613V31.256H120.013V35.048H101.821ZM127.058 24.056H137.666V20.648H127.058V24.056ZM123.266 35.048V16.856H137.858V20.456H141.458V24.248H137.858V31.256H141.458V35.048H137.666V31.448H134.066V27.848H127.058V35.048H123.266Z" fill="#1A1A1A"/>
</svg>
