<svg width="584" height="580" viewBox="0 0 584 580" fill="none" xmlns="http://www.w3.org/2000/svg">
<path d="M327.895 0V66.3319H452.923V131.855H506.564C514.361 133.203 518.26 137.248 518.26 143.989V197.782H584V257.238C584 265.328 579.967 269.372 571.901 269.372H518.26V580H65.7403V269.372H0V197.782H65.7403V131.855H131.077V66.3319H256.105V0H327.895ZM137.127 269.372V520.139H190.768V334.895C191.843 327.076 195.742 323.166 202.464 323.166H381.536C389.333 324.245 393.232 328.154 393.232 334.895V508.41L387.182 520.139H446.873V269.372H137.127ZM262.155 460.683V520.139H321.845V460.683H262.155Z" fill="#F8FBE7"/>
</svg>
