<svg width="20" height="20" viewBox="0 0 20 20" fill="none" xmlns="http://www.w3.org/2000/svg">
<path d="M9.99984 11.6665C10.1647 11.6665 10.3258 11.6176 10.4628 11.5261C10.5999 11.4345 10.7067 11.3043 10.7697 11.1521C10.8328 10.9998 10.8493 10.8322 10.8172 10.6706C10.785 10.5089 10.7056 10.3605 10.5891 10.2439C10.4725 10.1274 10.3241 10.048 10.1624 10.0158C10.0008 9.9837 9.83321 10.0002 9.68093 10.0633C9.52866 10.1263 9.39851 10.2332 9.30695 10.3702C9.21538 10.5072 9.1665 10.6684 9.1665 10.8332C9.1665 11.0542 9.2543 11.2661 9.41058 11.4224C9.56686 11.5787 9.77882 11.6665 9.99984 11.6665ZM14.1665 11.6665C14.3313 11.6665 14.4924 11.6176 14.6295 11.5261C14.7665 11.4345 14.8733 11.3043 14.9364 11.1521C14.9995 10.9998 15.016 10.8322 14.9838 10.6706C14.9517 10.5089 14.8723 10.3605 14.7558 10.2439C14.6392 10.1274 14.4907 10.048 14.3291 10.0158C14.1674 9.9837 13.9999 10.0002 13.8476 10.0633C13.6953 10.1263 13.5652 10.2332 13.4736 10.3702C13.382 10.5072 13.3332 10.6684 13.3332 10.8332C13.3332 11.0542 13.421 11.2661 13.5772 11.4224C13.7335 11.5787 13.9455 11.6665 14.1665 11.6665ZM9.99984 14.9998C10.1647 14.9998 10.3258 14.951 10.4628 14.8594C10.5999 14.7678 10.7067 14.6377 10.7697 14.4854C10.8328 14.3331 10.8493 14.1656 10.8172 14.0039C10.785 13.8423 10.7056 13.6938 10.5891 13.5772C10.4725 13.4607 10.3241 13.3813 10.1624 13.3492C10.0008 13.317 9.83321 13.3335 9.68093 13.3966C9.52866 13.4597 9.39851 13.5665 9.30695 13.7035C9.21538 13.8406 9.1665 14.0017 9.1665 14.1665C9.1665 14.3875 9.2543 14.5995 9.41058 14.7558C9.56686 14.912 9.77882 14.9998 9.99984 14.9998ZM14.1665 14.9998C14.3313 14.9998 14.4924 14.951 14.6295 14.8594C14.7665 14.7678 14.8733 14.6377 14.9364 14.4854C14.9995 14.3331 15.016 14.1656 14.9838 14.0039C14.9517 13.8423 14.8723 13.6938 14.7558 13.5772C14.6392 13.4607 14.4907 13.3813 14.3291 13.3492C14.1674 13.317 13.9999 13.3335 13.8476 13.3966C13.6953 13.4597 13.5652 13.5665 13.4736 13.7035C13.382 13.8406 13.3332 14.0017 13.3332 14.1665C13.3332 14.3875 13.421 14.5995 13.5772 14.7558C13.7335 14.912 13.9455 14.9998 14.1665 14.9998ZM5.83317 11.6665C5.99799 11.6665 6.1591 11.6176 6.29615 11.5261C6.43319 11.4345 6.54 11.3043 6.60307 11.1521C6.66614 10.9998 6.68265 10.8322 6.65049 10.6706C6.61834 10.5089 6.53897 10.3605 6.42243 10.2439C6.30588 10.1274 6.1574 10.048 5.99575 10.0158C5.8341 9.9837 5.66654 10.0002 5.51427 10.0633C5.362 10.1263 5.23185 10.2332 5.14028 10.3702C5.04871 10.5072 4.99984 10.6684 4.99984 10.8332C4.99984 11.0542 5.08763 11.2661 5.24392 11.4224C5.4002 11.5787 5.61216 11.6665 5.83317 11.6665ZM15.8332 3.33317H14.9998V2.49984C14.9998 2.27882 14.912 2.06686 14.7558 1.91058C14.5995 1.7543 14.3875 1.6665 14.1665 1.6665C13.9455 1.6665 13.7335 1.7543 13.5772 1.91058C13.421 2.06686 13.3332 2.27882 13.3332 2.49984V3.33317H6.6665V2.49984C6.6665 2.27882 6.57871 2.06686 6.42243 1.91058C6.26615 1.7543 6.05418 1.6665 5.83317 1.6665C5.61216 1.6665 5.4002 1.7543 5.24392 1.91058C5.08763 2.06686 4.99984 2.27882 4.99984 2.49984V3.33317H4.1665C3.50346 3.33317 2.86758 3.59656 2.39874 4.0654C1.9299 4.53424 1.6665 5.17013 1.6665 5.83317V15.8332C1.6665 16.4962 1.9299 17.1321 2.39874 17.6009C2.86758 18.0698 3.50346 18.3332 4.1665 18.3332H15.8332C16.4962 18.3332 17.1321 18.0698 17.6009 17.6009C18.0698 17.1321 18.3332 16.4962 18.3332 15.8332V5.83317C18.3332 5.17013 18.0698 4.53424 17.6009 4.0654C17.1321 3.59656 16.4962 3.33317 15.8332 3.33317ZM16.6665 15.8332C16.6665 16.0542 16.5787 16.2661 16.4224 16.4224C16.2661 16.5787 16.0542 16.6665 15.8332 16.6665H4.1665C3.94549 16.6665 3.73353 16.5787 3.57725 16.4224C3.42097 16.2661 3.33317 16.0542 3.33317 15.8332V8.33317H16.6665V15.8332ZM16.6665 6.6665H3.33317V5.83317C3.33317 5.61216 3.42097 5.4002 3.57725 5.24392C3.73353 5.08763 3.94549 4.99984 4.1665 4.99984H15.8332C16.0542 4.99984 16.2661 5.08763 16.4224 5.24392C16.5787 5.4002 16.6665 5.61216 16.6665 5.83317V6.6665ZM5.83317 14.9998C5.99799 14.9998 6.1591 14.951 6.29615 14.8594C6.43319 14.7678 6.54 14.6377 6.60307 14.4854C6.66614 14.3331 6.68265 14.1656 6.65049 14.0039C6.61834 13.8423 6.53897 13.6938 6.42243 13.5772C6.30588 13.4607 6.1574 13.3813 5.99575 13.3492C5.8341 13.317 5.66654 13.3335 5.51427 13.3966C5.362 13.4597 5.23185 13.5665 5.14028 13.7035C5.04871 13.8406 4.99984 14.0017 4.99984 14.1665C4.99984 14.3875 5.08763 14.5995 5.24392 14.7558C5.4002 14.912 5.61216 14.9998 5.83317 14.9998Z" fill="#7B7B7B"/>
</svg>
