<svg width="214" height="214" viewBox="0 0 214 214" fill="none" xmlns="http://www.w3.org/2000/svg">
<path d="M4.46777 -0.000488281H19.8071C22.7856 0.495931 24.2749 1.98519 24.2749 4.46729V24.2744H43.9331L43.7842 48.4004L72.6758 48.5493V70.4414H90.249C93.1283 70.8385 94.5679 72.2782 94.5679 74.7603V94.5674H114.375C117.354 95.0638 118.843 96.5531 118.843 99.0352V118.842H138.65C141.529 119.239 142.969 120.679 142.969 123.161V138.649C142.969 141.529 141.529 142.968 138.65 142.968H94.5679V166.499L118.843 167.243V208.942C118.843 211.921 117.354 213.41 114.375 213.41H99.0356C96.0571 213.41 94.5679 211.921 94.5679 208.942V191.369H76.9946C74.9097 191.369 72.7254 189.185 70.4419 184.816V167.243H48.4009V187.05C48.4009 189.93 46.9116 191.369 43.9331 191.369H24.2749V208.942C24.2749 211.921 22.7856 213.41 19.8071 213.41H0V4.46729C0.496419 1.48877 1.98568 -0.000488281 4.46777 -0.000488281ZM143.118 -0.000488281H162.776C165.754 0.495931 167.244 1.98519 167.244 4.46729V19.8066C167.244 22.7852 165.754 24.2744 162.776 24.2744H142.969V43.9326C142.969 46.9111 141.529 48.4004 138.65 48.4004H123.162C120.282 48.4004 118.843 46.9111 118.843 43.9326V22.1895L142.969 22.0405L143.118 -0.000488281ZM169.478 94.5674H208.943C211.921 95.0638 213.411 96.5531 213.411 99.0352V114.375C213.411 117.353 211.921 118.842 208.943 118.842H169.478C166.499 118.842 165.01 117.353 165.01 114.375V99.0352C165.506 96.0566 166.995 94.5674 169.478 94.5674ZM143.118 165.009H162.776C165.754 165.506 167.244 166.995 167.244 169.477V189.135H187.051C189.93 189.632 191.37 191.121 191.37 193.603V213.41H169.478C166.499 213.41 165.01 211.921 165.01 208.942V191.369H147.437C144.458 191.369 142.969 189.93 142.969 187.05V171.562L143.118 165.009Z" fill="#E9E9E9"/>
</svg>
