<svg width="635" height="47" viewBox="0 0 635 47" fill="none" xmlns="http://www.w3.org/2000/svg">
<path d="M10.848 14.4714C9.408 16.8474 7.512 17.4714 5.808 17.4474C8.568 17.2554 9.72 15.4074 10.296 14.4954C11.52 12.4794 11.808 9.67141 13.104 7.72741C15.816 3.45541 19.656 2.35141 23.04 1.77541C19.8 2.42341 16.32 3.50341 13.68 7.70341C12.984 8.73541 12.576 10.0314 12.168 11.3034C11.808 12.3834 11.424 13.5594 10.848 14.4714ZM27.672 1.19941C28.416 1.00741 29.832 0.743405 31.56 -0.000594139C31.416 3.33541 26.328 12.5994 22.104 15.5034C19.08 17.8314 13.2 16.0314 9.816 16.7514V16.7754C6.96 18.7194 3.696 17.7594 1.848 16.8714C1.296 16.6554 0.888 16.3914 0.6 16.2234L0 15.9114L0.576 15.5034C0.576 15.5034 0.648 15.6954 0.888 15.9354C1.176 16.2954 1.776 16.6314 1.872 16.6794C8.088 19.5354 10.488 15.9594 11.304 14.6634C12.528 12.6474 12.816 9.83941 14.136 7.84741C17.904 1.8474 23.472 2.42341 27.672 1.19941ZM17.712 11.7594C20.496 9.67141 21.984 8.30341 24.984 5.61541C21.624 8.11141 14.568 13.8714 10.608 16.2714C11.568 15.7194 12.36 15.4074 13.608 14.6634C13.44 15.5034 14.688 16.5594 14.688 16.5594H14.712C13.656 15.4074 14.064 14.4714 14.712 14.1834C15.624 13.7754 22.344 14.9274 22.344 14.9274C22.344 14.9274 22.344 14.9034 22.32 14.9034C21.984 14.8074 17.184 13.6554 15.096 13.6794C15.84 13.1994 16.68 12.5754 17.712 11.7594ZM37.6328 18.1914V15.0714H49.4408V11.5434H37.6328V5.47141C37.7048 2.90341 39.7448 0.815405 42.3128 0.671406H53.9288V3.02341C53.8808 4.36741 52.8248 5.47141 51.4808 5.54341H44.2088L44.4248 5.75941V9.19141L49.4408 9.21541L53.9288 9.19141V15.6714C53.8808 17.0154 52.8248 18.1194 51.4808 18.1914H37.6328ZM56.8438 5.47141C56.9158 2.90341 58.9558 0.815405 61.5238 0.671406H63.7558V7.91941L74.4358 0.839405V3.04741C74.4118 3.69541 74.0038 4.5114 73.4518 4.89541L67.0918 9.19141L74.7238 18.1914H69.2038L63.6358 11.5434H63.4918L63.6358 11.6874V15.6474C63.5878 16.9914 62.5318 18.0954 61.1878 18.1674L56.8438 18.1914V5.47141ZM77.1582 18.1914V5.47141C77.2302 2.90341 79.2702 0.815405 81.8382 0.671406H84.0222V14.8794L83.8062 15.0954H90.4542V0.671406H94.9182V15.6714C94.8702 17.0154 93.8142 18.1194 92.4702 18.1914H77.1582ZM103.65 18.1914V5.47141C103.722 2.90341 105.762 0.815405 108.33 0.671406H110.466V14.8554L110.25 15.0714H119.97V15.6714C119.922 17.0154 118.866 18.1194 117.522 18.1914H103.65ZM122.885 5.15941C122.957 2.59141 124.997 0.503405 127.565 0.359406H129.005V15.9594C128.957 17.3034 127.901 18.4074 126.557 18.4794H122.885V5.15941ZM131.924 5.47141C131.996 2.90341 134.036 0.815405 136.604 0.671406H138.836V7.91941L149.516 0.839405V3.04741C149.492 3.69541 149.084 4.5114 148.532 4.89541L142.172 9.19141L149.804 18.1914H144.284L138.716 11.5434H138.572L138.716 11.6874V15.6474C138.668 16.9914 137.612 18.0954 136.268 18.1674L131.924 18.1914V5.47141ZM152.236 18.1914V5.47141C152.308 2.90341 154.348 0.815405 156.916 0.671406H168.556V3.02341C168.508 4.36741 167.452 5.47141 166.108 5.54341H159.076H158.86L159.076 5.75941V9.21541H166.084V10.0074C166.06 10.8234 165.412 11.4954 164.572 11.5434H159.076V15.0714H168.556V15.6714C168.508 17.0154 167.452 18.1194 166.108 18.1914H152.236ZM171.471 18.1914V5.47141C171.543 2.90341 173.583 0.815405 176.151 0.671406H178.287V14.8554L178.071 15.0714H187.791V15.6714C187.743 17.0154 186.687 18.1194 185.343 18.1914H171.471ZM190.705 5.15941C190.777 2.59141 192.817 0.503405 195.385 0.359406H196.825V15.9594C196.777 17.3034 195.721 18.4074 194.377 18.4794H190.705V5.15941ZM199.744 5.35141C199.816 2.78341 201.856 0.695405 204.424 0.551406H216.064L216.088 15.8634C216.04 17.2074 214.984 18.3114 213.64 18.3834H199.768L199.744 5.35141ZM210.256 15.0714C210.904 15.0474 211.432 14.5674 211.456 13.8954V5.78341L211.576 5.56741H208.12C207.304 5.59141 206.632 6.23941 206.584 7.07941V15.0714H210.256ZM219.002 5.47141C219.074 2.90341 221.114 0.815405 223.682 0.671406H225.698L232.658 15.0714V0.671406L237.242 0.647406V15.6474C237.194 16.9914 236.138 18.0954 234.794 18.1674L230.354 18.1914L225.842 8.27941H225.722L225.842 8.49541V15.6714C225.794 17.0154 224.738 18.1194 223.394 18.1914H219.002V5.47141ZM240.158 14.6514C240.188 13.6314 240.998 12.7914 242.048 12.7314H245.618V16.6914C245.588 17.5014 244.988 18.1614 244.148 18.1914H240.158V14.6514ZM241.838 17.2014C241.838 17.2014 243.278 16.1514 243.608 15.0714L243.278 14.8914C243.278 14.8914 242.618 16.2114 241.568 16.9314L241.838 17.2014Z" fill="#00156A"/>
<path d="M257.018 10.7714C257.06 9.27341 258.25 8.05541 259.748 7.97141H266.524V18.1914H265.39C264.606 18.1634 263.962 17.5474 263.92 16.7634V14.3134H260.868L260.994 14.4394V15.4614C260.91 16.9594 259.692 18.1494 258.194 18.1914H257.018V10.7714ZM263.22 13.3754C263.598 13.3614 263.906 13.0814 263.92 12.6894L263.906 10.8134H261.932C261.456 10.8274 261.064 11.2054 261.036 11.6954V13.3754H263.22ZM268.141 18.1914V10.7714C268.183 9.27341 269.373 8.05541 270.871 7.97141H272.117V16.2454L271.991 16.3714H277.661V16.7214C277.633 17.5054 277.017 18.1494 276.233 18.1914H268.141ZM279.277 18.1914V10.7714C279.319 9.27341 280.509 8.05541 282.007 7.97141H283.253V16.2454L283.127 16.3714H288.797V16.7214C288.769 17.5054 288.153 18.1494 287.369 18.1914H279.277ZM293.717 10.7714C293.759 9.27341 294.949 8.05541 296.447 7.97141H303.643V12.8434C303.615 13.6274 302.999 14.2714 302.215 14.3134H301.431L304.637 18.1914H301.011L298.015 14.3134H297.609L297.735 14.4394V16.7214C297.707 17.5054 297.091 18.1494 296.307 18.1914H293.717V10.7714ZM300.311 13.3754C300.689 13.3614 300.997 13.0814 301.011 12.6894V10.8134H298.659C298.183 10.8274 297.791 11.2054 297.763 11.6954V13.3754H300.311ZM305.701 10.5894C305.743 9.09141 306.933 7.87341 308.431 7.78941H309.271V16.8894C309.243 17.6734 308.627 18.3174 307.843 18.3594H305.701V10.5894ZM310.891 18.1914V10.7714C310.933 9.27341 312.123 8.05541 313.621 7.97141H320.411V9.34341C320.383 10.1274 319.767 10.7714 318.983 10.8134H314.741L314.867 10.9394V16.3714H317.821V14.0754H317.205C316.729 14.0614 316.337 13.6834 316.309 13.1934V12.7174H320.411V16.7214C320.383 17.5054 319.767 18.1494 318.983 18.1914H310.891ZM322.027 10.7714C322.069 9.27341 323.259 8.05541 324.757 7.97141H326.003V12.9554H329.377V7.97141H331.967V16.7214C331.939 17.5054 331.323 18.1494 330.539 18.1914H329.377V14.3134H326.003H325.877L326.003 14.4394V16.7214C325.975 17.5054 325.359 18.1494 324.575 18.1914H322.027V10.7714ZM337.172 18.1914V10.7014H333.588V9.44141C333.616 8.65741 334.232 8.01341 335.016 7.97141H344.648V9.23141C344.62 10.0154 344.004 10.6594 343.22 10.7014H340.98L341.106 10.8274V16.7214C341.078 17.5054 340.462 18.1494 339.678 18.1914H337.172ZM345.709 18.1914V16.3714H352.597V14.3134H345.709V10.7714C345.751 9.27341 346.941 8.05541 348.439 7.97141H355.215V9.34341C355.187 10.1274 354.571 10.7714 353.787 10.8134H349.545L349.671 10.9394V12.9414L352.597 12.9554L355.215 12.9414V16.7214C355.187 17.5054 354.571 18.1494 353.787 18.1914H345.709ZM360.135 10.7714C360.177 9.27341 361.367 8.05541 362.865 7.97141H370.061V12.8434C370.033 13.6274 369.417 14.2714 368.633 14.3134H367.849L371.055 18.1914H367.429L364.433 14.3134H364.027L364.153 14.4394V16.7214C364.125 17.5054 363.509 18.1494 362.725 18.1914H360.135V10.7714ZM366.729 13.3754C367.107 13.3614 367.415 13.0814 367.429 12.6894V10.8134H365.077C364.601 10.8274 364.209 11.2054 364.181 11.6954V13.3754H366.729ZM372.119 18.1914V10.7714C372.161 9.27341 373.351 8.05541 374.849 7.97141H381.639V9.34341C381.611 10.1274 380.995 10.7714 380.211 10.8134H376.109H375.983L376.109 10.9394V12.9554H380.197V13.4174C380.183 13.8934 379.805 14.2854 379.315 14.3134H376.109V16.3714H381.639V16.7214C381.611 17.5054 380.995 18.1494 380.211 18.1914H372.119ZM383.256 18.1914V16.3714H390.144V14.3134H383.256V10.7714C383.298 9.27341 384.488 8.05541 385.986 7.97141H392.762V9.34341C392.734 10.1274 392.118 10.7714 391.334 10.8134H387.092L387.218 10.9394V12.9414L390.144 12.9554L392.762 12.9414V16.7214C392.734 17.5054 392.118 18.1494 391.334 18.1914H383.256ZM394.379 18.1914V10.7714C394.421 9.27341 395.611 8.05541 397.109 7.97141H403.899V9.34341C403.871 10.1274 403.255 10.7714 402.471 10.8134H398.369H398.243L398.369 10.9394V12.9554H402.457V13.4174C402.443 13.8934 402.065 14.2854 401.575 14.3134H398.369V16.3714H403.899V16.7214C403.871 17.5054 403.255 18.1494 402.471 18.1914H394.379ZM405.516 10.7714C405.558 9.27341 406.748 8.05541 408.246 7.97141H415.442V12.8434C415.414 13.6274 414.798 14.2714 414.014 14.3134H413.23L416.436 18.1914H412.81L409.814 14.3134H409.408L409.534 14.4394V16.7214C409.506 17.5054 408.89 18.1494 408.106 18.1914H405.516V10.7714ZM412.11 13.3754C412.488 13.3614 412.796 13.0814 412.81 12.6894V10.8134H410.458C409.982 10.8274 409.59 11.2054 409.562 11.6954V13.3754H412.11ZM417.64 10.6034C417.178 9.17541 417.92 8.05541 419.418 7.97141H420.958L423.03 14.2714L423.044 14.3694L423.058 14.2714L425.186 7.97141H427.608L424.836 16.7914C424.57 17.5334 423.744 18.1494 422.96 18.1914H420.398L417.64 10.6034ZM428.814 18.1914V10.7714C428.856 9.27341 430.046 8.05541 431.544 7.97141H438.334V9.34341C438.306 10.1274 437.69 10.7714 436.906 10.8134H432.804H432.678L432.804 10.9394V12.9554H436.892V13.4174C436.878 13.8934 436.5 14.2854 436.01 14.3134H432.804V16.3714H438.334V16.7214C438.306 17.5054 437.69 18.1494 436.906 18.1914H428.814ZM439.951 9.44141C439.979 8.65741 440.595 8.01341 441.379 7.97141H449.471V15.3914C449.429 16.8894 448.239 18.1074 446.741 18.1914H439.951V9.44141ZM444.641 16.3714C445.117 16.3574 445.509 15.9794 445.537 15.4894V10.8414H443.339C442.961 10.8554 442.653 11.1354 442.639 11.5274V16.3714H444.641ZM445.537 10.9674L445.663 10.8414H445.411L445.537 10.9674ZM451.088 16.5394C451.102 16.0634 451.48 15.6714 451.97 15.6434H453.636V17.4914C453.622 17.8694 453.342 18.1774 452.95 18.1914H451.088V16.5394ZM451.872 17.7294C451.872 17.7294 452.544 17.2394 452.698 16.7354L452.544 16.6514C452.544 16.6514 452.236 17.2674 451.746 17.6034L451.872 17.7294Z" fill="#3C3C3C"/>
<path d="M0 46.1914V44.7614H5.412V43.1444H0V40.3614C0.033 39.1844 0.968 38.2274 2.145 38.1614H7.469V39.2394C7.447 39.8554 6.963 40.3614 6.347 40.3944H3.014L3.113 40.4934V42.0664L5.412 42.0774L7.469 42.0664V45.0364C7.447 45.6524 6.963 46.1584 6.347 46.1914H0ZM8.84668 46.1914V40.3614C8.87968 39.1844 9.81468 38.2274 10.9917 38.1614H16.3267V39.2394C16.3047 39.8554 15.8207 40.3614 15.2047 40.3944H11.9817H11.8827L11.9817 40.4934V42.0774H15.1937V42.4404C15.1827 42.8144 14.8857 43.1224 14.5007 43.1444H11.9817V44.7614H16.3267V45.0364C16.3047 45.6524 15.8207 46.1584 15.2047 46.1914H8.84668ZM17.7041 40.3064C17.7371 39.1294 18.6721 38.1724 19.8491 38.1064H25.1841L25.1951 45.1244C25.1731 45.7404 24.6891 46.2464 24.0731 46.2794H17.7151L17.7041 40.3064ZM22.5221 44.7614C22.8191 44.7504 23.0611 44.5304 23.0721 44.2224V40.5044L23.1271 40.4054H21.5431C21.1691 40.4164 20.8611 40.7134 20.8391 41.0984V44.7614H22.5221ZM26.5723 40.3614C26.6053 39.1844 27.5403 38.2274 28.7173 38.1614H29.7403V41.4834L34.6353 38.2384V39.2504C34.6243 39.5474 34.4373 39.9214 34.1843 40.0974L31.2693 42.0664L34.7673 46.1914H32.2373L29.6853 43.1444H29.6193L29.6853 43.2104V45.0254C29.6633 45.6414 29.1793 46.1474 28.5633 46.1804L26.5723 46.1914V40.3614ZM36.6278 38.2934C37.8048 38.3374 38.7618 39.2834 38.8278 40.4604V42.4074H39.4988V40.2734C39.5318 39.0964 40.4668 38.1394 41.6438 38.0734H44.1738V40.9994C44.1408 42.1764 43.2058 43.1334 42.0288 43.1994H41.0278L41.1268 43.2984V45.3774C41.1048 45.9934 40.6208 46.4994 40.0048 46.5324H39.0698V43.1994H38.8278L37.0788 43.1884C36.4628 43.1554 35.9568 42.6714 35.9238 42.0554V38.2934H36.6278ZM45.5547 46.1914V40.3614C45.5877 39.1844 46.5227 38.2274 47.6997 38.1614H53.0347V39.2394C53.0127 39.8554 52.5287 40.3614 51.9127 40.3944H48.6897H48.5907L48.6897 40.4934V42.0774H51.9017V42.4404C51.8907 42.8144 51.5937 43.1224 51.2087 43.1444H48.6897V44.7614H53.0347V45.0364C53.0127 45.6524 52.5287 46.1584 51.9127 46.1914H45.5547ZM54.4121 40.3064C54.4451 39.1294 55.3801 38.1724 56.5571 38.1064H61.8921L61.9031 45.1244C61.8811 45.7404 61.3971 46.2464 60.7811 46.2794H54.4231L54.4121 40.3064ZM59.2301 44.7614C59.5271 44.7504 59.7691 44.5304 59.7801 44.2224V40.5044L59.8351 40.4054H58.2511C57.8771 40.4164 57.5691 40.7134 57.5471 41.0984V44.7614H59.2301ZM63.2803 40.3614C63.3133 39.1844 64.2483 38.2274 65.4253 38.1614H66.3493L69.5393 44.7614V38.1614L71.6403 38.1504V45.0254C71.6183 45.6414 71.1343 46.1474 70.5183 46.1804L68.4833 46.1914L66.4153 41.6484H66.3603L66.4153 41.7474V45.0364C66.3933 45.6524 65.9093 46.1584 65.2933 46.1914H63.2803V40.3614ZM73.0186 46.1914V40.3614C73.0516 39.1844 73.9866 38.2274 75.1636 38.1614H80.4986V39.2394C80.4766 39.8554 79.9926 40.3614 79.3766 40.3944H76.0436L76.1426 40.4934V44.7614H78.4636V42.9574H77.9796C77.6056 42.9464 77.2976 42.6494 77.2756 42.2644V41.8904H80.4986V45.0364C80.4766 45.6524 79.9926 46.1584 79.3766 46.1914H73.0186ZM84.5781 46.1914V40.3614C84.6111 39.1844 85.5461 38.2274 86.7231 38.1614H87.7241V44.6734L87.6251 44.7724H90.6721V38.1614H92.7181V45.0364C92.6961 45.6524 92.2121 46.1584 91.5961 46.1914H84.5781ZM94.1016 40.3614C94.1346 39.1844 95.0696 38.2274 96.2466 38.1614H97.1706L100.361 44.7614V38.1614L102.462 38.1504V45.0254C102.44 45.6414 101.956 46.1474 101.34 46.1804L99.3046 46.1914L97.2366 41.6484H97.1816L97.2366 41.7474V45.0364C97.2146 45.6524 96.7306 46.1584 96.1146 46.1914H94.1016V40.3614ZM103.84 40.2184C103.873 39.0414 104.808 38.0844 105.985 38.0184H106.645V45.1684C106.623 45.7844 106.139 46.2904 105.523 46.3234H103.84V40.2184ZM108.134 40.2294C107.771 39.1074 108.354 38.2274 109.531 38.1614H110.741L112.369 43.1114L112.38 43.1884L112.391 43.1114L114.063 38.1614H115.966L113.788 45.0914C113.579 45.6744 112.93 46.1584 112.314 46.1914H110.301L108.134 40.2294ZM117.021 46.1914V40.3614C117.054 39.1844 117.989 38.2274 119.166 38.1614H124.501V39.2394C124.479 39.8554 123.995 40.3614 123.379 40.3944H120.156H120.057L120.156 40.4934V42.0774H123.368V42.4404C123.357 42.8144 123.06 43.1224 122.675 43.1444H120.156V44.7614H124.501V45.0364C124.479 45.6524 123.995 46.1584 123.379 46.1914H117.021ZM125.879 40.3614C125.912 39.1844 126.847 38.2274 128.024 38.1614H133.678V41.9894C133.656 42.6054 133.172 43.1114 132.556 43.1444H131.94L134.459 46.1914H131.61L129.256 43.1444H128.937L129.036 43.2434V45.0364C129.014 45.6524 128.53 46.1584 127.914 46.1914H125.879V40.3614ZM131.06 42.4074C131.357 42.3964 131.599 42.1764 131.61 41.8684V40.3944H129.762C129.388 40.4054 129.08 40.7024 129.058 41.0874V42.4074H131.06ZM135.402 46.1914V44.7614H140.814V43.1444H135.402V40.3614C135.435 39.1844 136.37 38.2274 137.547 38.1614H142.871V39.2394C142.849 39.8554 142.365 40.3614 141.749 40.3944H138.416L138.515 40.4934V42.0664L140.814 42.0774L142.871 42.0664V45.0364C142.849 45.6524 142.365 46.1584 141.749 46.1914H135.402ZM144.249 40.2184C144.282 39.0414 145.217 38.0844 146.394 38.0184H147.054V45.1684C147.032 45.7844 146.548 46.2904 145.932 46.3234H144.249V40.2184ZM151.25 46.1914V40.3064H148.434V39.3164C148.456 38.7004 148.94 38.1944 149.556 38.1614H157.124V39.1514C157.102 39.7674 156.618 40.2734 156.002 40.3064H154.242L154.341 40.4054V45.0364C154.319 45.6524 153.835 46.1584 153.219 46.1914H151.25ZM158.768 38.2934C159.945 38.3374 160.902 39.2834 160.968 40.4604V42.4074H161.639V40.2734C161.672 39.0964 162.607 38.1394 163.784 38.0734H166.314V40.9994C166.281 42.1764 165.346 43.1334 164.169 43.1994H163.168L163.267 43.2984V45.3774C163.245 45.9934 162.761 46.4994 162.145 46.5324H161.21V43.1994H160.968L159.219 43.1884C158.603 43.1554 158.097 42.6714 158.064 42.0554V38.2934H158.768ZM167.695 44.6444C167.708 44.2024 168.059 43.8384 168.514 43.8124H170.074V45.5414C170.061 45.8924 169.801 46.1784 169.437 46.1914H168.267C167.864 46.6074 167.266 46.8024 167.266 46.8024L166.993 46.3994C167.266 46.3214 167.513 46.1784 167.695 46.0354V44.6444ZM168.423 45.7624C168.423 45.7624 169.06 45.2944 169.19 44.8264L169.06 44.7484C169.06 44.7484 168.761 45.3334 168.306 45.6454L168.423 45.7624ZM176.666 38.5994C176.848 38.5994 177.021 38.6081 177.186 38.6254C177.359 38.6341 177.502 38.6861 177.615 38.7814C177.727 38.8767 177.792 39.0501 177.81 39.3014C177.818 39.4227 177.836 39.6264 177.862 39.9124C177.896 40.1897 177.931 40.5147 177.966 40.8874C178.009 41.2601 178.052 41.6457 178.096 42.0444C178.148 42.4344 178.195 42.8114 178.239 43.1754C178.282 43.5307 178.321 43.8384 178.356 44.0984C178.39 44.3584 178.416 44.5317 178.434 44.6184C178.46 44.7484 178.486 44.9044 178.512 45.0864C178.538 45.2597 178.538 45.4331 178.512 45.6064C178.486 45.7711 178.403 45.9097 178.265 46.0224C178.135 46.1351 177.918 46.1914 177.615 46.1914C177.32 46.1914 177.09 46.1611 176.926 46.1004C176.761 46.0311 176.644 45.9487 176.575 45.8534C176.505 45.7581 176.462 45.6714 176.445 45.5934C176.436 45.5067 176.427 45.4461 176.419 45.4114C176.41 45.3854 176.388 45.2641 176.354 45.0474C176.319 44.8307 176.276 44.5707 176.223 44.2674C176.18 43.9641 176.133 43.6651 176.081 43.3704C176.037 43.0671 175.998 42.8157 175.964 42.6164C175.929 42.4171 175.912 42.3174 175.912 42.3174C175.912 42.3174 175.855 42.3217 175.743 42.3304C175.639 42.3304 175.509 42.3261 175.353 42.3174C175.205 42.3001 175.062 42.2654 174.924 42.2134C174.794 42.1527 174.698 42.0617 174.638 41.9404C174.586 41.8104 174.599 41.6371 174.677 41.4204C174.781 41.1431 174.889 40.8441 175.002 40.5234C175.114 40.2027 175.244 39.8951 175.392 39.6004C175.548 39.3057 175.725 39.0674 175.925 38.8854C176.133 38.6947 176.38 38.5994 176.666 38.5994ZM180.697 41.3684C180.671 41.3684 180.602 41.3684 180.489 41.3684C180.376 41.3684 180.251 41.3424 180.112 41.2904C179.973 41.2384 179.856 41.1431 179.761 41.0044C179.666 40.8571 179.622 40.6404 179.631 40.3544C179.648 39.7824 179.874 39.3404 180.307 39.0284C180.74 38.7164 181.304 38.5647 181.997 38.5734C182.344 38.5734 182.686 38.6081 183.024 38.6774C183.371 38.7381 183.683 38.8421 183.96 38.9894C184.237 39.1367 184.458 39.3404 184.623 39.6004C184.796 39.8517 184.883 40.1767 184.883 40.5754C184.883 40.8961 184.801 41.2427 184.636 41.6154C184.471 41.9794 184.268 42.3434 184.025 42.7074C183.782 43.0714 183.535 43.4051 183.284 43.7084C183.041 44.0031 182.833 44.2414 182.66 44.4234C182.495 44.6054 182.409 44.6964 182.4 44.6964C182.409 44.6964 182.487 44.6877 182.634 44.6704C182.781 44.6444 182.95 44.6184 183.141 44.5924C183.332 44.5664 183.501 44.5447 183.648 44.5274C183.795 44.5014 183.869 44.4884 183.869 44.4884C183.869 44.4884 183.917 44.4884 184.012 44.4884C184.116 44.4884 184.233 44.5014 184.363 44.5274C184.502 44.5447 184.627 44.5881 184.74 44.6574C184.853 44.7267 184.918 44.8351 184.935 44.9824C184.978 45.2771 184.935 45.4721 184.805 45.5674C184.684 45.6541 184.523 45.7147 184.324 45.7494C184.246 45.7581 184.077 45.7797 183.817 45.8144C183.566 45.8491 183.271 45.8881 182.933 45.9314C182.604 45.9747 182.279 46.0181 181.958 46.0614C181.646 46.0961 181.386 46.1264 181.178 46.1524C180.97 46.1784 180.866 46.1914 180.866 46.1914C180.866 46.1914 180.797 46.1914 180.658 46.1914C180.528 46.1827 180.385 46.1567 180.229 46.1134C180.082 46.0701 179.982 45.9921 179.93 45.8794C179.852 45.7061 179.822 45.5674 179.839 45.4634C179.865 45.3507 179.986 45.1731 180.203 44.9304C180.29 44.8351 180.428 44.6747 180.619 44.4494C180.81 44.2154 181.018 43.9467 181.243 43.6434C181.477 43.3314 181.702 43.0064 181.919 42.6684C182.136 42.3217 182.313 41.9881 182.452 41.6674C182.591 41.3381 182.664 41.0434 182.673 40.7834C182.682 40.3501 182.656 40.0511 182.595 39.8864C182.534 39.7217 182.465 39.6307 182.387 39.6134C182.318 39.5874 182.27 39.5744 182.244 39.5744C182.218 39.5744 182.157 39.5917 182.062 39.6264C181.967 39.6524 181.871 39.7087 181.776 39.7954C181.689 39.8734 181.646 39.9991 181.646 40.1724C181.646 40.3371 181.646 40.5061 181.646 40.6794C181.646 40.8441 181.581 40.9871 181.451 41.1084C181.33 41.2297 181.078 41.3164 180.697 41.3684ZM186.242 39.4314C186.242 39.4314 186.246 39.3924 186.255 39.3144C186.272 39.2364 186.307 39.1497 186.359 39.0544C186.419 38.9504 186.519 38.8637 186.658 38.7944C186.796 38.7164 186.991 38.6817 187.243 38.6904C187.581 38.6991 187.81 38.7554 187.932 38.8594C188.062 38.9634 188.131 39.0717 188.14 39.1844C188.148 39.2884 188.153 39.3621 188.153 39.4054C188.153 39.4314 188.14 39.5614 188.114 39.7954C188.096 40.0207 188.07 40.2981 188.036 40.6274C188.001 40.9481 187.962 41.2687 187.919 41.5894C187.884 41.9101 187.854 42.1787 187.828 42.3954C187.81 42.6121 187.802 42.7204 187.802 42.7204L189.024 42.6294L188.907 40.4064C188.907 40.4064 188.907 40.3761 188.907 40.3154C188.915 40.2547 188.946 40.1854 188.998 40.1074C189.058 40.0207 189.158 39.9427 189.297 39.8734C189.435 39.8041 189.639 39.7607 189.908 39.7434C190.176 39.7261 190.389 39.7477 190.545 39.8084C190.701 39.8691 190.818 39.9427 190.896 40.0294C190.974 40.1074 191.021 40.1811 191.039 40.2504C191.065 40.3197 191.078 40.3544 191.078 40.3544L191.351 45.4504C191.351 45.4504 191.346 45.4894 191.338 45.5674C191.338 45.6367 191.307 45.7234 191.247 45.8274C191.195 45.9227 191.095 46.0094 190.948 46.0874C190.8 46.1567 190.584 46.1914 190.298 46.1914C190.012 46.1914 189.791 46.1567 189.635 46.0874C189.479 46.0181 189.366 45.9357 189.297 45.8404C189.236 45.7451 189.197 45.6627 189.18 45.5934C189.171 45.5241 189.167 45.4894 189.167 45.4894L189.076 43.7474L187.412 43.9424C187.412 43.9424 187.342 43.9511 187.204 43.9684C187.065 43.9771 186.905 43.9684 186.723 43.9424C186.549 43.9164 186.393 43.8471 186.255 43.7344C186.125 43.6217 186.064 43.4441 186.073 43.2014C186.09 42.7161 186.112 42.1527 186.138 41.5114C186.172 40.8614 186.207 40.1681 186.242 39.4314ZM194.854 46.1914V44.7614H200.266V43.1444H194.854V40.3614C194.887 39.1844 195.822 38.2274 196.999 38.1614H202.323V39.2394C202.301 39.8554 201.817 40.3614 201.201 40.3944H197.868L197.967 40.4934V42.0664L200.266 42.0774L202.323 42.0664V45.0364C202.301 45.6524 201.817 46.1584 201.201 46.1914H194.854ZM203.7 46.1914V40.3614C203.733 39.1844 204.668 38.2274 205.845 38.1614H211.18V39.2394C211.158 39.8554 210.674 40.3614 210.058 40.3944H206.835H206.736L206.835 40.4934V42.0774H210.047V42.4404C210.036 42.8144 209.739 43.1224 209.354 43.1444H206.835V44.7614H211.18V45.0364C211.158 45.6524 210.674 46.1584 210.058 46.1914H203.7ZM212.558 40.3064C212.591 39.1294 213.526 38.1724 214.703 38.1064H220.038L220.049 45.1244C220.027 45.7404 219.543 46.2464 218.927 46.2794H212.569L212.558 40.3064ZM217.376 44.7614C217.673 44.7504 217.915 44.5304 217.926 44.2224V40.5044L217.981 40.4054H216.397C216.023 40.4164 215.715 40.7134 215.693 41.0984V44.7614H217.376ZM221.426 40.3614C221.459 39.1844 222.394 38.2274 223.571 38.1614H224.594V41.4834L229.489 38.2384V39.2504C229.478 39.5474 229.291 39.9214 229.038 40.0974L226.123 42.0664L229.621 46.1914H227.091L224.539 43.1444H224.473L224.539 43.2104V45.0254C224.517 45.6414 224.033 46.1474 223.417 46.1804L221.426 46.1914V40.3614ZM231.481 38.2934C232.658 38.3374 233.615 39.2834 233.681 40.4604V42.4074H234.352V40.2734C234.385 39.0964 235.32 38.1394 236.497 38.0734H239.027V40.9994C238.994 42.1764 238.059 43.1334 236.882 43.1994H235.881L235.98 43.2984V45.3774C235.958 45.9934 235.474 46.4994 234.858 46.5324H233.923V43.1994H233.681L231.932 43.1884C231.316 43.1554 230.81 42.6714 230.777 42.0554V38.2934H231.481ZM240.408 46.1914V40.3614C240.441 39.1844 241.376 38.2274 242.553 38.1614H247.888V39.2394C247.866 39.8554 247.382 40.3614 246.766 40.3944H243.543H243.444L243.543 40.4934V42.0774H246.755V42.4404C246.744 42.8144 246.447 43.1224 246.062 43.1444H243.543V44.7614H247.888V45.0364C247.866 45.6524 247.382 46.1584 246.766 46.1914H240.408ZM249.266 40.3064C249.299 39.1294 250.234 38.1724 251.411 38.1064H256.746L256.757 45.1244C256.735 45.7404 256.251 46.2464 255.635 46.2794H249.277L249.266 40.3064ZM254.084 44.7614C254.381 44.7504 254.623 44.5304 254.634 44.2224V40.5044L254.689 40.4054H253.105C252.731 40.4164 252.423 40.7134 252.401 41.0984V44.7614H254.084ZM258.134 40.3614C258.167 39.1844 259.102 38.2274 260.279 38.1614H261.203L264.393 44.7614V38.1614L266.494 38.1504V45.0254C266.472 45.6414 265.988 46.1474 265.372 46.1804L263.337 46.1914L261.269 41.6484H261.214L261.269 41.7474V45.0364C261.247 45.6524 260.763 46.1584 260.147 46.1914H258.134V40.3614ZM267.872 46.1914V40.3614C267.905 39.1844 268.84 38.2274 270.017 38.1614H275.352V39.2394C275.33 39.8554 274.846 40.3614 274.23 40.3944H270.897L270.996 40.4934V44.7614H273.317V42.9574H272.833C272.459 42.9464 272.151 42.6494 272.129 42.2644V41.8904H275.352V45.0364C275.33 45.6524 274.846 46.1584 274.23 46.1914H267.872ZM276.729 42.1544C276.751 41.8574 276.971 41.6154 277.279 41.6044H280.403V42.0334C280.381 42.3304 280.161 42.5724 279.853 42.5834H276.729V42.1544ZM281.784 40.3614C281.817 39.1844 282.752 38.2274 283.929 38.1614H289.583V41.9894C289.561 42.6054 289.077 43.1114 288.461 43.1444H287.845L290.364 46.1914H287.515L285.161 43.1444H284.842L284.941 43.2434V45.0364C284.919 45.6524 284.435 46.1584 283.819 46.1914H281.784V40.3614ZM286.965 42.4074C287.262 42.3964 287.504 42.1764 287.515 41.8684V40.3944H285.667C285.293 40.4054 284.985 40.7024 284.963 41.0874V42.4074H286.965ZM291.308 40.3064C291.341 39.1294 292.276 38.1724 293.453 38.1064H298.788L298.799 45.1244C298.777 45.7404 298.293 46.2464 297.677 46.2794H291.319L291.308 40.3064ZM296.126 44.7614C296.423 44.7504 296.665 44.5304 296.676 44.2224V40.5044L296.731 40.4054H295.147C294.773 40.4164 294.465 40.7134 294.443 41.0984V44.7614H296.126ZM300.176 44.6444C300.189 44.2024 300.54 43.8384 300.995 43.8124H302.555V45.5414C302.542 45.8924 302.282 46.1784 301.918 46.1914H300.748C300.345 46.6074 299.747 46.8024 299.747 46.8024L299.474 46.3994C299.747 46.3214 299.994 46.1784 300.176 46.0354V44.6444ZM300.904 45.7624C300.904 45.7624 301.541 45.2944 301.671 44.8264L301.541 44.7484C301.541 44.7484 301.242 45.3334 300.787 45.6454L300.904 45.7624ZM307.193 46.1914V44.7614H312.605V43.1444H307.193V40.3614C307.226 39.1844 308.161 38.2274 309.338 38.1614H314.662V39.2394C314.64 39.8554 314.156 40.3614 313.54 40.3944H310.207L310.306 40.4934V42.0664L312.605 42.0774L314.662 42.0664V45.0364C314.64 45.6524 314.156 46.1584 313.54 46.1914H307.193ZM316.04 46.1914V40.3614C316.073 39.1844 317.008 38.2274 318.185 38.1614H323.52V39.2394C323.498 39.8554 323.014 40.3614 322.398 40.3944H319.175H319.076L319.175 40.4934V42.0774H322.387V42.4404C322.376 42.8144 322.079 43.1224 321.694 43.1444H319.175V44.7614H323.52V45.0364C323.498 45.6524 323.014 46.1584 322.398 46.1914H316.04ZM324.897 40.3064C324.93 39.1294 325.865 38.1724 327.042 38.1064H332.377L332.388 45.1244C332.366 45.7404 331.882 46.2464 331.266 46.2794H324.908L324.897 40.3064ZM329.715 44.7614C330.012 44.7504 330.254 44.5304 330.265 44.2224V40.5044L330.32 40.4054H328.736C328.362 40.4164 328.054 40.7134 328.032 41.0984V44.7614H329.715ZM333.766 40.3614C333.799 39.1844 334.734 38.2274 335.911 38.1614H336.835L340.025 44.7614V38.1614L342.126 38.1504V45.0254C342.104 45.6414 341.62 46.1474 341.004 46.1804L338.969 46.1914L336.901 41.6484H336.846L336.901 41.7474V45.0364C336.879 45.6524 336.395 46.1584 335.779 46.1914H333.766V40.3614ZM343.504 46.1914V40.3614C343.537 39.1844 344.472 38.2274 345.649 38.1614H350.984V39.2394C350.962 39.8554 350.478 40.3614 349.862 40.3944H346.529L346.628 40.4934V44.7614H348.949V42.9574H348.465C348.091 42.9464 347.783 42.6494 347.761 42.2644V41.8904H350.984V45.0364C350.962 45.6524 350.478 46.1584 349.862 46.1914H343.504ZM352.372 40.3614C352.405 39.1844 353.34 38.2274 354.517 38.1614H359.841V41.9894C359.819 42.6054 359.335 43.1114 358.719 43.1444H359.841V45.0364C359.819 45.6524 359.335 46.1584 358.719 46.1914H352.372V40.3614ZM357.256 42.4074C357.553 42.3964 357.795 42.1764 357.806 41.8684V40.4054H356.244C355.87 40.4164 355.562 40.7134 355.54 41.0984V42.4074H357.256ZM357.256 44.7614C357.553 44.7504 357.795 44.5304 357.806 44.2224V43.2214H356.244C355.87 43.2324 355.562 43.5294 355.54 43.9144V44.7614H357.256ZM361.219 46.1914V40.3614C361.252 39.1844 362.187 38.2274 363.364 38.1614H364.365V44.6734L364.266 44.7724H367.313V38.1614H369.359V45.0364C369.337 45.6524 368.853 46.1584 368.237 46.1914H361.219ZM370.742 40.3614C370.775 39.1844 371.71 38.2274 372.887 38.1614H373.91V41.4834L378.805 38.2384V39.2504C378.794 39.5474 378.607 39.9214 378.354 40.0974L375.439 42.0664L378.937 46.1914H376.407L373.855 43.1444H373.789L373.855 43.2104V45.0254C373.833 45.6414 373.349 46.1474 372.733 46.1804L370.742 46.1914V40.3614ZM380.094 42.1544C380.116 41.8574 380.336 41.6154 380.644 41.6044H383.768V42.0334C383.746 42.3304 383.526 42.5724 383.218 42.5834H380.094V42.1544ZM385.148 46.1914V40.3614C385.181 39.1844 386.116 38.2274 387.293 38.1614H392.628V39.2394C392.606 39.8554 392.122 40.3614 391.506 40.3944H388.173L388.272 40.4934V44.7614H390.593V42.9574H390.109C389.735 42.9464 389.427 42.6494 389.405 42.2644V41.8904H392.628V45.0364C392.606 45.6524 392.122 46.1584 391.506 46.1914H385.148ZM394.006 46.1914V40.3614C394.039 39.1844 394.974 38.2274 396.151 38.1614H397.152V44.6734L397.053 44.7724H400.1V38.1614H402.146V45.0364C402.124 45.6524 401.64 46.1584 401.024 46.1914H394.006ZM403.529 44.8824C403.54 44.5084 403.837 44.2004 404.222 44.1784H405.542V45.6414C405.531 45.9384 405.311 46.1804 405.003 46.1914H404.013C403.672 46.5434 403.166 46.7084 403.166 46.7084L402.935 46.3674C403.166 46.3014 403.375 46.1804 403.529 46.0594V44.8824ZM404.145 45.8284C404.145 45.8284 404.684 45.4324 404.794 45.0364L404.684 44.9704C404.684 44.9704 404.431 45.4654 404.046 45.7294L404.145 45.8284ZM409.621 46.1914V44.7614H415.033V43.1444H409.621V40.3614C409.654 39.1844 410.589 38.2274 411.766 38.1614H417.09V39.2394C417.068 39.8554 416.584 40.3614 415.968 40.3944H412.635L412.734 40.4934V42.0664L415.033 42.0774L417.09 42.0664V45.0364C417.068 45.6524 416.584 46.1584 415.968 46.1914H409.621ZM418.468 46.1914V40.3614C418.501 39.1844 419.436 38.2274 420.613 38.1614H425.948V39.2394C425.926 39.8554 425.442 40.3614 424.826 40.3944H421.603H421.504L421.603 40.4934V42.0774H424.815V42.4404C424.804 42.8144 424.507 43.1224 424.122 43.1444H421.603V44.7614H425.948V45.0364C425.926 45.6524 425.442 46.1584 424.826 46.1914H418.468ZM427.325 40.3064C427.358 39.1294 428.293 38.1724 429.47 38.1064H434.805L434.816 45.1244C434.794 45.7404 434.31 46.2464 433.694 46.2794H427.336L427.325 40.3064ZM432.143 44.7614C432.44 44.7504 432.682 44.5304 432.693 44.2224V40.5044L432.748 40.4054H431.164C430.79 40.4164 430.482 40.7134 430.46 41.0984V44.7614H432.143ZM436.193 46.1914V40.3614C436.226 39.1844 437.161 38.2274 438.338 38.1614H439.339V44.6734L439.24 44.7724H442.287V38.1614H444.333V45.0364C444.311 45.6524 443.827 46.1584 443.211 46.1914H436.193ZM445.717 46.1914V40.3614C445.75 39.1844 446.685 38.2274 447.862 38.1614H448.841V44.6624L448.742 44.7614H453.197V45.0364C453.175 45.6524 452.691 46.1584 452.075 46.1914H445.717ZM454.574 44.6444C454.587 44.2024 454.938 43.8384 455.393 43.8124H456.953V45.5414C456.94 45.8924 456.68 46.1784 456.316 46.1914H455.146C454.743 46.6074 454.145 46.8024 454.145 46.8024L453.872 46.3994C454.145 46.3214 454.392 46.1784 454.574 46.0354V44.6444ZM455.302 45.7624C455.302 45.7624 455.939 45.2944 456.069 44.8264L455.939 44.7484C455.939 44.7484 455.64 45.3334 455.185 45.6454L455.302 45.7624ZM464.543 38.7294C464.543 38.7294 464.634 38.7337 464.816 38.7424C464.998 38.7511 465.223 38.7987 465.492 38.8854C465.76 38.9634 466.033 39.1151 466.311 39.3404C466.588 39.5571 466.822 39.8734 467.013 40.2894C467.212 40.7054 467.325 41.2557 467.351 41.9404C467.385 43.0237 467.312 43.8774 467.13 44.5014C466.948 45.1167 466.657 45.5544 466.259 45.8144C465.86 46.0657 465.353 46.1914 464.738 46.1914C463.819 46.1914 463.104 45.8751 462.593 45.2424C462.081 44.6011 461.826 43.5871 461.826 42.2004C461.826 41.5071 461.899 40.9351 462.047 40.4844C462.194 40.0337 462.393 39.6827 462.645 39.4314C462.896 39.1801 463.182 39.0024 463.503 38.8984C463.832 38.7857 464.179 38.7294 464.543 38.7294ZM464.634 39.7694C464.573 39.7867 464.504 39.8084 464.426 39.8344C464.356 39.8604 464.287 39.9427 464.218 40.0814C464.157 40.2201 464.101 40.4541 464.049 40.7834C464.005 41.1127 463.975 41.5851 463.958 42.2004C463.94 42.9024 463.953 43.4571 463.997 43.8644C464.04 44.2631 464.105 44.5491 464.192 44.7224C464.287 44.8871 464.4 44.9737 464.53 44.9824C464.634 44.9911 464.729 44.9651 464.816 44.9044C464.911 44.8437 464.993 44.7181 465.063 44.5274C465.141 44.3367 465.197 44.0551 465.232 43.6824C465.275 43.3097 465.297 42.8157 465.297 42.2004C465.297 41.5851 465.262 41.1127 465.193 40.7834C465.132 40.4454 465.054 40.2071 464.959 40.0684C464.872 39.9211 464.794 39.8344 464.725 39.8084C464.664 39.7824 464.634 39.7694 464.634 39.7694ZM469.436 41.3684C469.41 41.3684 469.341 41.3684 469.228 41.3684C469.116 41.3684 468.99 41.3424 468.851 41.2904C468.713 41.2384 468.596 41.1431 468.5 41.0044C468.405 40.8571 468.362 40.6404 468.37 40.3544C468.388 39.7824 468.613 39.3404 469.046 39.0284C469.48 38.7164 470.043 38.5647 470.736 38.5734C471.083 38.5734 471.425 38.6081 471.763 38.6774C472.11 38.7381 472.422 38.8421 472.699 38.9894C472.977 39.1367 473.198 39.3404 473.362 39.6004C473.536 39.8517 473.622 40.1767 473.622 40.5754C473.622 40.8961 473.54 41.2427 473.375 41.6154C473.211 41.9794 473.007 42.3434 472.764 42.7074C472.522 43.0714 472.275 43.4051 472.023 43.7084C471.781 44.0031 471.573 44.2414 471.399 44.4234C471.235 44.6054 471.148 44.6964 471.139 44.6964C471.148 44.6964 471.226 44.6877 471.373 44.6704C471.521 44.6444 471.69 44.6184 471.88 44.5924C472.071 44.5664 472.24 44.5447 472.387 44.5274C472.535 44.5014 472.608 44.4884 472.608 44.4884C472.608 44.4884 472.656 44.4884 472.751 44.4884C472.855 44.4884 472.972 44.5014 473.102 44.5274C473.241 44.5447 473.367 44.5881 473.479 44.6574C473.592 44.7267 473.657 44.8351 473.674 44.9824C473.718 45.2771 473.674 45.4721 473.544 45.5674C473.423 45.6541 473.263 45.7147 473.063 45.7494C472.985 45.7581 472.816 45.7797 472.556 45.8144C472.305 45.8491 472.01 45.8881 471.672 45.9314C471.343 45.9747 471.018 46.0181 470.697 46.0614C470.385 46.0961 470.125 46.1264 469.917 46.1524C469.709 46.1784 469.605 46.1914 469.605 46.1914C469.605 46.1914 469.536 46.1914 469.397 46.1914C469.267 46.1827 469.124 46.1567 468.968 46.1134C468.821 46.0701 468.721 45.9921 468.669 45.8794C468.591 45.7061 468.561 45.5674 468.578 45.4634C468.604 45.3507 468.726 45.1731 468.942 44.9304C469.029 44.8351 469.168 44.6747 469.358 44.4494C469.549 44.2154 469.757 43.9467 469.982 43.6434C470.216 43.3314 470.442 43.0064 470.658 42.6684C470.875 42.3217 471.053 41.9881 471.191 41.6674C471.33 41.3381 471.404 41.0434 471.412 40.7834C471.421 40.3501 471.395 40.0511 471.334 39.8864C471.274 39.7217 471.204 39.6307 471.126 39.6134C471.057 39.5874 471.009 39.5744 470.983 39.5744C470.957 39.5744 470.897 39.5917 470.801 39.6264C470.706 39.6524 470.611 39.7087 470.515 39.7954C470.429 39.8734 470.385 39.9991 470.385 40.1724C470.385 40.3371 470.385 40.5061 470.385 40.6794C470.385 40.8441 470.32 40.9871 470.19 41.1084C470.069 41.2297 469.818 41.3164 469.436 41.3684ZM475.696 45.4504C475.67 44.8697 475.709 44.3064 475.813 43.7604C475.926 43.2057 476.069 42.6944 476.242 42.2264C476.415 41.7497 476.593 41.3337 476.775 40.9784C476.957 40.6231 477.109 40.3457 477.23 40.1464C477.36 39.9471 477.425 39.8474 477.425 39.8474C477.425 39.8474 477.347 39.8561 477.191 39.8734C477.044 39.8821 476.866 39.8994 476.658 39.9254C476.459 39.9427 476.268 39.9601 476.086 39.9774C475.904 39.9947 475.783 40.0034 475.722 40.0034C475.644 40.0034 475.523 40.0077 475.358 40.0164C475.193 40.0251 475.042 39.9991 474.903 39.9384C474.773 39.8691 474.704 39.7347 474.695 39.5354C474.686 39.3881 474.734 39.2711 474.838 39.1844C474.951 39.0891 475.076 39.0197 475.215 38.9764C475.354 38.9331 475.475 38.9071 475.579 38.8984C475.692 38.8811 475.748 38.8724 475.748 38.8724L478.699 38.7164C478.699 38.7164 478.755 38.7207 478.868 38.7294C478.981 38.7294 479.111 38.7511 479.258 38.7944C479.414 38.8291 479.544 38.8984 479.648 39.0024C479.761 39.0977 479.813 39.2364 479.804 39.4184C479.804 39.6004 479.704 39.8387 479.505 40.1334C479.184 40.6101 478.92 41.0954 478.712 41.5894C478.513 42.0834 478.352 42.5601 478.231 43.0194C478.118 43.4701 478.032 43.8774 477.971 44.2414C477.919 44.5967 477.884 44.8827 477.867 45.0994C477.85 45.3074 477.841 45.4114 477.841 45.4114C477.841 45.4114 477.845 45.4504 477.854 45.5284C477.863 45.6064 477.841 45.6974 477.789 45.8014C477.746 45.9054 477.65 45.9964 477.503 46.0744C477.356 46.1524 477.126 46.1914 476.814 46.1914C476.502 46.1914 476.268 46.1567 476.112 46.0874C475.956 46.0094 475.848 45.9227 475.787 45.8274C475.726 45.7234 475.696 45.6367 475.696 45.5674C475.696 45.4894 475.696 45.4504 475.696 45.4504ZM482.091 41.3684C482.065 41.3684 481.995 41.3684 481.883 41.3684C481.77 41.3684 481.644 41.3424 481.506 41.2904C481.367 41.2384 481.25 41.1431 481.155 41.0044C481.059 40.8571 481.016 40.6404 481.025 40.3544C481.042 39.7824 481.267 39.3404 481.701 39.0284C482.134 38.7164 482.697 38.5647 483.391 38.5734C483.737 38.5734 484.08 38.6081 484.418 38.6774C484.764 38.7381 485.076 38.8421 485.354 38.9894C485.631 39.1367 485.852 39.3404 486.017 39.6004C486.19 39.8517 486.277 40.1767 486.277 40.5754C486.277 40.8961 486.194 41.2427 486.03 41.6154C485.865 41.9794 485.661 42.3434 485.419 42.7074C485.176 43.0714 484.929 43.4051 484.678 43.7084C484.435 44.0031 484.227 44.2414 484.054 44.4234C483.889 44.6054 483.802 44.6964 483.794 44.6964C483.802 44.6964 483.88 44.6877 484.028 44.6704C484.175 44.6444 484.344 44.6184 484.535 44.5924C484.725 44.5664 484.894 44.5447 485.042 44.5274C485.189 44.5014 485.263 44.4884 485.263 44.4884C485.263 44.4884 485.31 44.4884 485.406 44.4884C485.51 44.4884 485.627 44.5014 485.757 44.5274C485.895 44.5447 486.021 44.5881 486.134 44.6574C486.246 44.7267 486.311 44.8351 486.329 44.9824C486.372 45.2771 486.329 45.4721 486.199 45.5674C486.077 45.6541 485.917 45.7147 485.718 45.7494C485.64 45.7581 485.471 45.7797 485.211 45.8144C484.959 45.8491 484.665 45.8881 484.327 45.9314C483.997 45.9747 483.672 46.0181 483.352 46.0614C483.04 46.0961 482.78 46.1264 482.572 46.1524C482.364 46.1784 482.26 46.1914 482.26 46.1914C482.26 46.1914 482.19 46.1914 482.052 46.1914C481.922 46.1827 481.779 46.1567 481.623 46.1134C481.475 46.0701 481.376 45.9921 481.324 45.8794C481.246 45.7061 481.215 45.5674 481.233 45.4634C481.259 45.3507 481.38 45.1731 481.597 44.9304C481.683 44.8351 481.822 44.6747 482.013 44.4494C482.203 44.2154 482.411 43.9467 482.637 43.6434C482.871 43.3314 483.096 43.0064 483.313 42.6684C483.529 42.3217 483.707 41.9881 483.846 41.6674C483.984 41.3381 484.058 41.0434 484.067 40.7834C484.075 40.3501 484.049 40.0511 483.989 39.8864C483.928 39.7217 483.859 39.6307 483.781 39.6134C483.711 39.5874 483.664 39.5744 483.638 39.5744C483.612 39.5744 483.551 39.5917 483.456 39.6264C483.36 39.6524 483.265 39.7087 483.17 39.7954C483.083 39.8734 483.04 39.9991 483.04 40.1724C483.04 40.3371 483.04 40.5061 483.04 40.6794C483.04 40.8441 482.975 40.9871 482.845 41.1084C482.723 41.2297 482.472 41.3164 482.091 41.3684ZM489.039 39.2234C489.1 39.1801 489.182 39.1107 489.286 39.0154C489.39 38.9201 489.516 38.8334 489.663 38.7554C489.811 38.6687 489.984 38.6167 490.183 38.5994C490.383 38.5821 490.608 38.6297 490.859 38.7424C491.154 38.8724 491.34 38.9937 491.418 39.1064C491.496 39.2104 491.505 39.3101 491.444 39.4054C491.392 39.4921 491.31 39.5744 491.197 39.6524C491.093 39.7304 490.998 39.8084 490.911 39.8864C490.747 40.0337 490.604 40.1984 490.482 40.3804C490.37 40.5537 490.283 40.7054 490.222 40.8354C490.162 40.9567 490.131 41.0174 490.131 41.0174C490.66 40.8874 491.128 40.8961 491.535 41.0434C491.943 41.1821 492.263 41.4377 492.497 41.8104C492.74 42.1744 492.866 42.6251 492.874 43.1624C492.883 43.6997 492.792 44.1981 492.601 44.6574C492.419 45.1167 492.125 45.4894 491.717 45.7754C491.319 46.0527 490.807 46.1914 490.183 46.1914C489.551 46.1914 489.031 46.0484 488.623 45.7624C488.216 45.4677 487.913 45.0691 487.713 44.5664C487.514 44.0637 487.414 43.4961 487.414 42.8634C487.414 42.4821 487.466 42.1137 487.57 41.7584C487.683 41.3944 487.817 41.0607 487.973 40.7574C488.138 40.4541 488.303 40.1897 488.467 39.9644C488.632 39.7304 488.766 39.5484 488.87 39.4184C488.983 39.2884 489.039 39.2234 489.039 39.2234ZM490.105 41.8754C489.837 41.9014 489.646 42.0054 489.533 42.1874C489.421 42.3607 489.356 42.5557 489.338 42.7724C489.33 42.9804 489.33 43.1537 489.338 43.2924C489.364 43.6737 489.451 44.0117 489.598 44.3064C489.746 44.6011 489.971 44.7354 490.274 44.7094C490.578 44.6834 490.786 44.5187 490.898 44.2154C491.011 43.9121 491.05 43.4614 491.015 42.8634C490.998 42.5687 490.942 42.3521 490.846 42.2134C490.751 42.0661 490.647 41.9707 490.534 41.9274C490.422 41.8841 490.322 41.8667 490.235 41.8754C490.149 41.8754 490.105 41.8754 490.105 41.8754ZM493.659 44.6444C493.672 44.2024 494.023 43.8384 494.478 43.8124H496.038V45.5414C496.025 45.8924 495.765 46.1784 495.401 46.1914H494.231C493.828 46.6074 493.23 46.8024 493.23 46.8024L492.957 46.3994C493.23 46.3214 493.477 46.1784 493.659 46.0354V44.6444ZM494.387 45.7624C494.387 45.7624 495.024 45.2944 495.154 44.8264L495.024 44.7484C495.024 44.7484 494.725 45.3334 494.27 45.6454L494.387 45.7624ZM500.276 40.3614C500.309 39.1844 501.244 38.2274 502.421 38.1614H508.075V41.9894C508.053 42.6054 507.569 43.1114 506.953 43.1444H506.337L508.856 46.1914H506.007L503.653 43.1444H503.334L503.433 43.2434V45.0364C503.411 45.6524 502.927 46.1584 502.311 46.1914H500.276V40.3614ZM505.457 42.4074C505.754 42.3964 505.996 42.1764 506.007 41.8684V40.3944H504.159C503.785 40.4054 503.477 40.7024 503.455 41.0874V42.4074H505.457ZM509.8 46.1914V40.3614C509.833 39.1844 510.768 38.2274 511.945 38.1614H517.28V39.2394C517.258 39.8554 516.774 40.3614 516.158 40.3944H512.935H512.836L512.935 40.4934V42.0774H516.147V42.4404C516.136 42.8144 515.839 43.1224 515.454 43.1444H512.935V44.7614H517.28V45.0364C517.258 45.6524 516.774 46.1584 516.158 46.1914H509.8ZM518.657 40.3614C518.69 39.1844 519.625 38.2274 520.802 38.1614H526.137V41.9894C526.115 42.6054 525.631 43.1114 525.015 43.1444H521.682L521.781 43.2434V45.0364C521.759 45.6524 521.275 46.1584 520.659 46.1914H518.657V40.3614ZM523.387 42.4074C523.684 42.3964 523.926 42.1764 523.937 41.8684V40.3944H522.529C522.155 40.4054 521.847 40.7024 521.825 41.0874V42.4074H523.387ZM527.3 46.1914V40.3614C527.333 39.1844 528.268 38.2274 529.445 38.1614H530.446V44.6734L530.347 44.7724H533.394V38.1614H535.44V45.0364C535.418 45.6524 534.934 46.1584 534.318 46.1914H527.3ZM536.834 40.3614C536.867 39.1844 537.802 38.2274 538.979 38.1614H544.303V41.9894C544.281 42.6054 543.797 43.1114 543.181 43.1444H544.303V45.0364C544.281 45.6524 543.797 46.1584 543.181 46.1914H536.834V40.3614ZM541.718 42.4074C542.015 42.3964 542.257 42.1764 542.268 41.8684V40.4054H540.706C540.332 40.4164 540.024 40.7134 540.002 41.0984V42.4074H541.718ZM541.718 44.7614C542.015 44.7504 542.257 44.5304 542.268 44.2224V43.2214H540.706C540.332 43.2324 540.024 43.5294 540.002 43.9144V44.7614H541.718ZM545.681 46.1914V40.3614C545.714 39.1844 546.649 38.2274 547.826 38.1614H548.805V44.6624L548.706 44.7614H553.161V45.0364C553.139 45.6524 552.655 46.1584 552.039 46.1914H545.681ZM554.538 40.2184C554.571 39.0414 555.506 38.0844 556.683 38.0184H557.343V45.1684C557.321 45.7844 556.837 46.2904 556.221 46.3234H554.538V40.2184ZM558.723 40.3614C558.756 39.1844 559.691 38.2274 560.868 38.1614H566.203V39.2394C566.181 39.8554 565.697 40.3614 565.081 40.3944H561.748L561.847 40.4934V44.7614H566.203V45.0364C566.181 45.6524 565.697 46.1584 565.081 46.1914H558.723V40.3614ZM570.282 40.3064C570.315 39.1294 571.25 38.1724 572.427 38.1064H577.762L577.773 45.1244C577.751 45.7404 577.267 46.2464 576.651 46.2794H570.293L570.282 40.3064ZM575.1 44.7614C575.397 44.7504 575.639 44.5304 575.65 44.2224V40.5044L575.705 40.4054H574.121C573.747 40.4164 573.439 40.7134 573.417 41.0984V44.7614H575.1ZM579.15 40.3614C579.183 39.1844 580.118 38.2274 581.295 38.1614H586.63V39.2394C586.608 39.8554 586.124 40.3614 585.508 40.3944H582.175L582.274 40.4934V42.0774H585.541V42.4404C585.53 42.8144 585.233 43.1224 584.848 43.1444H582.274V45.0364C582.252 45.6524 581.768 46.1584 581.152 46.1914H579.15V40.3614ZM590.27 40.3614C590.303 39.1844 591.238 38.2274 592.415 38.1614H593.438V41.4834L598.333 38.2384V39.2504C598.322 39.5474 598.135 39.9214 597.882 40.0974L594.967 42.0664L598.465 46.1914H595.935L593.383 43.1444H593.317L593.383 43.2104V45.0254C593.361 45.6414 592.877 46.1474 592.261 46.1804L590.27 46.1914V40.3614ZM599.621 40.3064C599.654 39.1294 600.589 38.1724 601.766 38.1064H607.101L607.112 45.1244C607.09 45.7404 606.606 46.2464 605.99 46.2794H599.632L599.621 40.3064ZM604.439 44.7614C604.736 44.7504 604.978 44.5304 604.989 44.2224V40.5044L605.044 40.4054H603.46C603.086 40.4164 602.778 40.7134 602.756 41.0984V44.7614H604.439ZM608.489 40.3614C608.522 39.1844 609.457 38.2274 610.634 38.1614H616.288V41.9894C616.266 42.6054 615.782 43.1114 615.166 43.1444H614.55L617.069 46.1914H614.22L611.866 43.1444H611.547L611.646 43.2434V45.0364C611.624 45.6524 611.14 46.1584 610.524 46.1914H608.489V40.3614ZM613.67 42.4074C613.967 42.3964 614.209 42.1764 614.22 41.8684V40.3944H612.372C611.998 40.4054 611.69 40.7024 611.668 41.0874V42.4074H613.67ZM618.013 46.1914V40.3614C618.046 39.1844 618.981 38.2274 620.158 38.1614H625.493V39.2394C625.471 39.8554 624.987 40.3614 624.371 40.3944H621.148H621.049L621.148 40.4934V42.0774H624.36V42.4404C624.349 42.8144 624.052 43.1224 623.667 43.1444H621.148V44.7614H625.493V45.0364C625.471 45.6524 624.987 46.1584 624.371 46.1914H618.013ZM626.87 40.3614C626.903 39.1844 627.838 38.2274 629.015 38.1614H634.339V46.1914H633.448C632.832 46.1694 632.326 45.6854 632.293 45.0694V43.1444H629.895L629.994 43.2434V44.0464C629.928 45.2234 628.971 46.1584 627.794 46.1914H626.87V40.3614ZM631.743 42.4074C632.04 42.3964 632.282 42.1764 632.293 41.8684L632.282 40.3944H630.731C630.357 40.4054 630.049 40.7024 630.027 41.0874V42.4074H631.743Z" fill="#686868"/>
</svg>
