<svg width="51" height="45" viewBox="0 0 51 45" fill="none" xmlns="http://www.w3.org/2000/svg">
<path d="M25.2446 4.20129C20.2492 4.20148 15.4169 5.78164 11.6124 8.65903C7.80778 11.5364 5.27918 15.5233 4.47899 19.9062C3.6788 24.2892 4.65925 28.7823 7.2449 32.5814C9.83054 36.3806 13.8527 39.2381 18.5916 40.6424C19.6434 40.8061 20.0379 40.2451 20.0379 39.7542C20.0379 39.3101 20.0116 37.8375 20.0116 36.2714C14.7259 37.1362 13.3585 35.1261 12.9378 34.0742C12.4709 33.0512 11.7308 32.1446 10.7815 31.4328C10.0452 31.0822 8.9933 30.2173 10.7551 30.194C11.4279 30.2589 12.0731 30.467 12.6362 30.8006C13.1992 31.1343 13.6635 31.5836 13.9896 32.1107C14.2774 32.5701 14.6643 32.9746 15.1282 33.3009C15.592 33.6272 16.1238 33.8689 16.693 34.0123C17.2622 34.1556 17.8576 34.1976 18.4451 34.1361C19.0326 34.0745 19.6006 33.9105 20.1167 33.6534C20.2078 32.7027 20.6844 31.8139 21.4579 31.1524C16.7771 30.6849 11.8859 29.0719 11.8859 21.9194C11.8564 20.0609 12.6279 18.2628 14.0422 16.8938C13.3991 15.2786 13.4743 13.5059 14.2526 11.9384C14.2526 11.9384 16.0144 11.4475 20.0378 13.8551C23.4801 13.0136 27.1142 13.0136 30.5565 13.8551C34.5798 11.4241 36.3417 11.9384 36.3417 11.9384C37.1201 13.5059 37.1953 15.2786 36.5521 16.8938C37.9707 18.2604 38.7429 20.0601 38.7084 21.9194C38.7084 29.0953 33.7909 30.6849 29.1101 31.1524C29.6122 31.6047 29.9989 32.1477 30.2439 32.7447C30.4889 33.3416 30.5865 33.9784 30.5302 34.6118C30.5302 37.1129 30.5038 39.1231 30.5038 39.7543C30.5038 40.2451 30.8983 40.8295 31.9501 40.6425C36.6807 39.2267 40.6913 36.3626 43.2659 32.5614C45.8405 28.7603 46.8117 24.2695 46.0059 19.8908C45.2002 15.5121 42.6701 11.5304 38.8671 8.65653C35.0642 5.78264 30.2361 4.2036 25.2446 4.20129Z" fill="black"/>
</svg>
