<svg width="40" height="39" viewBox="0 0 40 39" fill="none" xmlns="http://www.w3.org/2000/svg">
<path fill-rule="evenodd" clip-rule="evenodd" d="M19.9999 0C8.95536 0 0 8.95126 0 19.9937C0 28.8271 5.7309 36.3215 13.6768 38.9652C14.6767 39.1506 15.0439 38.5316 15.0439 38.0037C15.0439 37.527 15.0254 35.9518 15.0164 34.281C9.45241 35.4906 8.27868 31.9223 8.27868 31.9223C7.36857 29.6116 6.05785 28.9968 6.05785 28.9968C4.24293 27.7559 6.19457 27.7811 6.19457 27.7811C8.2029 27.9225 9.26006 29.8418 9.26006 29.8418C11.0442 32.8984 13.9391 32.0148 15.0805 31.5038C15.2601 30.2118 15.7781 29.3293 16.3502 28.8302C11.908 28.3254 7.23848 26.6106 7.23848 18.9496C7.23848 16.767 8.01955 14.9831 9.29874 13.5833C9.09128 13.0795 8.40665 11.0458 9.49295 8.292C9.49295 8.292 11.1722 7.75432 14.9933 10.3413C16.5891 9.89843 18.2999 9.67647 19.9996 9.66853C21.6993 9.67647 23.4116 9.89843 25.0098 10.3413C28.8273 7.75458 30.5044 8.29174 30.5044 8.29174C31.5928 11.0453 30.9085 13.079 30.7005 13.5825C31.9828 14.9826 32.7586 16.7662 32.7586 18.9488C32.7586 26.6286 28.0801 28.319 23.6268 28.8141C24.344 29.4349 24.9833 30.6515 24.9833 32.517C24.9833 35.1921 24.9606 37.3455 24.9606 38.0037C24.9606 38.5361 25.3201 39.1591 26.3338 38.9631C34.277 36.3165 40 28.8247 40 19.9939C39.9997 8.95126 31.0454 0 19.9999 0Z" fill="#C6E400"/>
<path d="M7.5448 28.3701C7.49981 28.4789 7.34087 28.5119 7.19621 28.4367C7.04804 28.3655 6.96587 28.2173 7.01356 28.1085C7.05747 27.9971 7.21641 27.9662 7.36377 28.0405C7.5114 28.112 7.59545 28.2613 7.5448 28.3701ZM8.36618 29.3574C8.2692 29.4541 8.07928 29.4095 7.95132 29.2567C7.8177 29.1042 7.79318 28.9002 7.89151 28.8024C7.99119 28.7061 8.17545 28.7512 8.30827 28.9037C8.44162 29.0576 8.46775 29.2596 8.36618 29.3574ZM9.1679 30.6161C9.04317 30.7096 8.83924 30.6225 8.71316 30.428C8.58844 30.2336 8.58844 30.0007 8.71586 29.9072C8.84247 29.814 9.04317 29.8985 9.17113 30.0906C9.29506 30.2883 9.29506 30.5209 9.1679 30.6161ZM10.2689 31.8317C10.1574 31.9636 9.92005 31.9281 9.74629 31.7478C9.56849 31.5719 9.51892 31.3219 9.63045 31.1899C9.7436 31.0577 9.98228 31.0944 10.1574 31.2738C10.3338 31.4492 10.3874 31.7009 10.2689 31.8317ZM11.7843 32.5369C11.7347 32.7076 11.5068 32.7857 11.2762 32.7125C11.0458 32.6378 10.8953 32.4376 10.9421 32.2649C10.9895 32.0927 11.2196 32.0117 11.4513 32.0895C11.6811 32.1639 11.8322 32.363 11.7843 32.5369ZM13.4478 32.6671C13.4532 32.8473 13.2581 32.9969 13.0167 32.9998C12.7732 33.0056 12.5763 32.8598 12.5736 32.6827C12.5736 32.5004 12.7649 32.3528 13.0073 32.3485C13.2498 32.3427 13.4478 32.4883 13.4478 32.6668M14.9968 32.385C15.0256 32.5603 14.8578 32.7409 14.6175 32.7889C14.3815 32.8358 14.163 32.727 14.1331 32.5531C14.1035 32.3728 14.2745 32.1925 14.5103 32.1459C14.7508 32.1008 14.9661 32.2064 14.9968 32.385Z" fill="#C6E400"/>
</svg>
