<svg width="32" height="28" viewBox="0 0 32 28" fill="none" xmlns="http://www.w3.org/2000/svg">
<path d="M4.17969 0H13.4961C13.9258 0.0651042 14.1406 0.279948 14.1406 0.644531V3.53516H17.3438V0.644531C17.4089 0.214844 17.6237 0 17.9883 0H27.3047C27.7344 0.0651042 27.9492 0.279948 27.9492 0.644531V3.53516H30.8398C31.2695 3.60026 31.4844 3.8151 31.4844 4.17969V13.4961C31.4844 13.9258 31.2695 14.1406 30.8398 14.1406H27.9492V17.0312C27.9492 17.4609 27.7344 17.6758 27.3047 17.6758H24.4141V20.5664C24.4141 20.9961 24.1992 21.2109 23.7695 21.2109H21.2109V23.7695C21.2109 24.1992 20.9961 24.4141 20.5664 24.4141H17.6758V27.3047C17.6758 27.7344 17.4609 27.9492 17.0312 27.9492H14.7852C14.3555 27.9492 14.1406 27.7344 14.1406 27.3047V24.4141H11.25C10.8203 24.4141 10.6055 24.1992 10.6055 23.7695V21.2109H7.71484C7.28516 21.2109 7.07031 20.9961 7.07031 20.5664V17.6758H4.17969C3.75 17.6758 3.53516 17.4609 3.53516 17.0312V14.1406H0.644531C0.214844 14.1406 0 13.9258 0 13.4961V4.17969C0.0651042 3.75 0.279948 3.53516 0.644531 3.53516H3.53516V0.644531C3.60026 0.214844 3.8151 0 4.17969 0Z" fill="#C6E400"/>
</svg>
