<svg width="167" height="214" viewBox="0 0 167 214" fill="none" xmlns="http://www.w3.org/2000/svg">
<path d="M51.2305 0H117.354V44.8267C117.354 47.6066 115.914 48.9966 113.035 48.9966H95.9082V70.293L162.031 70.4419C164.91 70.839 166.35 72.229 166.35 74.6118V91.7383C166.35 94.5182 164.91 95.9082 162.031 95.9082H117.354V117.354H138.65C141.43 117.751 142.82 119.141 142.82 121.523V140.735H159.946C162.031 140.735 164.166 142.869 166.35 147.139V159.946C166.35 162.031 164.215 164.166 159.946 166.35H117.354L117.502 213.262H98.1421C95.2629 213.262 93.8232 211.822 93.8232 208.943V166.35H70.4419V213.262H51.2305C48.3512 213.262 46.9116 211.822 46.9116 208.943V166.35H4.31885C1.43962 166.35 0 164.91 0 162.031V145.054C0.397135 142.174 1.83675 140.735 4.31885 140.735H23.5303V121.523C23.9274 118.743 25.3174 117.354 27.7002 117.354H46.9116V95.9082H4.31885C1.43962 95.9082 0 94.5182 0 91.7383V74.6118C0.397135 71.8319 1.83675 70.4419 4.31885 70.4419H70.4419V48.9966H51.2305C48.3512 48.9966 46.9116 47.6066 46.9116 44.8267V4.31885C47.408 1.43962 48.8477 0 51.2305 0ZM72.5269 93.8232H93.8232V72.5269H72.3779L72.5269 93.8232Z" fill="#E9E9E9"/>
</svg>
