<svg width="40" height="40" viewBox="0 0 40 40" fill="none" xmlns="http://www.w3.org/2000/svg">
<g clip-path="url(#clip0_5092_5825)">
<path d="M28.0838 0H11.9162C5.34559 0 0 5.34559 0 11.9162V28.0838C0 34.6544 5.34559 40 11.9162 40H28.0838C34.6544 40 40 34.6544 40 28.0838V11.9162C39.9999 5.34559 34.6543 0 28.0838 0ZM35.976 28.0838C35.976 32.4425 32.4425 35.976 28.0838 35.976H11.9162C7.5575 35.976 4.024 32.4425 4.024 28.0838V11.9162C4.024 7.55743 7.5575 4.024 11.9162 4.024H28.0838C32.4425 4.024 35.976 7.55743 35.976 11.9162V28.0838Z" fill="#C6E400"/>
<path d="M19.9997 9.65625C14.2952 9.65625 9.6543 14.2972 9.6543 20.0016C9.6543 25.706 14.2952 30.347 19.9997 30.347C25.7042 30.347 30.3451 25.7061 30.3451 20.0016C30.3451 14.2971 25.7042 9.65625 19.9997 9.65625ZM19.9997 26.3231C16.5085 26.3231 13.6783 23.4929 13.6783 20.0017C13.6783 16.5104 16.5085 13.6802 19.9997 13.6802C23.491 13.6802 26.3211 16.5104 26.3211 20.0017C26.3211 23.4929 23.4909 26.3231 19.9997 26.3231Z" fill="#C6E400"/>
<path d="M30.3657 12.2119C31.7348 12.2119 32.8447 11.102 32.8447 9.73288C32.8447 8.36378 31.7348 7.25391 30.3657 7.25391C28.9966 7.25391 27.8867 8.36378 27.8867 9.73288C27.8867 11.102 28.9966 12.2119 30.3657 12.2119Z" fill="#C6E400"/>
</g>
<defs>
<clipPath id="clip0_5092_5825">
<rect width="40" height="40" fill="white"/>
</clipPath>
</defs>
</svg>
