<svg width="40" height="40" viewBox="0 0 40 40" fill="none" xmlns="http://www.w3.org/2000/svg">
<g clip-path="url(#clip0_5092_5985)">
<path d="M36.875 0H3.125C1.399 0 0 1.399 0 3.125V36.875C0 38.601 1.399 40 3.125 40H36.875C38.601 40 40 38.601 40 36.875V3.125C40 1.399 38.601 0 36.875 0ZM20 31.25C19.015 31.25 18.0505 31.1812 17.1138 31.0485C16.1762 31.7093 10.7588 35.5147 10.2475 35.586C10.2475 35.586 10.0378 35.6675 9.8595 35.5625C9.68117 35.4575 9.7135 35.1822 9.7135 35.1822C9.76717 34.8158 11.1178 30.1517 11.3668 29.2933C6.7915 27.0267 3.75 23.0123 3.75 18.4375C3.75 11.3613 11.0253 5.625 20 5.625C28.9747 5.625 36.25 11.3613 36.25 18.4375C36.25 25.5137 28.9747 31.25 20 31.25ZM13.416 16.4453H11.9532V22.0148C11.9532 22.5087 11.5327 22.9102 11.0157 22.9102C10.4987 22.9102 10.0782 22.5087 10.0782 22.0148V16.4453H8.61533C8.108 16.4453 7.69533 16.0335 7.69533 15.5273C7.69533 15.0212 8.10817 14.6093 8.61533 14.6093H13.416C13.9233 14.6093 14.336 15.0212 14.336 15.5273C14.336 16.0335 13.9232 16.4453 13.416 16.4453ZM31.7292 21.373C31.8037 21.4711 31.8579 21.583 31.8888 21.7022C31.9197 21.8214 31.9266 21.9456 31.9092 22.0675C31.8924 22.1895 31.8516 22.307 31.7892 22.4131C31.7267 22.5192 31.6438 22.6119 31.5453 22.6858C31.3832 22.809 31.1851 22.8755 30.9815 22.875C30.8362 22.8757 30.6929 22.8423 30.5628 22.7776C30.4328 22.7129 30.3197 22.6186 30.2327 22.5023L28.034 19.5892L27.7087 19.9145V21.96C27.7084 22.2086 27.6095 22.447 27.4336 22.6229C27.2578 22.7987 27.0195 22.8976 26.7708 22.898C26.5223 22.8978 26.2839 22.7989 26.1082 22.6232C25.9324 22.4474 25.8336 22.2091 25.8333 21.9605V15.5468C25.8333 15.0298 26.2538 14.6093 26.7708 14.6093C27.2878 14.6093 27.7083 15.0298 27.7083 15.5468V17.5618L30.324 14.9462C30.4585 14.8117 30.6433 14.7375 30.844 14.7375C31.078 14.7375 31.313 14.8385 31.4892 15.0143C31.6533 15.1783 31.7513 15.3895 31.7648 15.6087C31.7785 15.8298 31.7048 16.0323 31.558 16.1795L29.4217 18.3157L31.7292 21.373ZM17.8122 15.5358C17.6538 15.086 17.174 14.6233 16.5617 14.6097C15.9512 14.6235 15.4713 15.086 15.3133 15.5348L13.0708 21.4373C12.7862 22.3215 13.0347 22.6493 13.293 22.7687C13.48 22.8542 13.6833 22.8983 13.889 22.898C14.28 22.898 14.5788 22.7393 14.6687 22.4845L15.1332 21.2683L17.9918 21.2685L18.456 22.4838C18.5462 22.7392 18.8452 22.8978 19.2362 22.8978C19.4418 22.898 19.6451 22.854 19.8322 22.7687C20.0907 22.6498 20.339 22.3218 20.0537 21.4355L17.8122 15.5358ZM15.6262 19.608L16.5625 16.9478L17.4988 19.608H15.6262ZM25.4688 21.914C25.4688 22.3878 25.0658 22.7733 24.5703 22.7733H21.5625C21.067 22.7733 20.664 22.3877 20.664 21.914V15.5468C20.664 15.0298 21.0933 14.6093 21.621 14.6093C22.1487 14.6093 22.578 15.0298 22.578 15.5468V21.0547H24.5702C25.0658 21.0547 25.4688 21.4403 25.4688 21.914Z" fill="#C6E400"/>
</g>
<defs>
<clipPath id="clip0_5092_5985">
<rect width="40" height="40" fill="white"/>
</clipPath>
</defs>
</svg>
