<svg width="32" height="32" viewBox="0 0 32 32" fill="none" xmlns="http://www.w3.org/2000/svg">
<path d="M15.323 10.6602C18.6543 10.6602 21.3193 13.3252 21.3193 16.6565C21.3193 19.9878 18.6543 22.6528 15.323 22.6528C11.9917 22.6528 9.32665 19.9878 9.32665 16.6565C9.32665 13.3252 11.9917 10.6602 15.323 10.6602ZM15.323 11.9927C14.0861 11.9927 12.8998 12.484 12.0252 13.3587C11.1505 14.2333 10.6592 15.4196 10.6592 16.6565C10.6592 17.8934 11.1505 19.0797 12.0252 19.9543C12.8998 20.8289 14.0861 21.3203 15.323 21.3203C16.5599 21.3203 17.7462 20.8289 18.6208 19.9543C19.4954 19.0797 19.9868 17.8934 19.9868 16.6565C19.9868 15.4196 19.4954 14.2333 18.6208 13.3587C17.7462 12.484 16.5599 11.9927 15.323 11.9927ZM6.66162 6.6626H9.32665L11.9917 3.99756H18.6543L21.3193 6.6626H23.9844C25.0446 6.6626 26.0614 7.08377 26.8111 7.83345C27.5607 8.58314 27.9819 9.59993 27.9819 10.6602V22.6528C27.9819 23.713 27.5607 24.7298 26.8111 25.4795C26.0614 26.2292 25.0446 26.6504 23.9844 26.6504H6.66162C5.6014 26.6504 4.58461 26.2292 3.83492 25.4795C3.08523 24.7298 2.66406 23.713 2.66406 22.6528V10.6602C2.66406 9.59993 3.08523 8.58314 3.83492 7.83345C4.58461 7.08377 5.6014 6.6626 6.66162 6.6626ZM12.538 5.33008L9.87299 7.99511H6.66162C5.95481 7.99511 5.27694 8.27589 4.77715 8.77569C4.27736 9.27548 3.99658 9.95334 3.99658 10.6602V22.6528C3.99658 23.3596 4.27736 24.0375 4.77715 24.5373C5.27694 25.0371 5.95481 25.3179 6.66162 25.3179H23.9844C24.6912 25.3179 25.369 25.0371 25.8688 24.5373C26.3686 24.0375 26.6494 23.3596 26.6494 22.6528V10.6602C26.6494 9.95334 26.3686 9.27548 25.8688 8.77569C25.369 8.27589 24.6912 7.99511 23.9844 7.99511H20.773L18.1079 5.33008H12.538Z" fill="black"/>
</svg>
