<svg width="177" height="55" viewBox="0 0 177 55" fill="none" xmlns="http://www.w3.org/2000/svg">
<rect width="107" height="21" transform="matrix(-1 0 0 1 157 24)" fill="#636363"/>
<path d="M155.872 10.8008C154.567 11.3305 154.667 13.2101 156.02 13.599L162.851 15.5631L165.971 21.9494C166.589 23.2147 168.458 22.9861 168.754 21.6092L171.933 6.77836C171.99 6.51475 171.974 6.24064 171.887 5.98551C171.799 5.73038 171.644 5.50389 171.438 5.33041C171.231 5.15693 170.981 5.04303 170.715 5.00095C170.449 4.95888 170.176 4.99022 169.926 5.09161L155.872 10.8008Z" fill="white" stroke="black" stroke-width="2"/>
<path d="M3.816 24.056H14.424V20.648H3.816V24.056ZM3.816 31.256H14.424V27.848H3.816V31.256ZM0.024 35.048V16.856H14.616V20.456H18.216V31.448H14.616V35.048H0.024ZM22.3365 35.048V16.856H26.1285V31.256H40.5285V35.048H22.3365ZM46.5426 24.056H57.1506V20.648H46.5426V24.056ZM42.7506 35.048V20.456H46.3506V16.856H57.3426V20.456H60.9426V35.048H57.1506V27.848H46.5426V35.048H42.7506ZM65.2974 35.048V16.856H69.0894V24.056H79.6974V16.856H83.4894V35.048H79.6974V27.848H69.0894V35.048H65.2974ZM91.6598 24.056H102.268V20.648H91.6598V24.056ZM91.6598 31.256H102.268V27.848H91.6598V31.256ZM87.8678 35.048V16.856H102.46V20.456H106.06V31.448H102.46V35.048H87.8678ZM110.18 35.048V16.856H113.972V31.256H128.372V35.048H110.18ZM134.386 24.056H144.994V20.648H134.386V24.056ZM130.594 35.048V20.456H134.194V16.856H145.186V20.456H148.786V35.048H144.994V27.848H134.386V35.048H130.594Z" fill="black"/>
</svg>
