<svg width="20" height="20" viewBox="0 0 20 20" fill="none" xmlns="http://www.w3.org/2000/svg">
<path d="M7.61124 0C9.62987 0 11.5658 0.801427 12.9932 2.22798C14.4206 3.65453 15.2225 5.58934 15.2225 7.60679C15.2225 9.50263 14.5316 11.2346 13.3841 12.557L20 19.1691L19.1686 20L12.5527 13.3879C11.1771 14.5677 9.42388 15.2154 7.61124 15.2136C5.59261 15.2136 3.65667 14.4121 2.22928 12.9856C0.801896 11.559 0 9.62423 0 7.60679C0 5.58934 0.801896 3.65453 2.22928 2.22798C3.65667 0.801427 5.59261 0 7.61124 0ZM7.61124 1.17027C5.90317 1.17027 4.26506 1.84841 3.05728 3.05549C1.84949 4.26257 1.17096 5.89972 1.17096 7.60679C1.17096 9.31386 1.84949 10.951 3.05728 12.1581C4.26506 13.3652 5.90317 14.0433 7.61124 14.0433C8.45699 14.0433 9.29446 13.8768 10.0758 13.5533C10.8572 13.2299 11.5672 12.7558 12.1652 12.1581C12.7632 11.5604 13.2376 10.8508 13.5613 10.0699C13.8849 9.28902 14.0515 8.45204 14.0515 7.60679C14.0515 6.76153 13.8849 5.92455 13.5613 5.14364C13.2376 4.36273 12.7632 3.65317 12.1652 3.05549C11.5672 2.4578 10.8572 1.98369 10.0758 1.66023C9.29446 1.33676 8.45699 1.17027 7.61124 1.17027Z" fill="black"/>
</svg>
