<svg width="54" height="54" viewBox="0 0 54 54" fill="none" xmlns="http://www.w3.org/2000/svg">
<path d="M21.9601 52.415C17.6401 51.695 13.6081 50.039 10.1521 47.375C3.74409 42.623 8.59238e-05 34.991 0.288086 26.999C0.432086 22.175 2.01609 17.495 4.75209 13.463C3.88809 9.86303 3.60009 5.32703 4.96809 1.94303C5.54409 0.719029 6.62409 -0.000970364 7.99209 0.0710287C10.8721 0.143028 14.0401 1.79903 16.4881 3.38303C18.7921 2.37503 21.2401 1.72703 23.7601 1.51103C25.7761 1.29503 27.7201 1.29503 29.8081 1.51103C32.2561 1.79903 34.6321 2.37503 37.0081 3.38303C39.5281 1.79903 42.6241 0.0710287 45.6481 0.0710287C46.8721 -0.000970364 47.8801 0.64703 48.4561 1.79903C49.8961 4.96703 49.6801 9.93503 48.8161 13.463C49.8961 15.263 50.9041 16.991 51.6241 18.935C53.0641 23.039 53.5681 27.359 52.9201 31.679C51.9841 37.079 49.3921 41.903 45.5041 45.575C39.1681 51.479 30.4561 53.783 21.9601 52.415ZM32.2561 51.335C38.2321 50.183 43.8481 46.799 47.5921 41.831L44.9281 39.815C44.3521 39.383 44.2801 38.591 44.6401 38.015C45.0001 37.583 45.7201 37.223 46.2961 37.655L49.0321 39.599C50.7601 36.719 51.7681 33.623 52.1281 30.311L48.3121 30.239C47.5921 30.239 47.1601 29.519 47.1601 28.943C47.1601 28.367 47.6641 27.719 48.3121 27.719L52.2721 27.647C52.2001 24.191 51.4801 21.023 50.1841 17.855L48.3121 19.439C47.6641 19.943 46.9441 20.015 46.3681 19.439C45.8641 18.935 45.8641 18.071 46.5121 17.567L48.9601 15.551L47.8081 13.679L48.3841 10.511C48.8161 8.27903 48.6001 3.95903 47.5201 2.01503C47.0881 1.22303 46.2961 0.863027 45.4321 0.93503C42.6961 1.15103 39.5281 2.87903 37.1521 4.46303C30.6721 1.51103 22.8241 1.51103 16.3441 4.46303C14.1121 2.87903 10.5121 1.00703 7.77609 0.93503C6.19209 0.93503 5.61609 2.51903 5.32809 3.88703C4.82409 6.26303 4.75209 8.63903 5.18409 11.015L5.68809 13.679L4.53609 15.551L6.91209 17.423C7.56009 17.927 7.70409 18.647 7.27209 19.223C6.84009 19.799 6.04809 20.087 5.47209 19.583L3.31209 17.927C1.94409 21.023 1.22409 24.263 1.22409 27.719H4.75209C5.47209 27.719 5.97609 28.367 5.97609 29.015C5.90409 29.735 5.32809 30.239 4.60809 30.239L1.29609 30.311C1.65609 33.551 2.66409 36.647 4.39209 39.455L6.84009 37.655C7.41609 37.223 8.20809 37.583 8.49609 38.087C8.85609 38.663 8.78409 39.383 8.28009 39.815L5.76009 41.687C9.36009 46.511 14.5441 49.823 20.4481 51.191C24.3361 52.055 28.3681 52.127 32.2561 51.335ZM29.0881 44.927C22.8961 45.791 16.9201 43.127 13.3201 38.159C7.70409 30.527 10.0801 19.439 18.4321 14.903C19.6561 14.255 21.0241 14.687 21.6721 15.839C22.3201 17.063 21.7441 18.431 20.5921 19.079C17.3521 20.951 15.3361 24.191 14.9761 27.791C14.4721 33.623 18.3601 38.663 24.0481 40.103C29.8801 41.471 36.0001 38.159 37.9441 32.471C39.7441 27.359 37.5841 21.815 32.9041 19.079C31.8241 18.431 31.3201 17.207 31.8961 15.983C32.4001 14.903 33.7681 14.255 34.9921 14.903C42.1921 18.719 45.0721 27.503 42.0481 34.919C39.8161 40.391 34.7041 44.135 29.0881 44.927ZM7.48809 11.087C6.98409 9.07103 6.69609 6.47903 7.34409 4.60703C8.06409 2.80703 10.0801 3.52703 11.3761 4.17503C12.2401 4.60703 12.9601 5.11103 13.7521 5.75903C11.3041 7.19903 9.36009 8.85503 7.48809 11.087ZM26.7841 26.423C25.2001 26.495 23.8321 25.199 23.8321 23.471V12.455C23.8321 10.871 25.2721 9.64703 26.7121 9.64703C28.2241 9.64703 29.6641 10.871 29.6641 12.455L29.7361 23.471C29.7361 25.199 28.3681 26.423 26.7841 26.423ZM46.0801 11.159C44.2801 8.99903 42.2641 7.27103 39.8161 5.75903C41.1841 4.53503 45.3601 1.94303 46.2241 4.67903C46.8001 6.69503 46.5121 8.99903 46.0801 11.159Z" fill="#00156A"/>
</svg>
