<svg width="18" height="20" viewBox="0 0 18 20" fill="none" xmlns="http://www.w3.org/2000/svg">
<path fill-rule="evenodd" clip-rule="evenodd" d="M6.3 0C5.82261 0 5.36477 0.191558 5.02721 0.532533C4.68964 0.873508 4.5 1.33597 4.5 1.81818V3.63636H0V5.45455H2.7V20H15.3V5.45455H18V3.63636H13.5V1.81818C13.5 1.33597 13.3104 0.873508 12.9728 0.532533C12.6352 0.191558 12.1774 0 11.7 0H6.3ZM11.7 3.63636V1.81818H6.3V3.63636H11.7ZM4.5 5.45455H13.5V18.1818H4.5V5.45455ZM6.3 7.27273H8.1V16.3636H6.3V7.27273ZM11.7 7.27273H9.9V16.3636H11.7V7.27273Z" fill="black"/>
</svg>
