<svg width="127" height="55" viewBox="0 0 127 55" fill="none" xmlns="http://www.w3.org/2000/svg">
<rect x="20" y="24" width="107" height="21" fill="#C6E400"/>
<path d="M21.128 15.1996C22.4323 14.6698 22.3327 12.7903 20.9796 12.4013L14.1492 10.4373L11.0292 4.051C10.4106 2.78567 8.54183 3.01425 8.24608 4.39117L5.0665 19.222C5.00968 19.4856 5.02581 19.7597 5.11315 20.0149C5.2005 20.27 5.35575 20.4965 5.56221 20.67C5.76867 20.8434 6.01852 20.9573 6.28488 20.9994C6.55124 21.0415 6.82404 21.0101 7.07392 20.9088L21.128 15.1996Z" fill="white" stroke="#1A1A1A" stroke-width="2"/>
<path d="M26.024 35.048V31.256H29.624V27.656H33.224V24.056H40.424V20.648H29.816V24.248H26.024V20.456H29.624V16.856H40.616V20.456H44.216V24.248H40.616V27.848H33.416V31.256H44.216V35.048H26.024ZM51.7535 31.256H62.3615V20.648H51.7535V31.256ZM51.5615 35.048V31.448H47.9615V20.456H51.5615V16.856H62.5535V20.456H66.1535V31.448H62.5535V35.048H51.5615ZM70.274 35.048V31.256H73.874V27.656H77.474V24.056H84.674V20.648H74.066V24.248H70.274V20.456H73.874V16.856H84.866V20.456H88.466V24.248H84.866V27.848H77.666V31.256H88.466V35.048H70.274ZM96.0035 31.256H106.612V27.848H96.0035V31.256ZM95.8115 35.048V31.448H92.2115V20.456H95.8115V16.856H110.404V20.648H96.0035V24.056H106.804V27.656H110.404V31.448H106.804V35.048H95.8115Z" fill="#1A1A1A"/>
</svg>
