<svg width="63" height="49" viewBox="0 0 63 49" fill="none" xmlns="http://www.w3.org/2000/svg">
<path d="M28.8818 0H33.9062C34.7493 0.136719 35.1709 0.558268 35.1709 1.26465V13.8086H55.2686V8.16895C55.3825 7.32585 55.7926 6.9043 56.499 6.9043H61.5234C62.3665 7.04102 62.7881 7.46257 62.7881 8.16895V47.7148C62.7881 48.5579 62.3665 48.9795 61.5234 48.9795H56.499C55.6787 48.9795 55.2686 48.5579 55.2686 47.7148V42.0752H48.9795V47.7148C48.9795 48.5579 48.5579 48.9795 47.7148 48.9795H42.6904C41.8701 48.9795 41.46 48.5579 41.46 47.7148V42.0752H35.1709V47.7148C35.1709 48.5579 34.7493 48.9795 33.9062 48.9795H28.8818C28.0387 48.9795 27.6172 48.5579 27.6172 47.7148V42.0752H21.3623V47.7148C21.3623 48.5579 20.9408 48.9795 20.0977 48.9795H15.0732C14.2301 48.9795 13.8086 48.5579 13.8086 47.7148V35.1709H1.26465C0.421549 35.1709 0 34.7493 0 33.9062V15.0732C0.136719 14.2301 0.558268 13.8086 1.26465 13.8086H13.8086V8.16895C13.9453 7.32585 14.3669 6.9043 15.0732 6.9043H27.6172V1.26465C27.7539 0.421549 28.1755 0 28.8818 0ZM14.458 14.458V20.7129H20.7129V14.458H14.458Z" fill="#00156A"/>
</svg>
