<svg width="117" height="128" viewBox="0 0 117 128" fill="none" xmlns="http://www.w3.org/2000/svg">
<path d="M0 90.2188V76.4688H6.875V69.5938H13.75V62.7188H34.375V117.719H13.75V90.2188H0ZM41.25 117.719V90.2188H48.125V83.3438H89.375V76.4688H41.25V62.7188H103.125V69.5938H110V90.2188H103.125V97.0938H61.875V103.969H110V117.719H41.25Z" fill="#00156A"/>
<path d="M42.5625 0H57.4688C58.1562 0.104167 58.5 0.447917 58.5 1.03125V5.65625H63.625V1.03125C63.7292 0.34375 64.0729 0 64.6562 0H79.5625C80.25 0.104167 80.5938 0.447917 80.5938 1.03125V5.65625H85.2188C85.9062 5.76042 86.25 6.10417 86.25 6.6875V21.5938C86.25 22.2812 85.9062 22.625 85.2188 22.625H80.5938V27.25C80.5938 27.9375 80.25 28.2812 79.5625 28.2812H74.9375V32.9062C74.9375 33.5938 74.5938 33.9375 73.9062 33.9375H69.8125V38.0312C69.8125 38.7188 69.4688 39.0625 68.7812 39.0625H64.1562V43.6875C64.1562 44.375 63.8125 44.7188 63.125 44.7188H59.5312C58.8438 44.7188 58.5 44.375 58.5 43.6875V39.0625H53.875C53.1875 39.0625 52.8438 38.7188 52.8438 38.0312V33.9375H48.2188C47.5312 33.9375 47.1875 33.5938 47.1875 32.9062V28.2812H42.5625C41.875 28.2812 41.5312 27.9375 41.5312 27.25V22.625H36.9062C36.2188 22.625 35.875 22.2812 35.875 21.5938V6.6875C35.9792 6 36.3229 5.65625 36.9062 5.65625H41.5312V1.03125C41.6354 0.34375 41.9792 0 42.5625 0Z" fill="#00156A"/>
</svg>
