<svg width="56" height="56" viewBox="0 0 56 56" fill="none" xmlns="http://www.w3.org/2000/svg">
<path d="M1.13281 0H17.5C18.2552 0.130208 18.6328 0.507812 18.6328 1.13281V31.0938H54.8047C55.5599 31.1979 55.9375 31.5625 55.9375 32.1875V36.1719C55.9375 36.9271 55.5599 37.3047 54.8047 37.3047H49.7266V54.8047C49.7266 55.5599 49.349 55.9375 48.5938 55.9375H43.5156V50.8594C43.5156 50.1042 43.138 49.7266 42.3828 49.7266H18.6328V54.8047C18.6328 55.5599 18.2552 55.9375 17.5 55.9375H13.0078C12.2526 55.9375 11.875 55.5599 11.875 54.8047C11.875 26.9661 11.875 12.8385 11.875 12.4219H0.0390625L0 10.7422V1.13281C0.130208 0.377604 0.507812 0 1.13281 0Z" fill="#00156A"/>
</svg>
