<svg width="438" height="48" viewBox="0 0 438 48" fill="none" xmlns="http://www.w3.org/2000/svg">
<path d="M191.096 43.032H185.24V40.152H182.264V34.296H185.24V31.32H191.096V34.296H193.976V40.152H191.096V43.032Z" fill="#00156A"/>
<path d="M391.096 43.032H385.24V40.152H382.264V34.296H385.24V31.32H391.096V34.296H393.976V40.152H391.096V43.032Z" fill="#00156A"/>
<path d="M32.096 43.032H26.24V40.152H23.264V34.296H26.24V31.32H32.096V34.296H34.976V40.152H32.096V43.032Z" fill="#00156A"/>
<path d="M251.096 43.032H245.24V40.152H242.264V34.296H245.24V31.32H251.096V34.296H253.976V40.152H251.096V43.032Z" fill="#00156A"/>
<path d="M72.096 43.032H66.24V40.152H63.264V34.296H66.24V31.32H72.096V34.296H74.976V40.152H72.096V43.032Z" fill="#00156A"/>
<path d="M291.096 43.032H285.24V40.152H282.264V34.296H285.24V31.32H291.096V34.296H293.976V40.152H291.096V43.032Z" fill="#00156A"/>
<path d="M91.096 43.032H85.24V40.152H82.264V34.296H85.24V31.32H91.096V34.296H93.976V40.152H91.096V43.032Z" fill="#00156A"/>
<path d="M111.096 43.032H105.24V40.152H102.264V34.296H105.24V31.32H111.096V34.296H113.976V40.152H111.096V43.032Z" fill="#00156A"/>
<path d="M311.096 43.032H305.24V40.152H302.264V34.296H305.24V31.32H311.096V34.296H313.976V40.152H311.096V43.032Z" fill="#00156A"/>
<path d="M131.096 43.032H125.24V40.152H122.264V34.296H125.24V31.32H131.096V34.296H133.976V40.152H131.096V43.032Z" fill="#00156A"/>
<path d="M331.096 43.032H325.24V40.152H322.264V34.296H325.24V31.32H331.096V34.296H333.976V40.152H331.096V43.032Z" fill="#00156A"/>
<path d="M52.096 43.032H46.24V40.152H43.264V34.296H46.24V31.32H52.096V34.296H54.976V40.152H52.096V43.032Z" fill="#00156A"/>
<path d="M271.096 43.032H265.24V40.152H262.264V34.296H265.24V31.32H271.096V34.296H273.976V40.152H271.096V43.032Z" fill="#00156A"/>
<path d="M151.096 43.032H145.24V40.152H142.264V34.296H145.24V31.32H151.096V34.296H153.976V40.152H151.096V43.032Z" fill="#00156A"/>
<path d="M351.096 43.032H345.24V40.152H342.264V34.296H345.24V31.32H351.096V34.296H353.976V40.152H351.096V43.032Z" fill="#00156A"/>
<path d="M211.096 43.032H205.24V40.152H202.264V34.296H205.24V31.32H211.096V34.296H213.976V40.152H211.096V43.032Z" fill="#00156A"/>
<path d="M411.096 43.032H405.24V40.152H402.264V34.296H405.24V31.32H411.096V34.296H413.976V40.152H411.096V43.032Z" fill="#00156A"/>
<path d="M171.096 43.032H165.24V40.152H162.264V34.296H165.24V31.32H171.096V34.296H173.976V40.152H171.096V43.032Z" fill="#00156A"/>
<path d="M371.096 43.032H365.24V40.152H362.264V34.296H365.24V31.32H371.096V34.296H373.976V40.152H371.096V43.032Z" fill="#00156A"/>
<path d="M12.096 43.032H6.24V40.152H3.264V34.296H6.24V31.32H12.096V34.296H14.976V40.152H12.096V43.032Z" fill="#00156A"/>
<path d="M231.096 43.032H225.24V40.152H222.264V34.296H225.24V31.32H231.096V34.296H233.976V40.152H231.096V43.032Z" fill="#00156A"/>
<path d="M431.096 43.032H425.24V40.152H422.264V34.296H425.24V31.32H431.096V34.296H433.976V40.152H431.096V43.032Z" fill="#00156A"/>
</svg>
