<svg width="309" height="240" viewBox="0 0 309 240" fill="none" xmlns="http://www.w3.org/2000/svg">
<path d="M72.096 43.032H66.24V40.152H63.264V34.296H66.24V31.32H72.096V34.296H74.976V40.152H72.096V43.032Z" fill="#00156A"/>
<path d="M32.096 43.032H26.24V40.152H23.264V34.296H26.24V31.32H32.096V34.296H34.976V40.152H32.096V43.032Z" fill="#00156A"/>
<path d="M92.096 43.032H86.24V40.152H83.264V34.296H86.24V31.32H92.096V34.296H94.976V40.152H92.096V43.032Z" fill="#00156A"/>
<path d="M52.096 43.032H46.24V40.152H43.264V34.296H46.24V31.32H52.096V34.296H54.976V40.152H52.096V43.032Z" fill="#00156A"/>
<path d="M12.096 43.032H6.24V40.152H3.264V34.296H6.24V31.32H12.096V34.296H14.976V40.152H12.096V43.032Z" fill="#00156A"/>
<path d="M112.096 43.032H106.24V40.152H103.264V34.296H106.24V31.32H112.096V34.296H114.976V40.152H112.096V43.032Z" fill="#00156A"/>
<path d="M132.096 43.032H126.24V40.152H123.264V34.296H126.24V31.32H132.096V34.296H134.976V40.152H132.096V43.032Z" fill="#00156A"/>
<path d="M152.096 43.032H146.24V40.152H143.264V34.296H146.24V31.32H152.096V34.296H154.976V40.152H152.096V43.032Z" fill="#00156A"/>
<path d="M163.096 196.968H157.24V199.848H154.264V205.704H157.24V208.68H163.096V205.704H165.976V199.848H163.096V196.968Z" fill="#00156A"/>
<path d="M183.096 196.968H177.24V199.848H174.264V205.704H177.24V208.68H183.096V205.704H185.976V199.848H183.096V196.968Z" fill="#00156A"/>
<path d="M194.096 30.968H188.24V33.848H185.264V39.704H188.24V42.68H194.096V39.704H196.976V33.848H194.096V30.968Z" fill="#00156A"/>
<path d="M204.096 195.968H198.24V198.848H195.264V204.704H198.24V207.68H204.096V204.704H206.976V198.848H204.096V195.968Z" fill="#00156A"/>
<path d="M143.096 196.968H137.24V199.848H134.264V205.704H137.24V208.68H143.096V205.704H145.976V199.848H143.096V196.968Z" fill="#00156A"/>
<path d="M123.096 196.968H117.24V199.848H114.264V205.704H117.24V208.68H123.096V205.704H125.976V199.848H123.096V196.968Z" fill="#00156A"/>
<path d="M225.096 194.968H219.24V197.848H216.264V203.704H219.24V206.68H225.096V203.704H227.976V197.848H225.096V194.968Z" fill="#00156A"/>
<path d="M248.096 189.968H242.24V192.848H239.264V198.704H242.24V201.68H248.096V198.704H250.976V192.848H248.096V189.968Z" fill="#00156A"/>
<path d="M272.096 181.968H266.24V184.848H263.264V190.704H266.24V193.68H272.096V190.704H274.976V184.848H272.096V181.968Z" fill="#00156A"/>
<path d="M302.096 107.968H296.24V110.848H293.264V116.704H296.24V119.68H302.096V116.704H304.976V110.848H302.096V107.968Z" fill="#00156A"/>
<path d="M298.096 80.968H292.24V83.848H289.264V89.704H292.24V92.68H298.096V89.704H300.976V83.848H298.096V80.968Z" fill="#00156A"/>
<path d="M216.096 30.968H210.24V33.848H207.264V39.704H210.24V42.68H216.096V39.704H218.976V33.848H216.096V30.968Z" fill="#00156A"/>
<path d="M240.096 33.968H234.24V36.848H231.264V42.704H234.24V45.68H240.096V42.704H242.976V36.848H240.096V33.968Z" fill="#00156A"/>
<path d="M264.096 42.968H258.24V45.848H255.264V51.704H258.24V54.68H264.096V51.704H266.976V45.848H264.096V42.968Z" fill="#00156A"/>
<path d="M285.096 57.968H279.24V60.848H276.264V66.704H279.24V69.68H285.096V66.704H287.976V60.848H285.096V57.968Z" fill="#00156A"/>
<path d="M300.096 135.968H294.24V138.848H291.264V144.704H294.24V147.68H300.096V144.704H302.976V138.848H300.096V135.968Z" fill="#00156A"/>
<path d="M291.096 161.968H285.24V164.848H282.264V170.704H285.24V173.68H291.096V170.704H293.976V164.848H291.096V161.968Z" fill="#00156A"/>
<path d="M172.096 30.968H166.24V33.848H163.264V39.704H166.24V42.68H172.096V39.704H174.976V33.848H172.096V30.968Z" fill="#00156A"/>
</svg>
