<svg width="347" height="204" viewBox="0 0 347 204" fill="none" xmlns="http://www.w3.org/2000/svg">
<path d="M32.096 199.032H26.24V196.152H23.264V190.296H26.24V187.32H32.096V190.296H34.976V196.152H32.096V199.032Z" fill="#00156A"/>
<path d="M245.096 43.032H239.24V40.152H236.264V34.296H239.24V31.32H245.096V34.296H247.976V40.152H245.096V43.032Z" fill="#00156A"/>
<path d="M172.096 199.032H166.24V196.152H163.264V190.296H166.24V187.32H172.096V190.296H174.976V196.152H172.096V199.032Z" fill="#00156A"/>
<path d="M232.096 199.032H226.24V196.152H223.264V190.296H226.24V187.32H232.096V190.296H234.976V196.152H232.096V199.032Z" fill="#00156A"/>
<path d="M52.096 199.032H46.24V196.152H43.264V190.296H46.24V187.32H52.096V190.296H54.976V196.152H52.096V199.032Z" fill="#00156A"/>
<path d="M265.096 44.032H259.24V41.152H256.264V35.296H259.24V32.32H265.096V35.296H267.976V41.152H265.096V44.032Z" fill="#00156A"/>
<path d="M12.096 199.032H6.24V196.152H3.264V190.296H6.24V187.32H12.096V190.296H14.976V196.152H12.096V199.032Z" fill="#00156A"/>
<path d="M225.096 43.032H219.24V40.152H216.264V34.296H219.24V31.32H225.096V34.296H227.976V40.152H225.096V43.032Z" fill="#00156A"/>
<path d="M72.096 199.032H66.24V196.152H63.264V190.296H66.24V187.32H72.096V190.296H74.976V196.152H72.096V199.032Z" fill="#00156A"/>
<path d="M287.096 46.032H281.24V43.152H278.264V37.296H281.24V34.32H287.096V37.296H289.976V43.152H287.096V46.032Z" fill="#00156A"/>
<path d="M92.096 199.032H86.24V196.152H83.264V190.296H86.24V187.32H92.096V190.296H94.976V196.152H92.096V199.032Z" fill="#00156A"/>
<path d="M309.096 56.032H303.24V53.152H300.264V47.296H303.24V44.32H309.096V47.296H311.976V53.152H309.096V56.032Z" fill="#00156A"/>
<path d="M112.096 199.032H106.24V196.152H103.264V190.296H106.24V187.32H112.096V190.296H114.976V196.152H112.096V199.032Z" fill="#00156A"/>
<path d="M327.096 73.032H321.24V70.152H318.264V64.296H321.24V61.32H327.096V64.296H329.976V70.152H327.096V73.032Z" fill="#00156A"/>
<path d="M340.096 124.032H334.24V121.152H331.264V115.296H334.24V112.32H340.096V115.296H342.976V121.152H340.096V124.032Z" fill="#00156A"/>
<path d="M337.096 149.032H331.24V146.152H328.264V140.296H331.24V137.32H337.096V140.296H339.976V146.152H337.096V149.032Z" fill="#00156A"/>
<path d="M256.096 199.032H250.24V196.152H247.264V190.296H250.24V187.32H256.096V190.296H258.976V196.152H256.096V199.032Z" fill="#00156A"/>
<path d="M280.096 196.032H274.24V193.152H271.264V187.296H274.24V184.32H280.096V187.296H282.976V193.152H280.096V196.032Z" fill="#00156A"/>
<path d="M304.096 187.032H298.24V184.152H295.264V178.296H298.24V175.32H304.096V178.296H306.976V184.152H304.096V187.032Z" fill="#00156A"/>
<path d="M325.096 172.032H319.24V169.152H316.264V163.296H319.24V160.32H325.096V163.296H327.976V169.152H325.096V172.032Z" fill="#00156A"/>
<path d="M337.096 97.032H331.24V94.152H328.264V88.296H331.24V85.32H337.096V88.296H339.976V94.152H337.096V97.032Z" fill="#00156A"/>
<path d="M132.096 199.032H126.24V196.152H123.264V190.296H126.24V187.32H132.096V190.296H134.976V196.152H132.096V199.032Z" fill="#00156A"/>
<path d="M192.096 199.032H186.24V196.152H183.264V190.296H186.24V187.32H192.096V190.296H194.976V196.152H192.096V199.032Z" fill="#00156A"/>
<path d="M152.096 199.032H146.24V196.152H143.264V190.296H146.24V187.32H152.096V190.296H154.976V196.152H152.096V199.032Z" fill="#00156A"/>
<path d="M212.096 199.032H206.24V196.152H203.264V190.296H206.24V187.32H212.096V190.296H214.976V196.152H212.096V199.032Z" fill="#00156A"/>
</svg>
