<svg width="319" height="48" viewBox="0 0 319 48" fill="none" xmlns="http://www.w3.org/2000/svg">
<path d="M72.096 43.032H66.24V40.152H63.264V34.296H66.24V31.32H72.096V34.296H74.976V40.152H72.096V43.032Z" fill="#00156A"/>
<path d="M32.096 43.032H26.24V40.152H23.264V34.296H26.24V31.32H32.096V34.296H34.976V40.152H32.096V43.032Z" fill="#00156A"/>
<path d="M212.096 43.032H206.24V40.152H203.264V34.296H206.24V31.32H212.096V34.296H214.976V40.152H212.096V43.032Z" fill="#00156A"/>
<path d="M272.096 43.032H266.24V40.152H263.264V34.296H266.24V31.32H272.096V34.296H274.976V40.152H272.096V43.032Z" fill="#00156A"/>
<path d="M312.096 43.032H306.24V40.152H303.264V34.296H306.24V31.32H312.096V34.296H314.976V40.152H312.096V43.032Z" fill="#00156A"/>
<path d="M92.096 43.032H86.24V40.152H83.264V34.296H86.24V31.32H92.096V34.296H94.976V40.152H92.096V43.032Z" fill="#00156A"/>
<path d="M52.096 43.032H46.24V40.152H43.264V34.296H46.24V31.32H52.096V34.296H54.976V40.152H52.096V43.032Z" fill="#00156A"/>
<path d="M12.096 43.032H6.24V40.152H3.264V34.296H6.24V31.32H12.096V34.296H14.976V40.152H12.096V43.032Z" fill="#00156A"/>
<path d="M112.096 43.032H106.24V40.152H103.264V34.296H106.24V31.32H112.096V34.296H114.976V40.152H112.096V43.032Z" fill="#00156A"/>
<path d="M132.096 43.032H126.24V40.152H123.264V34.296H126.24V31.32H132.096V34.296H134.976V40.152H132.096V43.032Z" fill="#00156A"/>
<path d="M152.096 43.032H146.24V40.152H143.264V34.296H146.24V31.32H152.096V34.296H154.976V40.152H152.096V43.032Z" fill="#00156A"/>
<path d="M292.096 43.032H286.24V40.152H283.264V34.296H286.24V31.32H292.096V34.296H294.976V40.152H292.096V43.032Z" fill="#00156A"/>
<path d="M172.096 43.032H166.24V40.152H163.264V34.296H166.24V31.32H172.096V34.296H174.976V40.152H172.096V43.032Z" fill="#00156A"/>
<path d="M232.096 43.032H226.24V40.152H223.264V34.296H226.24V31.32H232.096V34.296H234.976V40.152H232.096V43.032Z" fill="#00156A"/>
<path d="M192.096 43.032H186.24V40.152H183.264V34.296H186.24V31.32H192.096V34.296H194.976V40.152H192.096V43.032Z" fill="#00156A"/>
<path d="M252.096 43.032H246.24V40.152H243.264V34.296H246.24V31.32H252.096V34.296H254.976V40.152H252.096V43.032Z" fill="#00156A"/>
</svg>
