<svg width="363" height="212" viewBox="0 0 363 212" fill="none" xmlns="http://www.w3.org/2000/svg">
<path d="M311.904 4.968H317.76V7.848H320.736V13.704H317.76V16.68H311.904V13.704H309.024V7.848H311.904V4.968Z" fill="#00156A"/>
<path d="M103.904 168.968H109.76V171.848H112.736V177.704H109.76V180.68H103.904V177.704H101.024V171.848H103.904V168.968Z" fill="#00156A"/>
<path d="M111.904 4.968H117.76V7.848H120.736V13.704H117.76V16.68H111.904V13.704H109.024V7.848H111.904V4.968Z" fill="#00156A"/>
<path d="M171.904 4.968H177.76V7.848H180.736V13.704H177.76V16.68H171.904V13.704H169.024V7.848H171.904V4.968Z" fill="#00156A"/>
<path d="M79.904 166.968H85.76V169.848H88.736V175.704H85.76V178.68H79.904V175.704H77.024V169.848H79.904V166.968Z" fill="#00156A"/>
<path d="M291.904 4.968H297.76V7.848H300.736V13.704H297.76V16.68H291.904V13.704H289.024V7.848H291.904V4.968Z" fill="#00156A"/>
<path d="M126.904 168.968H132.76V171.848H135.736V177.704H132.76V180.68H126.904V177.704H124.024V171.848H126.904V168.968Z" fill="#00156A"/>
<path d="M56.904 160.968H62.76V163.848H65.736V169.704H62.76V172.68H56.904V169.704H54.024V163.848H56.904V160.968Z" fill="#00156A"/>
<path d="M331.904 4.968H337.76V7.848H340.736V13.704H337.76V16.68H331.904V13.704H329.024V7.848H331.904V4.968Z" fill="#00156A"/>
<path d="M34.904 151.968H40.76V154.848H43.736V160.704H40.76V163.68H34.904V160.704H32.024V154.848H34.904V151.968Z" fill="#00156A"/>
<path d="M350.904 4.968H356.76V7.848H359.736V13.704H356.76V16.68H350.904V13.704H348.024V7.848H350.904V4.968Z" fill="#00156A"/>
<path d="M16.904 134.968H22.76V137.848H25.736V143.704H22.76V146.68H16.904V143.704H14.024V137.848H16.904V134.968Z" fill="#00156A"/>
<path d="M6.904 57.968H12.76V60.848H15.736V66.704H12.76V69.68H6.904V66.704H4.024V60.848H6.904V57.968Z" fill="#00156A"/>
<path d="M87.904 6.968H93.76V9.848H96.736V15.704H93.76V18.68H87.904V15.704H85.024V9.848H87.904V6.968Z" fill="#00156A"/>
<path d="M63.904 11.968H69.76V14.848H72.736V20.704H69.76V23.68H63.904V20.704H61.024V14.848H63.904V11.968Z" fill="#00156A"/>
<path d="M39.904 20.968H45.76V23.848H48.736V29.704H45.76V32.68H39.904V29.704H37.024V23.848H39.904V20.968Z" fill="#00156A"/>
<path d="M18.904 34.968H24.76V37.848H27.736V43.704H24.76V46.68H18.904V43.704H16.024V37.848H18.904V34.968Z" fill="#00156A"/>
<path d="M271.904 4.968H277.76V7.848H280.736V13.704H277.76V16.68H271.904V13.704H269.024V7.848H271.904V4.968Z" fill="#00156A"/>
<path d="M131.904 4.968H137.76V7.848H140.736V13.704H137.76V16.68H131.904V13.704H129.024V7.848H131.904V4.968Z" fill="#00156A"/>
<path d="M251.904 4.968H257.76V7.848H260.736V13.704H257.76V16.68H251.904V13.704H249.024V7.848H251.904V4.968Z" fill="#00156A"/>
<path d="M231.904 4.968H237.76V7.848H240.736V13.704H237.76V16.68H231.904V13.704H229.024V7.848H231.904V4.968Z" fill="#00156A"/>
<path d="M211.904 4.968H217.76V7.848H220.736V13.704H217.76V16.68H211.904V13.704H209.024V7.848H211.904V4.968Z" fill="#00156A"/>
<path d="M151.904 4.968H157.76V7.848H160.736V13.704H157.76V16.68H151.904V13.704H149.024V7.848H151.904V4.968Z" fill="#00156A"/>
<path d="M191.904 4.968H197.76V7.848H200.736V13.704H197.76V16.68H191.904V13.704H189.024V7.848H191.904V4.968Z" fill="#00156A"/>
</svg>
