<svg width="420" height="179" viewBox="0 0 420 179" fill="none" xmlns="http://www.w3.org/2000/svg">
<path d="M256.096 147.032H250.24V144.152H247.264V138.296H250.24V135.32H256.096V138.296H258.976V144.152H256.096V147.032Z" fill="#00156A"/>
<path d="M316.096 147.032H310.24V144.152H307.264V138.296H310.24V135.32H316.096V138.296H318.976V144.152H316.096V147.032Z" fill="#00156A"/>
<path d="M356.096 147.032H350.24V144.152H347.264V138.296H350.24V135.32H356.096V138.296H358.976V144.152H356.096V147.032Z" fill="#00156A"/>
<path d="M156.096 148.032H150.24V145.152H147.264V139.296H150.24V136.32H156.096V139.296H158.976V145.152H156.096V148.032Z" fill="#00156A"/>
<path d="M375.096 147.032H369.24V144.152H366.264V138.296H369.24V135.32H375.096V138.296H377.976V144.152H375.096V147.032Z" fill="#00156A"/>
<path d="M394.096 147.032H388.24V144.152H385.264V138.296H388.24V135.32H394.096V138.296H396.976V144.152H394.096V147.032Z" fill="#00156A"/>
<path d="M413.096 147.032H407.24V144.152H404.264V138.296H407.24V135.32H413.096V138.296H415.976V144.152H413.096V147.032Z" fill="#00156A"/>
<path d="M176.096 148.032H170.24V145.152H167.264V139.296H170.24V136.32H176.096V139.296H178.976V145.152H176.096V148.032Z" fill="#00156A"/>
<path d="M196.096 148.032H190.24V145.152H187.264V139.296H190.24V136.32H196.096V139.296H198.976V145.152H196.096V148.032Z" fill="#00156A"/>
<path d="M336.096 147.032H330.24V144.152H327.264V138.296H330.24V135.32H336.096V138.296H338.976V144.152H336.096V147.032Z" fill="#00156A"/>
<path d="M216.096 147.032H210.24V144.152H207.264V138.296H210.24V135.32H216.096V138.296H218.976V144.152H216.096V147.032Z" fill="#00156A"/>
<path d="M276.096 147.032H270.24V144.152H267.264V138.296H270.24V135.32H276.096V138.296H278.976V144.152H276.096V147.032Z" fill="#00156A"/>
<path d="M236.096 147.032H230.24V144.152H227.264V138.296H230.24V135.32H236.096V138.296H238.976V144.152H236.096V147.032Z" fill="#00156A"/>
<path d="M106.904 134.968H112.76V137.848H115.736V143.704H112.76V146.68H106.904V143.704H104.024V137.848H106.904V134.968Z" fill="#00156A"/>
<path d="M108.904 4.968H114.76V7.848H117.736V13.704H114.76V16.68H108.904V13.704H106.024V7.848H108.904V4.968Z" fill="#00156A"/>
<path d="M82.904 132.968H88.76V135.848H91.736V141.704H88.76V144.68H82.904V141.704H80.024V135.848H82.904V132.968Z" fill="#00156A"/>
<path d="M128.904 135.968H134.76V138.848H137.736V144.704H134.76V147.68H128.904V144.704H126.024V138.848H128.904V135.968Z" fill="#00156A"/>
<path d="M59.904 129.968H65.76V132.848H68.736V138.704H65.76V141.68H59.904V138.704H57.024V132.848H59.904V129.968Z" fill="#00156A"/>
<path d="M37.904 122.968H43.76V125.848H46.736V131.704H43.76V134.68H37.904V131.704H35.024V125.848H37.904V122.968Z" fill="#00156A"/>
<path d="M19.904 109.968H25.76V112.848H28.736V118.704H25.76V121.68H19.904V118.704H17.024V112.848H19.904V109.968Z" fill="#00156A"/>
<path d="M6.904 67.968H12.76V70.848H15.736V76.704H12.76V79.68H6.904V76.704H4.024V70.848H6.904V67.968Z" fill="#00156A"/>
<path d="M10.904 44.968H16.76V47.848H19.736V53.704H16.76V56.68H10.904V53.704H8.024V47.848H10.904V44.968Z" fill="#00156A"/>
<path d="M23.904 25.968H29.76V28.848H32.736V34.704H29.76V37.68H23.904V34.704H21.024V28.848H23.904V25.968Z" fill="#00156A"/>
<path d="M87.904 5.968H93.76V8.848H96.736V14.704H93.76V17.68H87.904V14.704H85.024V8.848H87.904V5.968Z" fill="#00156A"/>
<path d="M65.904 8.968H71.76V11.848H74.736V17.704H71.76V20.68H65.904V17.704H63.024V11.848H65.904V8.968Z" fill="#00156A"/>
<path d="M43.904 14.968H49.76V17.848H52.736V23.704H49.76V26.68H43.904V23.704H41.024V17.848H43.904V14.968Z" fill="#00156A"/>
<path d="M9.904 89.968H15.76V92.848H18.736V98.704H15.76V101.68H9.904V98.704H7.024V92.848H9.904V89.968Z" fill="#00156A"/>
<path d="M129.904 4.968H135.76V7.848H138.736V13.704H135.76V16.68H129.904V13.704H127.024V7.848H129.904V4.968Z" fill="#00156A"/>
<path d="M148.904 4.968H154.76V7.848H157.736V13.704H154.76V16.68H148.904V13.704H146.024V7.848H148.904V4.968Z" fill="#00156A"/>
<path d="M296.096 147.032H290.24V144.152H287.264V138.296H290.24V135.32H296.096V138.296H298.976V144.152H296.096V147.032Z" fill="#00156A"/>
</svg>
