<svg width="17" height="60" viewBox="0 0 17 60" fill="none" xmlns="http://www.w3.org/2000/svg">
<path d="M16.2 59.3999L10.8 59.3999L10.8 53.9999L16.2 53.9999L16.2 59.3999ZM16.2 48.5999L10.8 48.5999L10.8 43.1999L16.2 43.1999L16.2 48.5999ZM16.2 37.7999L10.8 37.7999L10.8 32.3999L16.2 32.3999L16.2 37.7999ZM16.2 26.9999L10.8 26.9999L10.8 21.5999L16.2 21.5999L16.2 26.9999ZM16.2 16.1999L10.8 16.1999L10.8 10.7999L16.2 10.7999L16.2 16.1999ZM16.2 5.3999L10.8 5.3999L10.8 -0.000102994L16.2 -0.00010323L16.2 5.3999ZM5.39997 59.3999L-2.81334e-05 59.3999L-2.83694e-05 53.9999L5.39997 53.9999L5.39997 59.3999ZM5.39997 48.5999L-2.86055e-05 48.5999L-2.88415e-05 43.1999L5.39997 43.1999L5.39997 48.5999ZM5.39997 37.7999L-2.90776e-05 37.7999L-2.93136e-05 32.3999L5.39997 32.3999L5.39997 37.7999ZM5.39997 26.9999L-2.95496e-05 26.9999L-2.97857e-05 21.5999L5.39997 21.5999L5.39997 26.9999ZM5.39997 16.1999L-3.00217e-05 16.1999L-3.02578e-05 10.7999L5.39997 10.7999L5.39997 16.1999ZM5.39997 5.3999L-3.04938e-05 5.3999L-3.07298e-05 -0.000102522L5.39997 -0.000102758L5.39997 5.3999Z" fill="#00156A"/>
</svg>
