<svg width="111" height="111" viewBox="0 0 111 111" fill="none" xmlns="http://www.w3.org/2000/svg">
<path d="M103.558 103.549V96.8496H110.291V103.549H103.558ZM103.558 96.8496V89.9795H110.291V96.8496H103.558ZM103.558 89.9795V83.1436H110.291V89.9795H103.558ZM103.558 83.1436V76.2734H110.291V83.1436H103.558ZM103.558 76.2734V69.4375H110.291V76.2734H103.558ZM103.558 69.4375V62.5674H110.291V69.4375H103.558ZM103.558 62.5674V55.6973H110.291V62.5674H103.558ZM103.558 55.6973V48.998H110.291V55.6973H103.558ZM103.558 48.998V42.1279H110.291V48.998H103.558ZM96.7217 48.998V42.1279H103.558V48.998H96.7217ZM103.558 103.549V110.316H96.7217V103.549H103.558ZM96.7217 103.549V96.8496H103.558V103.549H96.7217ZM96.7217 96.8496V89.9795H103.558V96.8496H96.7217ZM96.7217 89.9795V83.1436H103.558V89.9795H96.7217ZM96.7217 83.1436V76.2734H103.558V83.1436H96.7217ZM96.7217 76.2734V69.4375H103.558V76.2734H96.7217ZM96.7217 69.4375V62.5674H103.558V69.4375H96.7217ZM96.7217 62.5674V55.6973H103.558V62.5674H96.7217ZM96.7217 55.6973V48.998H103.558V55.6973H96.7217ZM89.8516 48.998V42.1279H96.7217V48.998H89.8516ZM96.7217 103.549V110.316H89.8516V103.549H96.7217ZM89.8516 103.549V96.8496H96.7217V103.549H89.8516ZM89.8516 96.8496V89.9795H96.7217V96.8496H89.8516ZM89.8516 69.4375V62.5674H96.7217V69.4375H89.8516ZM89.8516 62.5674V55.6973H96.7217V62.5674H89.8516ZM83.0156 48.998V42.1279H89.8516V48.998H83.0156ZM89.8516 103.549V110.316H83.0156V103.549H89.8516ZM83.0156 103.549V96.8496H89.8516V103.549H83.0156ZM83.0156 62.5674V55.6973H89.8516V62.5674H83.0156ZM76.1455 48.998V42.1279H83.0156V48.998H76.1455ZM83.0156 103.549V110.316H76.1455V103.549H83.0156ZM76.1455 103.549V96.8496H83.0156V103.549H76.1455ZM76.1455 89.9795V83.1436H83.0156V89.9795H76.1455ZM76.1455 83.1436V76.2734H83.0156V83.1436H76.1455ZM76.1455 76.2734V69.4375H83.0156V76.2734H76.1455ZM76.1455 62.5674V55.6973H83.0156V62.5674H76.1455ZM69.2754 48.998V42.1279H76.1455V48.998H69.2754ZM76.1455 103.549V110.316H69.2754V103.549H76.1455ZM69.2754 103.549V96.8496H76.1455V103.549H69.2754ZM69.2754 89.9795V83.1436H76.1455V89.9795H69.2754ZM69.2754 83.1436V76.2734H76.1455V83.1436H69.2754ZM69.2754 76.2734V69.4375H76.1455V76.2734H69.2754ZM69.2754 62.5674V55.6973H76.1455V62.5674H69.2754ZM62.5762 48.998V42.1279H69.2754V48.998H62.5762ZM69.2754 103.549V110.316H62.5762V103.549H69.2754ZM62.5762 103.549V96.8496H69.2754V103.549H62.5762ZM62.5762 89.9795V83.1436H69.2754V89.9795H62.5762ZM62.5762 83.1436V76.2734H69.2754V83.1436H62.5762ZM62.5762 76.2734V69.4375H69.2754V76.2734H62.5762ZM62.5762 62.5674V55.6973H69.2754V62.5674H62.5762ZM55.7061 48.998V42.1279H62.5762V48.998H55.7061ZM62.5762 103.549V110.316H55.7061V103.549H62.5762ZM55.7061 103.549V96.8496H62.5762V103.549H55.7061ZM55.7061 83.1436V76.2734H62.5762V83.1436H55.7061ZM55.7061 76.2734V69.4375H62.5762V76.2734H55.7061ZM48.8701 48.998V42.1279H55.7061V48.998H48.8701ZM48.8701 103.549V96.8496H55.7061V103.549H48.8701ZM48.8701 96.8496V89.9795H55.7061V96.8496H48.8701ZM48.8701 83.1436V76.2734H55.7061V83.1436H48.8701ZM48.8701 76.2734V69.4375H55.7061V76.2734H48.8701ZM42 48.998V42.1279H48.8701V48.998H42ZM42 96.8496V89.9795H48.8701V96.8496H42ZM42 89.9795V83.1436H48.8701V89.9795H42ZM42 83.1436V76.2734H48.8701V83.1436H42ZM42 76.2734V69.4375H48.8701V76.2734H42ZM42 69.4375V62.5674H48.8701V69.4375H42ZM42 62.5674V55.6973H48.8701V62.5674H42ZM42 55.6973V48.998H48.8701V55.6973H42Z" fill="#00156A"/>
<path d="M13.0312 0H26.1562C26.7604 0.104167 27.0625 0.40625 27.0625 0.90625V4.96875H12.125V0.90625C12.2292 0.302083 12.5312 0 13.0312 0ZM8.0625 4.96875H12.125V9.03125C12.125 9.63542 11.8229 9.9375 11.2188 9.9375H7.15625V5.875C7.26042 5.27083 7.5625 4.96875 8.0625 4.96875ZM27.0625 4.96875H31.125C31.7292 5.07292 32.0312 5.375 32.0312 5.875V9.9375H27.9688C27.3646 9.9375 27.0625 9.63542 27.0625 9.03125V4.96875ZM3.09375 9.9375H7.15625V29.8438H3.09375C2.48958 29.8438 2.1875 29.5417 2.1875 28.9375V10.8438C2.29167 10.2396 2.59375 9.9375 3.09375 9.9375ZM32.0312 9.9375H36.125C36.7292 10.0417 37.0312 10.3438 37.0312 10.8438V28.9375C37.0312 29.5417 36.7292 29.8438 36.125 29.8438H32.0312V9.9375ZM18.0312 14.9375H21.1875C21.7917 15.0208 22.0938 15.3229 22.0938 15.8438V19.9062H17.125V15.8438C17.2083 15.2396 17.5104 14.9375 18.0312 14.9375ZM13.0312 19.9062H17.125V29.8438H22.0938V19.9062H26.1562C26.7604 19.9896 27.0625 20.2917 27.0625 20.8125V29.8438H32.0312V33.9375C32.0312 34.5417 31.7292 34.8438 31.125 34.8438H27.0625V43.875C27.0625 44.4792 26.7604 44.7812 26.1562 44.7812H13.0312C12.4271 44.7812 12.125 44.4792 12.125 43.875V34.8438H8.0625C7.45833 34.8438 7.15625 34.5417 7.15625 33.9375V29.8438H12.125V20.8125C12.2292 20.2083 12.5312 19.9062 13.0312 19.9062Z" fill="#00156A"/>
</svg>
