<svg width="22" height="20" viewBox="0 0 22 20" fill="none" xmlns="http://www.w3.org/2000/svg">
<path d="M-0.000955948 8.37082L-0.00095607 11.1611L16.2756 11.1611L16.2756 13.9514L18.9884 13.9514L18.9884 11.1611L21.7012 11.1611L21.7012 8.37082L18.9884 8.37082L18.9884 5.58055L16.2756 5.58055L16.2756 8.37082L-0.000955948 8.37082ZM13.5629 2.79027L16.2756 2.79027L16.2756 5.58055L13.5629 5.58055L13.5629 2.79027ZM13.5629 2.79027L10.8501 2.79027L10.8501 -4.74315e-07L13.5629 -3.55736e-07L13.5629 2.79027ZM13.5629 16.7416L16.2756 16.7416L16.2756 13.9514L13.5629 13.9514L13.5629 16.7416ZM13.5629 16.7416L10.8501 16.7416L10.8501 19.5319L13.5629 19.5319L13.5629 16.7416Z" fill="#C6E400"/>
</svg>
