<svg width="45" height="45" viewBox="0 0 45 45" fill="none" xmlns="http://www.w3.org/2000/svg">
<path d="M15.5312 0H29.25C29.8542 0.104167 30.1562 0.40625 30.1562 0.90625V4.5625H38.8438C39.4479 4.66667 39.75 4.96875 39.75 5.46875V14.625H43.875C44.4792 14.7083 44.7812 15.0104 44.7812 15.5312V24.6875L39.5625 24.75L39.3125 20.0938H34.7188V25.125L29.8438 25.0938L29.6875 20.0938H25.125V43.875C25.125 44.4792 24.8229 44.7812 24.2188 44.7812H15.5312C14.9271 44.7812 14.625 44.4792 14.625 43.875V40.2188C14.7083 39.6146 15.0104 39.3125 15.5312 39.3125H19.6562V20.0938H15.0938V23.75C15.0938 24.375 14.7812 24.6875 14.1562 24.6875H10.0625V20.0938H5.46875V24.2188L5.03125 25.125H0.46875L0 24.2188V15.5312C0.104167 14.9271 0.40625 14.625 0.90625 14.625H5.03125V5.46875C5.11458 4.86458 5.41667 4.5625 5.9375 4.5625H14.625V0.90625C14.7083 0.302083 15.0104 0 15.5312 0Z" fill="#00156A"/>
</svg>
