<svg width="1220" height="140" viewBox="0 0 1220 140" fill="none" xmlns="http://www.w3.org/2000/svg">
<path d="M1220 0H1163C1161.34 0 1160 1.34315 1160 3V12H1220V0Z" fill="black"/>
<rect x="0.5" y="12.5" width="1219" height="127" stroke="black"/>
<path d="M50.176 69.816H78.464V60.728H50.176V69.816ZM50.176 89.016H78.464V79.928H50.176V89.016ZM40.064 99.128V50.616H78.976V60.216H88.576V89.528H78.976V99.128H40.064ZM99.564 99.128V50.616H109.676V89.016H148.076V99.128H99.564ZM164.114 69.816H192.402V60.728H164.114V69.816ZM154.002 99.128V60.216H163.602V50.616H192.914V60.216H202.514V99.128H192.402V79.928H164.114V99.128H154.002ZM214.127 99.128V50.616H224.239V69.816H252.527V50.616H262.639V99.128H252.527V79.928H224.239V99.128H214.127ZM284.426 69.816H312.714V60.728H284.426V69.816ZM284.426 89.016H312.714V79.928H284.426V89.016ZM274.314 99.128V50.616H313.226V60.216H322.826V89.528H313.226V99.128H274.314ZM333.814 99.128V50.616H343.926V89.016H382.326V99.128H333.814ZM398.364 69.816H426.652V60.728H398.364V69.816ZM388.252 99.128V60.216H397.852V50.616H427.164V60.216H436.764V99.128H426.652V79.928H398.364V99.128H388.252ZM448.377 99.128V50.616H458.489V69.816H486.777V50.616H496.889V99.128H486.777V79.928H458.489V99.128H448.377ZM518.676 69.816H546.964V60.728H518.676V69.816ZM518.676 89.016H546.964V79.928H518.676V89.016ZM508.564 99.128V50.616H547.476V60.216H557.076V89.528H547.476V99.128H508.564ZM568.064 99.128V50.616H578.176V89.016H616.576V99.128H568.064ZM632.614 69.816H660.902V60.728H632.614V69.816ZM622.502 99.128V60.216H632.102V50.616H661.414V60.216H671.014V99.128H660.902V79.928H632.614V99.128H622.502ZM682.627 99.128V50.616H692.739V69.816H721.027V50.616H731.139V99.128H721.027V79.928H692.739V99.128H682.627ZM752.926 69.816H781.214V60.728H752.926V69.816ZM752.926 89.016H781.214V79.928H752.926V89.016ZM742.814 99.128V50.616H781.726V60.216H791.326V89.528H781.726V99.128H742.814ZM802.314 99.128V50.616H812.426V89.016H850.826V99.128H802.314ZM866.864 69.816H895.152V60.728H866.864V69.816ZM856.752 99.128V60.216H866.352V50.616H895.664V60.216H905.264V99.128H895.152V79.928H866.864V99.128H856.752ZM916.877 99.128V50.616H926.989V69.816H955.277V50.616H965.389V99.128H955.277V79.928H926.989V99.128H916.877ZM987.176 69.816H1015.46V60.728H987.176V69.816ZM987.176 89.016H1015.46V79.928H987.176V89.016ZM977.064 99.128V50.616H1015.98V60.216H1025.58V89.528H1015.98V99.128H977.064ZM1036.56 99.128V50.616H1046.68V89.016H1085.08V99.128H1036.56ZM1101.11 69.816H1129.4V60.728H1101.11V69.816ZM1091 99.128V60.216H1100.6V50.616H1129.91V60.216H1139.51V99.128H1129.4V79.928H1101.11V99.128H1091ZM1151.13 99.128V50.616H1161.24V69.816H1189.53V50.616H1199.64V99.128H1189.53V79.928H1161.24V99.128H1151.13Z" fill="black"/>
</svg>
