<svg width="1220" height="140" viewBox="0 0 1220 140" fill="none" xmlns="http://www.w3.org/2000/svg">
<path d="M14.064 99.128V50.616H24.176V89.016H62.576V99.128H14.064ZM68.5015 99.128V50.616H78.6135V99.128H68.5015ZM90.2515 99.128V50.616H100.364V69.816H119.052V60.216H128.652V50.616H138.764V60.728H129.164V70.328H119.564V79.416H129.164V89.016H138.764V99.128H128.652V89.528H119.052V79.928H100.364V99.128H90.2515ZM149.002 99.128V50.616H197.514V60.728H159.114V69.816H187.914V79.928H159.114V89.016H197.514V99.128H149.002ZM206.189 99.128V50.616H216.301V89.016H254.701V99.128H206.189ZM260.627 99.128V50.616H270.739V99.128H260.627ZM292.489 89.016H320.777V60.728H292.489V89.016ZM291.977 99.128V89.528H282.377V60.216H291.977V50.616H321.289V60.216H330.889V89.528H321.289V99.128H291.977ZM341.877 99.128V60.216H351.477V50.616H380.789V60.216H390.389V99.128H380.277V60.728H351.989V99.128H341.877ZM402.002 99.128V50.616H412.114V89.016H450.514V99.128H402.002ZM456.439 99.128V50.616H466.551V99.128H456.439ZM478.189 99.128V50.616H488.301V69.816H506.989V60.216H516.589V50.616H526.701V60.728H517.101V70.328H507.501V79.416H517.101V89.016H526.701V99.128H516.589V89.528H506.989V79.928H488.301V99.128H478.189ZM536.939 99.128V50.616H585.451V60.728H547.051V69.816H575.851V79.928H547.051V89.016H585.451V99.128H536.939ZM594.127 99.128V50.616H604.239V89.016H642.639V99.128H594.127ZM648.564 99.128V50.616H658.676V99.128H648.564ZM680.426 89.016H708.714V60.728H680.426V89.016ZM679.914 99.128V89.528H670.314V60.216H679.914V50.616H709.226V60.216H718.826V89.528H709.226V99.128H679.914ZM729.814 99.128V60.216H739.414V50.616H768.726V60.216H778.326V99.128H768.214V60.728H739.926V99.128H729.814ZM789.939 99.128V50.616H800.051V89.016H838.451V99.128H789.939ZM844.377 99.128V50.616H854.489V99.128H844.377ZM866.127 99.128V50.616H876.239V69.816H894.927V60.216H904.527V50.616H914.639V60.728H905.039V70.328H895.439V79.416H905.039V89.016H914.639V99.128H904.527V89.528H894.927V79.928H876.239V99.128H866.127ZM924.877 99.128V50.616H973.389V60.728H934.989V69.816H963.789V79.928H934.989V89.016H973.389V99.128H924.877ZM982.064 99.128V50.616H992.176V89.016H1030.58V99.128H982.064ZM1036.5 99.128V50.616H1046.61V99.128H1036.5ZM1068.36 89.016H1096.65V60.728H1068.36V89.016ZM1067.85 99.128V89.528H1058.25V60.216H1067.85V50.616H1097.16V60.216H1106.76V89.528H1097.16V99.128H1067.85ZM1117.75 99.128V60.216H1127.35V50.616H1156.66V60.216H1166.26V99.128H1156.15V60.728H1127.86V99.128H1117.75Z" fill="#00156A"/>
<rect x="2" y="14" width="1216" height="124" stroke="#00156A" stroke-width="4"/>
<path d="M1220 0H1163C1161.34 0 1160 1.34315 1160 3V12H1220V0Z" fill="#00156A"/>
</svg>
