<svg width="1220" height="140" viewBox="0 0 1220 140" fill="none" xmlns="http://www.w3.org/2000/svg">
<path d="M39.064 100.128V51.616H49.176V90.016H87.576V100.128H39.064ZM93.5015 100.128V51.616H103.614V100.128H93.5015ZM115.252 100.128V51.616H125.364V70.816H144.052V61.216H153.652V51.616H163.764V61.728H154.164V71.328H144.564V80.416H154.164V90.016H163.764V100.128H153.652V90.528H144.052V80.928H125.364V100.128H115.252ZM174.002 100.128V51.616H222.514V61.728H184.114V70.816H212.914V80.928H184.114V90.016H222.514V100.128H174.002ZM231.189 100.128V51.616H241.301V90.016H279.701V100.128H231.189ZM285.627 100.128V51.616H295.739V100.128H285.627ZM317.489 90.016H345.777V61.728H317.489V90.016ZM316.977 100.128V90.528H307.377V61.216H316.977V51.616H346.289V61.216H355.889V90.528H346.289V100.128H316.977ZM366.877 100.128V61.216H376.477V51.616H405.789V61.216H415.389V100.128H405.277V61.728H376.989V100.128H366.877ZM427.002 100.128V51.616H437.114V90.016H475.514V100.128H427.002ZM481.439 100.128V51.616H491.551V100.128H481.439ZM503.189 100.128V51.616H513.301V70.816H531.989V61.216H541.589V51.616H551.701V61.728H542.101V71.328H532.501V80.416H542.101V90.016H551.701V100.128H541.589V90.528H531.989V80.928H513.301V100.128H503.189ZM561.939 100.128V51.616H610.451V61.728H572.051V70.816H600.851V80.928H572.051V90.016H610.451V100.128H561.939ZM619.127 100.128V51.616H629.239V90.016H667.639V100.128H619.127ZM673.564 100.128V51.616H683.676V100.128H673.564ZM705.426 90.016H733.714V61.728H705.426V90.016ZM704.914 100.128V90.528H695.314V61.216H704.914V51.616H734.226V61.216H743.826V90.528H734.226V100.128H704.914ZM754.814 100.128V61.216H764.414V51.616H793.726V61.216H803.326V100.128H793.214V61.728H764.926V100.128H754.814ZM814.939 100.128V51.616H825.051V90.016H863.451V100.128H814.939ZM869.377 100.128V51.616H879.489V100.128H869.377ZM891.127 100.128V51.616H901.239V70.816H919.927V61.216H929.527V51.616H939.639V61.728H930.039V71.328H920.439V80.416H930.039V90.016H939.639V100.128H929.527V90.528H919.927V80.928H901.239V100.128H891.127ZM949.877 100.128V51.616H998.389V61.728H959.989V70.816H988.789V80.928H959.989V90.016H998.389V100.128H949.877ZM1007.06 100.128V51.616H1017.18V90.016H1055.58V100.128H1007.06ZM1061.5 100.128V51.616H1071.61V100.128H1061.5ZM1093.36 90.016H1121.65V61.728H1093.36V90.016ZM1092.85 100.128V90.528H1083.25V61.216H1092.85V51.616H1122.16V61.216H1131.76V90.528H1122.16V100.128H1092.85ZM1142.75 100.128V61.216H1152.35V51.616H1181.66V61.216H1191.26V100.128H1181.15V61.728H1152.86V100.128H1142.75Z" fill="#00156A"/>
<rect x="2" y="14" width="1216" height="124" stroke="#00156A" stroke-width="4"/>
<path d="M0 0H57C58.6569 0 60 1.34315 60 3V12H0V0Z" fill="#00156A"/>
</svg>
