<svg width="180" height="61" viewBox="0 0 180 61" fill="none" xmlns="http://www.w3.org/2000/svg">
<rect x="23" y="17" width="157" height="21" fill="#C6E400"/>
<path d="M10.8004 39.872C11.3302 38.5677 13.2097 38.6673 13.5987 40.0204L15.5627 46.8508L21.949 49.9708C23.2143 50.5894 22.9857 52.4582 21.6088 52.7539L6.778 55.9335C6.51438 55.9903 6.24027 55.9742 5.98514 55.8868C5.73001 55.7995 5.50352 55.6443 5.33005 55.4378C5.15657 55.2313 5.04266 54.9815 5.00059 54.7151C4.95851 54.4488 4.98985 54.176 5.09125 53.9261L10.8004 39.872Z" fill="white" stroke="#1A1A1A" stroke-width="2"/>
<path d="M29.816 17.056H40.424V13.648H29.816V17.056ZM29.816 24.256H40.424V20.848H29.816V24.256ZM26.024 28.048V9.856H40.616V13.456H44.216V24.448H40.616V28.048H26.024ZM48.3365 28.048V9.856H52.1285V24.256H66.5285V28.048H48.3365ZM72.5426 17.056H83.1506V13.648H72.5426V17.056ZM68.7506 28.048V13.456H72.3506V9.856H83.3426V13.456H86.9426V28.048H83.1506V20.848H72.5426V28.048H68.7506ZM91.2974 28.048V9.856H95.0894V17.056H105.697V9.856H109.489V28.048H105.697V20.848H95.0894V28.048H91.2974ZM117.66 17.056H128.268V13.648H117.66V17.056ZM117.66 24.256H128.268V20.848H117.66V24.256ZM113.868 28.048V9.856H128.46V13.456H132.06V24.448H128.46V28.048H113.868ZM136.18 28.048V9.856H139.972V24.256H154.372V28.048H136.18ZM160.386 17.056H170.994V13.648H160.386V17.056ZM156.594 28.048V13.456H160.194V9.856H171.186V13.456H174.786V28.048H170.994V20.848H160.386V28.048H156.594Z" fill="#1A1A1A"/>
</svg>
