<svg width="180" height="61" viewBox="0 0 180 61" fill="none" xmlns="http://www.w3.org/2000/svg">
<rect x="23.0004" y="16.9999" width="107" height="21" fill="#636363"/>
<path d="M10.8008 39.8713C11.3305 38.5669 13.2101 38.6666 13.599 40.0197L15.5631 46.8501L21.9494 49.9701C23.2147 50.5887 22.9861 52.4574 21.6092 52.7532L6.77836 55.9328C6.51475 55.9896 6.24064 55.9735 5.98551 55.8861C5.73038 55.7988 5.50389 55.6435 5.33041 55.4371C5.15693 55.2306 5.04303 54.9808 5.00095 54.7144C4.95888 54.448 4.99022 54.1752 5.09161 53.9254L10.8008 39.8713Z" fill="white" stroke="black" stroke-width="2"/>
<path d="M176.184 17.0559H165.576V13.6479H176.184V17.0559ZM176.184 24.2559H165.576V20.8479H176.184V24.2559ZM179.976 28.0479V9.85588H165.384V13.4559H161.784V24.4479H165.384V28.0479H179.976ZM157.664 28.0479V9.85588H153.872V24.2559H139.472V28.0479H157.664ZM133.458 17.0559H122.85V13.6479H133.458V17.0559ZM137.25 28.0479V13.4559H133.65V9.85588H122.658V13.4559H119.058V28.0479H122.85V20.8479H133.458V28.0479H137.25ZM114.703 28.0479V9.85588H110.911V17.0559H100.303V9.85588H96.5109V28.0479H100.303V20.8479H110.911V28.0479H114.703ZM88.3406 17.0559H77.7326V13.6479H88.3406V17.0559ZM88.3406 24.2559H77.7326V20.8479H88.3406V24.2559ZM92.1326 28.0479V9.85588H77.5406V13.4559H73.9406V24.4479H77.5406V28.0479H92.1326ZM69.8201 28.0479V9.85588H66.0281V24.2559H51.6281V28.0479H69.8201ZM45.6141 17.0559H35.0061V13.6479H45.6141V17.0559ZM49.4061 28.0479V13.4559H45.8061V9.85588H34.8141V13.4559H31.2141V28.0479H35.0061V20.8479H45.6141V28.0479H49.4061Z" fill="black"/>
</svg>
