<svg width="181" height="55" viewBox="0 0 181 55" fill="none" xmlns="http://www.w3.org/2000/svg">
<rect width="161" height="21" transform="matrix(-1 0 0 1 161 24)" fill="#C6E400"/>
<path d="M159.872 10.8004C158.568 11.3302 158.667 13.2097 160.02 13.5987L166.851 15.5627L169.971 21.949C170.589 23.2143 172.458 22.9857 172.754 21.6088L175.934 6.778C175.99 6.51438 175.974 6.24027 175.887 5.98514C175.8 5.73001 175.644 5.50352 175.438 5.33005C175.231 5.15657 174.981 5.04266 174.715 5.00059C174.449 4.95851 174.176 4.98985 173.926 5.09125L159.872 10.8004Z" fill="white" stroke="#1A1A1A" stroke-width="2"/>
<path d="M7.816 24.056H18.424V20.648H7.816V24.056ZM7.816 31.256H18.424V27.848H7.816V31.256ZM4.024 35.048V16.856H18.616V20.456H22.216V31.448H18.616V35.048H4.024ZM26.3365 35.048V16.856H30.1285V31.256H44.5285V35.048H26.3365ZM50.5426 24.056H61.1506V20.648H50.5426V24.056ZM46.7506 35.048V20.456H50.3506V16.856H61.3426V20.456H64.9426V35.048H61.1506V27.848H50.5426V35.048H46.7506ZM69.2974 35.048V16.856H73.0894V24.056H83.6974V16.856H87.4894V35.048H83.6974V27.848H73.0894V35.048H69.2974ZM95.6598 24.056H106.268V20.648H95.6598V24.056ZM95.6598 31.256H106.268V27.848H95.6598V31.256ZM91.8678 35.048V16.856H106.46V20.456H110.06V31.448H106.46V35.048H91.8678ZM114.18 35.048V16.856H117.972V31.256H132.372V35.048H114.18ZM138.386 24.056H148.994V20.648H138.386V24.056ZM134.594 35.048V20.456H138.194V16.856H149.186V20.456H152.786V35.048H148.994V27.848H138.386V35.048H134.594Z" fill="#1A1A1A"/>
</svg>
