<svg width="531" height="472" viewBox="0 0 531 472" fill="none" xmlns="http://www.w3.org/2000/svg">
<path d="M518.495 283.196C519.419 283.891 519.074 285.012 519.401 285.844C521.012 290.058 523.894 290.626 527.52 287.596C528.364 286.894 529.522 286.437 529.875 285.233C528.284 283.876 529.464 281.916 528.693 280.387C527.725 278.475 526.668 276.734 524.19 277.957C521.962 279.055 519.954 280.538 518.549 282.678" stroke="#C6E400" stroke-width="2" stroke-linecap="round" stroke-linejoin="round"/>
<g opacity="0.71" clip-path="url(#clip0_3098_180)">
<path d="M187.237 67.6507C185.67 68.6295 186.66 71.4406 184.526 71.6212C183.2 72.6277 182.581 71.3811 181.991 71.0852C179.067 69.6004 176.496 66.3004 172.969 69.9882C169.581 73.5274 169.252 78.3274 172.161 82.1655C176.028 87.28 173.583 96.7444 167.002 98.5527C159.081 100.731 164.904 105.356 164.625 108.594C164.274 112.556 167.873 112.325 170.428 111.365C173.911 110.047 175.921 111.608 177.816 114.055C179.305 115.984 180.217 118.166 182.338 119.868C184.173 121.344 184.579 124.295 182.526 127.165C180.974 129.327 180.646 132.104 185.128 132.967C188.194 133.56 190.733 136.653 194.417 135.142C196.005 131.699 196.582 127.128 202.12 127.433" stroke="#C6E400" stroke-width="2" stroke-linecap="round" stroke-linejoin="round"/>
<path d="M330.089 170.079C330.148 165.268 327.975 162.287 323.519 160.09C319.062 157.893 316.198 153.199 311.694 150.903C301.848 145.873 291.207 144.934 280.607 146.972C274.024 148.234 269.238 147.673 264.133 142.683C261.149 139.768 255.409 140.438 250.916 139.523C238.243 136.968 226.05 138.836 214.703 145.151C211.068 147.172 207.641 146.581 204.079 145.346C199.858 143.883 195.549 142.98 191.052 143.043C189.619 143.066 189.618 142.978 188.791 139.976" stroke="#C6E400" stroke-width="2" stroke-linecap="round" stroke-linejoin="round"/>
<path d="M377.634 255.757C375.058 250.917 374.726 245.256 371.266 240.611C363.939 230.803 351.617 229.013 342.192 235.289C335.824 239.525 330.937 244.756 329.642 252.397C328.114 261.451 338.859 278.449 352.728 279.243C362.942 279.83 370.81 277.253 376.276 268.133C378.424 264.545 377.075 260.904 377.754 257.427C378.877 257.172 379.121 258.429 379.99 258.565" stroke="#C6E400" stroke-width="2" stroke-linecap="round" stroke-linejoin="round"/>
<path d="M431.053 253.138C433.088 242.756 430.126 233.742 423.573 225.706C416.181 216.649 406.906 210.148 396.054 205.901C394.203 205.178 392.488 205.049 391.955 202.337C390.555 195.209 386.529 188.799 380.319 185.88C373.594 182.711 368.218 177.214 360.898 175.373C359.619 175.052 358.429 174.408 357.672 173.72C349.732 166.55 340.128 168.844 331.439 170.145C323.152 171.381 314.661 172.586 306.833 177.222C298.176 182.353 290.848 188.351 287.548 197.672C285.566 203.266 285.567 209.693 286.542 216.235C274.543 220.141 262.832 223.852 255.841 235.538C250.027 245.258 248.067 255.499 248.835 266.526" stroke="#C6E400" stroke-width="2" stroke-linecap="round" stroke-linejoin="round"/>
<path d="M349.182 306.016C349.806 300.304 352.078 297.865 357.928 296.604C364.583 295.163 366.204 296.147 370.844 304.646C376.148 303.66 380.375 300.322 384.903 297.662C386.348 296.811 386.881 295.069 385.974 293.695C381.412 286.792 385.332 282.292 390.272 278.105C391.176 277.332 391.241 275.761 393.27 275.689C395.457 275.312 397.271 279.251 400.438 277.129C405.097 273.983 404.1 268.576 405.583 264.237C406.669 261.044 402.803 260.012 400.85 259.435C395.117 257.737 396.078 252.847 395.767 249.128C395.352 244.326 396.383 239.455 403.136 239.12C403.239 234.284 401.403 230.698 399.108 227.113C397.022 223.857 394.329 223.675 391.108 224.393C382.558 226.278 381.882 225.797 376.879 219.421C374.663 216.601 374.52 214.329 376.566 211.805C379.268 208.464 377.5 206.188 374.757 204.541C367.444 200.146 363.013 201.393 357.419 209.101C351.238 217.606 342.728 216.772 335.517 206.721C330.095 207.59 325.42 209.925 322.079 214.805C324.761 216.956 321.941 221.331 325.004 223.821C323.091 224.93 321.711 225.996 321.058 228.413C319.309 234.889 316.906 236.573 310.629 235.374C307.056 234.682 305.597 235.305 304.569 238.836C304.028 240.7 303.587 242.839 302.519 244.449C299.696 248.7 302.248 250.965 305.675 251.369C313.251 252.262 311.51 258.43 313.215 262.824C315.088 267.648 310.915 268.58 308.566 270.204C305.165 272.549 304.082 274.812 306.417 278.433C307.092 279.472 307.714 280.57 308.075 281.896C310.057 289.12 310.9 289.446 317.343 286.311C322.8 283.653 326.302 287.502 329.854 290.385C334.241 293.94 332.048 298.199 330.205 302.727C334.521 304.389 338.111 307.815 343.227 307.572" stroke="#C6E400" stroke-width="2" stroke-linecap="round" stroke-linejoin="round"/>
<path d="M420.344 251.486C432.699 251.821 439.236 260.373 445.128 269.472C446.266 271.231 447.014 273.654 448.038 275.606C452.407 283.958 451.307 292.21 448.652 300.662C447.638 303.863 445.171 305.74 442.924 307.763C436.865 313.199 430.503 318.33 428.481 326.829C428.156 328.168 426.257 328.4 425.844 329.839" stroke="#C6E400" stroke-width="2" stroke-linecap="round" stroke-linejoin="round"/>
<path d="M130.929 159.051C130.602 153.925 133.395 149.418 133.294 144.142C133.077 133.276 125.182 124.059 114.456 123.618C110.113 123.437 99.8007 131.571 98.0451 135.911C93.0147 148.424 96.7558 158.369 106.536 166.718" stroke="#C6E400" stroke-width="2" stroke-linecap="round" stroke-linejoin="round"/>
<path d="M217.096 163.726C208.541 155.844 200.334 160.414 192.328 164.146C187.055 160.376 182.219 158.71 175.319 161.425C170.014 163.516 164.41 164.372 159.402 167.846C152.115 172.912 148.782 179.097 150.424 187.854" stroke="#C6E400" stroke-width="2" stroke-linecap="round" stroke-linejoin="round"/>
<path d="M356.292 368.066C363.368 367.136 371.59 372.435 374.514 379.801C378.095 388.821 375.036 399.273 367.061 405.048C364.41 406.962 362.244 409.33 360.26 411.896" stroke="#C6E400" stroke-width="2" stroke-linecap="round" stroke-linejoin="round"/>
<path d="M198.921 56.5501C201.969 54.867 205.344 56.0145 209.315 54.5435C209.989 60.6816 212.105 64.7024 217.319 68.183C223.511 72.3127 226.582 67.7446 230.486 66.2927C235.919 68.1328 236.884 73.0588 239.105 76.4133C237.5 78.9575 235.9 81.342 233.81 82.924C234.18 86.7463 236.726 89.4444 236.311 93.278C235.991 96.2561 239.119 97.2624 241.714 97.8518C244.636 98.5171 246.398 100.172 245.154 103.124C243.912 106.114 243.731 109.402 241.925 112.687C231.97 106.821 230.538 117.453 225.487 121.498C227.997 127.975 224.751 133.041 215.748 136.698C214.851 135.699 214.606 134.404 214.175 133.196C212.436 128.333 209.49 126.607 204.633 129.34C204.195 129.581 203.305 129.155 203.088 128.352" stroke="#C6E400" stroke-width="2" stroke-linecap="round" stroke-linejoin="round"/>
<path d="M427.562 431.329C436.821 426.634 444.044 419.875 448.048 410.198C449.269 407.24 450.795 404.575 452.821 402.219C463.023 390.358 464.335 376.865 459.624 362.614C458.45 359.058 459.507 356.341 460.439 353.441C466.702 333.977 463.368 316.736 448.871 301.962" stroke="#C6E400" stroke-width="2" stroke-linecap="round" stroke-linejoin="round"/>
<path d="M109.258 269.099C100.492 282.303 103.708 293.458 118.075 300.677C122.444 302.874 126.764 304.935 131.669 305.515" stroke="#C6E400" stroke-width="2" stroke-linecap="round" stroke-linejoin="round"/>
<path d="M173.175 298.76C163.803 305.113 153.514 310.039 145.043 317.789C135.155 326.831 129.523 337.804 128.577 351.185C128.516 352.099 129.088 352.552 129.314 353.233" stroke="#C6E400" stroke-width="2" stroke-linecap="round" stroke-linejoin="round"/>
<path d="M413.949 321.043C420.64 325.902 427.446 330.334 429.575 339.446C432.221 350.782 429.71 360.216 421.561 368.289C421.478 368.366 420.406 368.982 419.75 368.47" stroke="#C6E400" stroke-width="2" stroke-linecap="round" stroke-linejoin="round"/>
<path d="M148.446 215.846C133.534 207.388 125.595 212.341 117.271 221.061C113.636 224.869 114.508 230.278 112.369 234.614" stroke="#C6E400" stroke-width="2" stroke-linecap="round" stroke-linejoin="round"/>
<path d="M216.099 332.678C209.058 331.185 203.283 334.924 197.486 337.688C191.745 340.431 186.057 343.299 180.257 345.889C177.435 347.149 174.29 348.136 171.285 347.088C169.368 346.422 169.75 345.147 171.879 344.891" stroke="#C6E400" stroke-width="2" stroke-linecap="round" stroke-linejoin="round"/>
<path d="M215.06 233.22C211.37 232.732 208.333 230.559 204.988 229.209C193.932 224.709 180.358 227.42 172.697 236.716C168.064 242.339 163.333 244.188 156.338 241.653C149.4 239.133 143.249 240.499 137.077 245.433C132.584 249.021 130.994 253.344 130.466 258.053C130.119 261.222 129.753 264.598 130.031 267.887" stroke="#C6E400" stroke-width="2" stroke-linecap="round" stroke-linejoin="round"/>
<path d="M187.17 141.386C173.538 138.659 161.956 143.087 151.544 151.591C149.222 153.482 146.837 155.283 144.478 157.127" stroke="#C6E400" stroke-width="2" stroke-linecap="round" stroke-linejoin="round"/>
<path d="M289.287 371.656C283.427 376.351 276.166 378.981 269.258 378.877C259.924 378.75 249.791 377.676 242.588 370.581C239.444 367.473 237.21 367.478 234.176 369.202C228.657 372.314 222.735 374.301 216.77 376.312C209.207 378.86 201.898 377.854 194.533 375.814" stroke="#C6E400" stroke-width="2" stroke-linecap="round" stroke-linejoin="round"/>
<path d="M140.016 100.148C136.607 96.9684 132.082 95.8951 127.751 93.6458C125.127 99.5502 121.327 102.594 113.995 102.772C105.651 102.975 104.122 97.7971 102.401 91.6742C96.6871 94.0393 91.86 96.3833 87.6105 99.0695C87.585 102.425 89.2099 104.862 89.7225 107.879C87.9823 110.325 85.2454 112.005 83.3205 114.537C80.3379 118.459 76.3467 120.235 71.4455 117.571C68.7072 116.087 67.1504 117.44 65.8627 119.773C64.6891 121.912 63.9637 124.322 62.7373 126.336C60.6831 129.714 62.362 131.446 64.7687 133.101C70.4114 136.971 72.5097 141.421 70.3095 148.234C69.6796 150.198 70.4839 150.85 70.7969 152.126C70.1095 153.751 68.4031 153.638 67.1111 154.195C61.8005 156.445 60.3862 157.639 62.8303 163.014C64.1749 165.983 65.1763 169.12 66.5997 172.073C70.6886 172.508 74.4374 171.721 77.0249 169.492C83.6991 171.977 85.9679 177.863 89.9798 182.074" stroke="#C6E400" stroke-width="2" stroke-linecap="round" stroke-linejoin="round"/>
<path d="M273.779 284.42C270.019 285.799 265.783 286.367 263.542 290.39C267.342 298.464 265.536 301.798 256.286 303.195C254.048 303.534 253.308 304.711 252.856 306.661C252.382 308.692 252.614 310.728 252.643 313.192C257.624 312.987 258.24 316.863 259.048 320.717C260.015 325.358 255.811 325.488 253.525 327.29C255.142 331.226 254.29 336.356 259.124 338.717C261.719 338.71 262.831 336.108 265.122 335.299C271.823 337.271 272.123 342.96 272.191 348.724C274.29 349.452 276.193 348.564 277.971 349.329C280.283 350.326 282.038 350.49 283.087 347.064C284.345 342.912 289.228 343.809 291.814 341.951C294.923 342.704 294.461 345.979 296.891 347.132C299.866 347.328 302.822 346.352 305.312 344.344C307.593 342.516 305.931 340.677 305.091 338.688C303.806 335.636 307.637 329.264 310.864 328.523C316.03 327.345 318.705 324.193 318.891 319.064C314.859 319.34 312.438 317.371 311.875 313.298" stroke="#C6E400" stroke-width="2" stroke-linecap="round" stroke-linejoin="round"/>
<path d="M281.248 164.95C269.07 165.569 262.7 173.899 257.824 183.452C255.6 187.826 254.872 193.002 252.412 197.884C245.168 196.176 238.01 197.133 232.707 202.711C224.457 211.389 218.157 221.711 216.102 233.452C215.414 237.423 216.277 242.681 216.694 247.335C217.206 253.02 215.503 258.453 213.128 263.706C212.204 265.752 209.204 264.408 209.046 266.921" stroke="#C6E400" stroke-width="2" stroke-linecap="round" stroke-linejoin="round"/>
<path d="M90.7939 231.888C84.144 231.196 76.8304 235.809 73.605 242.743C71.5941 247.063 70.0582 251.463 71.1721 256.342" stroke="#C6E400" stroke-width="2" stroke-linecap="round" stroke-linejoin="round"/>
<path d="M136.98 161.925C130.896 157.577 125.209 161.45 119.393 162.77C118.149 163.055 117.354 164.254 115.871 164.325C106.582 164.72 101.778 172.17 95.5972 177.411C90.4148 181.806 87.9056 187.742 86.7866 194.226C86.3038 197.024 84.0911 197.407 82.4089 198.628C77.3854 202.296 72.9033 206.532 66.7607 208.831C60.4513 211.197 54.9727 226.058 57.4002 231.54" stroke="#C6E400" stroke-width="2" stroke-linecap="round" stroke-linejoin="round"/>
<path d="M393.225 427.625C382.039 430.634 369.624 427.305 357.881 424.294C336.825 418.917 315.8 415.309 294.635 412.495" stroke="#C6E400" stroke-width="2" stroke-linecap="round" stroke-linejoin="round"/>
<path d="M289.384 304.741C291.973 307.239 294.448 309.881 295.723 313.29C297.231 317.308 296.489 321.661 293.779 324.391C290.693 327.503 286.211 329.072 281.567 326.788C277.615 324.839 273.161 323.09 274.245 317.377C274.8 314.45 272.878 311.275 276.379 308.511C278.952 306.476 281.389 304.988 284.458 304.787C285.342 304.728 285.949 307.213 287.759 306.163" stroke="#C6E400" stroke-width="2" stroke-linecap="round" stroke-linejoin="round"/>
<path d="M270.606 399.466C268.399 399.689 266.598 401.076 264.427 401.532C260.661 398.802 256.437 398.406 251.803 397.787C239.322 396.128 227.818 399.993 215.972 402.092C213.846 402.473 212.128 398.361 209.875 401.648" stroke="#C6E400" stroke-width="2" stroke-linecap="round" stroke-linejoin="round"/>
<path d="M99.2867 126.953C91.5413 135.506 89.7366 146.459 94.1086 155.308" stroke="#C6E400" stroke-width="2" stroke-linecap="round" stroke-linejoin="round"/>
<path d="M371.845 320.824C368.963 324.19 370.133 329.184 366.873 332.522C356.5 343.133 343.973 346.102 329.739 343.535" stroke="#C6E400" stroke-width="2" stroke-linecap="round" stroke-linejoin="round"/>
<path d="M286.578 361.01C288.916 362.92 292.196 364.19 290.845 368.367C290.169 370.455 292.381 371.636 293.434 372.652C300.886 379.839 309.472 384.615 319.857 387.098C326.198 388.612 332.008 389.289 338.208 387.973" stroke="#C6E400" stroke-width="2" stroke-linecap="round" stroke-linejoin="round"/>
<path d="M239.017 156.012C227.834 161.032 224.891 168.848 229.331 180.11C231.849 186.498 235.396 192.246 238.813 198.107" stroke="#C6E400" stroke-width="2" stroke-linecap="round" stroke-linejoin="round"/>
<path d="M153.48 272.993C157.185 279.49 158.9 287.15 165.005 292.248C170.798 297.077 176.077 299.446 184.542 296.633C196.607 292.621 209.592 292.964 222.148 296.505" stroke="#C6E400" stroke-width="2" stroke-linecap="round" stroke-linejoin="round"/>
<path d="M64.024 257.501C58.56 267.117 56.9476 276.348 62.6206 287.087C68.1394 297.524 78.3228 302.682 85.57 310.992C86.5625 312.141 88.3865 312.646 87.6329 314.701" stroke="#C6E400" stroke-width="2" stroke-linecap="round" stroke-linejoin="round"/>
<path d="M438.98 379.869C445.335 385.878 450.014 392.49 447.307 401.958C446.825 403.652 448.597 404.441 449.383 405.621" stroke="#C6E400" stroke-width="2" stroke-linecap="round" stroke-linejoin="round"/>
<path d="M218.191 97.7018C217.71 102.696 214.689 106.347 211.223 109.394C205.715 114.259 198.701 112.712 194.223 106.092C189.567 99.2135 189.111 92.5391 192.967 87.7737C196.632 83.2546 204.374 81.0527 209.751 83.0138C215.309 85.0364 218.249 89.8631 218.339 97.1089" stroke="#C6E400" stroke-width="2" stroke-linecap="round" stroke-linejoin="round"/>
<path d="M377.947 181.146C372.071 174.285 364.457 170.776 355.658 169.541" stroke="#C6E400" stroke-width="2" stroke-linecap="round" stroke-linejoin="round"/>
<path d="M311.599 311.982C311.153 310.323 309.382 308.108 311.736 307.155C317.586 304.79 316.283 301.348 313.577 297.677C310.772 293.867 307.767 295.301 305.127 298C303.178 296.071 301.003 294.938 299.319 293.18C297.999 291.818 297.256 290.526 298.056 288.484C299.134 285.735 298.364 282.475 295.475 282.513C293.011 282.542 288.534 278.95 287.466 285.66C286.558 291.408 280.634 289.498 276.592 290.13" stroke="#C6E400" stroke-width="2" stroke-linecap="round" stroke-linejoin="round"/>
<path d="M193.151 247.763C187.263 255.689 188.434 266.007 184.07 274.444C183.531 275.477 183.778 277.132 184.003 277.404C188.347 282.771 185.789 289.302 187.193 295.128" stroke="#C6E400" stroke-width="2" stroke-linecap="round" stroke-linejoin="round"/>
<path d="M216 314.672C216.375 317.875 216.263 321.232 217.223 324.246C219.716 332.104 227.741 335.376 237.153 332.781" stroke="#C6E400" stroke-width="2" stroke-linecap="round" stroke-linejoin="round"/>
<path d="M141.116 181.021C132.017 179.792 125.836 183.979 122.145 193.876" stroke="#C6E400" stroke-width="2" stroke-linecap="round" stroke-linejoin="round"/>
<path d="M141.02 101.038C138.847 110.092 143.867 116.176 150.161 122.132C153.139 121.857 156.36 119.811 159.969 120.414" stroke="#C6E400" stroke-width="2" stroke-linecap="round" stroke-linejoin="round"/>
<path d="M129.59 354.549C130.474 360.371 132.939 365.578 136.633 370.001C140.045 374.087 144.828 376.731 149.95 377.842C153.209 378.548 154.384 380.95 155.966 382.854C159.833 387.51 163.573 391.994 168.6 395.709C174.879 400.346 182.046 399.813 188.824 401.545" stroke="#C6E400" stroke-width="2" stroke-linecap="round" stroke-linejoin="round"/>
<path d="M70.2266 298.845C74.2686 306.389 78.9169 313.067 88.1994 314.991C91.1257 315.595 93.7976 317.831 96.1753 319.639C104.571 326.039 114.114 327.736 124.26 328.529C127.382 328.777 130.693 328.877 133.834 329.651" stroke="#C6E400" stroke-width="2" stroke-linecap="round" stroke-linejoin="round"/>
<path d="M411.751 322.297C407.193 322.679 404.837 323.408 404.382 329.687C403.408 343.259 387.556 352.241 372.911 348.993" stroke="#C6E400" stroke-width="2" stroke-linecap="round" stroke-linejoin="round"/>
<path d="M249.433 289.618C242.322 294.398 233.91 294.582 225.93 296.286" stroke="#C6E400" stroke-width="2" stroke-linecap="round" stroke-linejoin="round"/>
<path d="M69.7345 208.841C69.5854 213.664 64.8258 215.667 63.2837 220.089C57.7433 235.914 52.8613 234.236 63.3178 253.724C59.4495 257.618 56.6854 261.971 58.7567 267.853" stroke="#C6E400" stroke-width="2" stroke-linecap="round" stroke-linejoin="round"/>
<path d="M171.547 192.332C171.846 198.53 171.464 204.718 171.49 210.916" stroke="#C6E400" stroke-width="2" stroke-linecap="round" stroke-linejoin="round"/>
<path d="M356.21 410.815C359.011 410.963 360.881 413.23 363.414 414.001C368.586 415.572 374.025 415.925 379.195 417.594C385.188 419.523 391.672 420.369 396.142 426.329C400.514 425.028 403.958 427.758 407.164 431.093" stroke="#C6E400" stroke-width="2" stroke-linecap="round" stroke-linejoin="round"/>
<path d="M100.715 252.535C100.649 258.014 107.305 268.1 112.144 269.891C113.059 270.225 113.513 269.417 114.194 269.192" stroke="#C6E400" stroke-width="2" stroke-linecap="round" stroke-linejoin="round"/>
<path d="M429.136 386.503C427.534 397.212 423.738 399.686 411.57 400.866C408.537 401.163 405.383 400.758 402.293 400.941" stroke="#C6E400" stroke-width="2" stroke-linecap="round" stroke-linejoin="round"/>
<path d="M432.436 427.063C425.543 426.628 418.934 429.185 412.074 428.995" stroke="#C6E400" stroke-width="2" stroke-linecap="round" stroke-linejoin="round"/>
<path d="M158.543 343.782C161.567 347.701 167.161 346.743 170.471 350.107" stroke="#C6E400" stroke-width="2" stroke-linecap="round" stroke-linejoin="round"/>
<path d="M361.34 339.055C363.784 343.326 367.726 345.867 371.909 348.114" stroke="#C6E400" stroke-width="2" stroke-linecap="round" stroke-linejoin="round"/>
<path d="M447.674 349.981C449.893 350.357 451.854 351.135 452.988 353.277C454.096 355.376 455.684 356.847 458.145 357.152" stroke="#C6E400" stroke-width="2" stroke-linecap="round" stroke-linejoin="round"/>
<path d="M171.744 212.226C170.005 216.136 165.114 218.674 160.89 218.004C159.499 217.777 158.232 216.542 156.692 217.466" stroke="#C6E400" stroke-width="2" stroke-linecap="round" stroke-linejoin="round"/>
<path d="M291.258 405.664C288.356 401.89 284.593 404.062 281.116 404.165" stroke="#C6E400" stroke-width="2" stroke-linecap="round" stroke-linejoin="round"/>
<path d="M202.414 195.099C206.652 196.865 204.736 201.844 207.325 204.479" stroke="#C6E400" stroke-width="2" stroke-linecap="round" stroke-linejoin="round"/>
<path d="M201.884 192.474C199.714 189.667 197.596 186.762 193.414 187.084" stroke="#C6E400" stroke-width="2" stroke-linecap="round" stroke-linejoin="round"/>
<path d="M163.817 124.543C163.767 128.078 165.583 131.323 165.526 134.844C161.479 138.205 152.013 135.81 154.415 145.566" stroke="#C6E400" stroke-width="2" stroke-linecap="round" stroke-linejoin="round"/>
<path d="M197.606 56.8159C196.561 62.9361 194.771 68.5076 187.761 70.2496C187.428 70.3335 186.992 70.0666 186.61 69.9635" stroke="#C6E400" stroke-width="2" stroke-linecap="round" stroke-linejoin="round"/>
<path d="M268.25 401.311C271.954 402.894 275.286 405.854 279.803 404.431" stroke="#C6E400" stroke-width="2" stroke-linecap="round" stroke-linejoin="round"/>
<path d="M403.227 358.436C404.094 367.033 399.861 372.689 392.719 376.666" stroke="#C6E400" stroke-width="2" stroke-linecap="round" stroke-linejoin="round"/>
<path d="M208.565 401.914C205.687 402.278 202.978 403.718 199.911 401.612C198.267 400.485 195.688 401.538 193.606 402.216" stroke="#C6E400" stroke-width="2" stroke-linecap="round" stroke-linejoin="round"/>
<path d="M142.263 158.39C140.311 160.009 137.564 157.641 135.7 159.719" stroke="#C6E400" stroke-width="2" stroke-linecap="round" stroke-linejoin="round"/>
<path d="M96.1898 230.244C93.9938 229.278 92.6057 230.467 91.3614 232.041" stroke="#C6E400" stroke-width="2" stroke-linecap="round" stroke-linejoin="round"/>
<path d="M82.0977 176.855C83.3035 177.627 84.0079 179.567 85.9889 178.526" stroke="#C6E400" stroke-width="2" stroke-linecap="round" stroke-linejoin="round"/>
<path d="M117.618 272.598C115.883 272.13 113.446 274.263 112.414 271.193" stroke="#C6E400" stroke-width="2" stroke-linecap="round" stroke-linejoin="round"/>
<path d="M143.162 180.334C145.728 177.726 146.372 182.231 148.366 181.739" stroke="#C6E400" stroke-width="2" stroke-linecap="round" stroke-linejoin="round"/>
<path d="M219.039 330.99C218.496 331.625 217.536 331.043 216.992 331.678" stroke="#C6E400" stroke-width="2" stroke-linecap="round" stroke-linejoin="round"/>
<path d="M162.817 123.652C162.667 122.83 161.545 122.849 161.395 122.027" stroke="#C6E400" stroke-width="2" stroke-linecap="round" stroke-linejoin="round"/>
</g>
<path d="M49.808 17.1397C48.9436 19.0743 47.0589 19.5843 45.3643 20.445C41.9093 22.2027 41.1664 24.6808 42.3634 28.5983C43.0685 30.9059 45.2751 33.152 44.0322 35.9748" stroke="#C6E400" stroke-width="2" stroke-linecap="round" stroke-linejoin="round"/>
<path d="M38.1008 1.00023C36.4345 5.61703 39.7218 9.43915 40.1357 13.7088C40.2111 14.4261 40.3786 14.9213 41.1095 14.8157C45.2959 14.1863 48.8177 17.3381 52.9684 16.8834" stroke="#C6E400" stroke-width="2" stroke-linecap="round" stroke-linejoin="round"/>
<path d="M17.707 13.3838C21.0028 14.8749 22.8404 18.146 25.9834 19.9588C28.5276 21.4283 26.5406 24.6379 25.8015 25.9556C24.5931 28.1226 24.1996 30.1806 23.9427 32.4801C27.7446 31.8182 29.4863 28.0443 32.4474 26.684C37.5291 28.5874 39.3644 33.9912 44.0417 35.9754" stroke="#C6E400" stroke-width="2" stroke-linecap="round" stroke-linejoin="round"/>
<path d="M36.7535 4.54641C34.0192 7.6824 34.4028 12.8068 30.1196 14.9547" stroke="#C6E400" stroke-width="2" stroke-linecap="round" stroke-linejoin="round"/>
<path d="M31.2895 13.485C29.9795 12.517 28.5873 12.3994 27.1336 13.1341" stroke="#C6E400" stroke-width="2" stroke-linecap="round" stroke-linejoin="round"/>
<defs>
<clipPath id="clip0_3098_180">
<rect width="455.201" height="343.764" fill="white" transform="translate(89.6484 20.9775) rotate(15.1164)"/>
</clipPath>
</defs>
</svg>
