<svg width="276" height="300" viewBox="0 0 276 300" fill="none" xmlns="http://www.w3.org/2000/svg">
<g clip-path="url(#clip0_2996_3157)">
<path d="M183.506 209.159C179.556 193.167 181.905 178.616 190.368 164.017C197.809 151.178 202.376 136.701 200.443 121.236C197.914 101.065 188.753 85.2237 170.017 75.9279C150.343 66.1581 130.237 65.1203 110.466 75.0152C93.0533 83.7306 80.5809 97.0247 75.6361 116.629C72.9494 127.249 70.8547 137.498 73.5605 148.612C75.872 158.076 81.7842 165.098 86.7105 172.888C91.3163 180.167 98.6601 184.263 105.58 188.601C111.354 192.209 116.875 196.23 122.782 199.678C125.67 201.365 128.216 204.801 129.328 207.355C131.073 211.342 134.564 213.816 136.104 217.655" stroke="#C6E400" stroke-width="2" stroke-linecap="round" stroke-linejoin="round"/>
<path d="M133.528 227.943C133.637 224.924 135.121 223.253 137.927 221.825C146.45 217.471 156.052 218.423 164.922 215.842C169.779 214.426 174.609 213.058 179.277 211.067C182.553 209.658 186.258 209.001 188.892 211.825C190.94 214.021 190.554 217.268 190.108 220.3C189.702 223.089 187.813 223.7 185.682 224.229C173.993 227.123 162.71 231.759 150.552 232.738C149.913 232.794 149.288 233.242 148.656 233.228C141.837 233.111 138.707 236.681 139.267 243.939C145.485 248.255 152.119 244.704 158.521 244.028C167.268 243.105 175.696 240.211 184.52 239.511C192.279 238.906 195.65 232.721 191.807 226.606" stroke="#C6E400" stroke-width="2" stroke-linecap="round" stroke-linejoin="round"/>
<path d="M144.297 248.343C149.903 248.819 157.205 260.705 161.059 264.374C165.063 268.192 171.063 269.54 176.672 267.545C181.892 265.672 186.873 257.152 186.623 251.927" stroke="#C6E400" stroke-width="2" stroke-linecap="round" stroke-linejoin="round"/>
<path d="M97.7431 100.266C93.3427 108.132 87.7999 115.28 85.9373 124.605C84.7449 130.575 86.9131 135.876 86.8018 141.516" stroke="#C6E400" stroke-width="2" stroke-linecap="round" stroke-linejoin="round"/>
<path d="M191.478 237.602C194.69 244.098 191.999 248.81 185.051 251.14C177.054 253.818 168.878 255.223 160.63 256.47C159.242 256.681 158.111 257.367 157.015 258.179" stroke="#C6E400" stroke-width="2" stroke-linecap="round" stroke-linejoin="round"/>
<path d="M212.381 154.04C219.734 154.421 226.445 157.576 233.546 159.052C235.14 159.383 235.492 161.222 236.51 162.274" stroke="#C6E400" stroke-width="2" stroke-linecap="round" stroke-linejoin="round"/>
<path d="M157.643 133.928C155.299 144.602 159.136 155.126 158.404 165.757C157.856 173.635 159.46 181.209 162.085 188.58C165.017 196.847 167.541 205.269 171.044 213.335" stroke="#C6E400" stroke-width="2" stroke-linecap="round" stroke-linejoin="round"/>
<path d="M56.1016 58.77C63.3522 63.0698 68.9422 69.186 74.4122 75.4587" stroke="#C6E400" stroke-width="2" stroke-linecap="round" stroke-linejoin="round"/>
<path d="M54.3698 115.835C48.7197 115.931 43.8113 112.83 38.3367 112.14C35.5786 111.795 32.8744 110.424 30.0394 111.75" stroke="#C6E400" stroke-width="2" stroke-linecap="round" stroke-linejoin="round"/>
<path d="M155.948 147.354C154.056 155.99 152.677 164.606 157.618 172.787" stroke="#C6E400" stroke-width="2" stroke-linecap="round" stroke-linejoin="round"/>
<path d="M110.093 154.066C108.228 150.576 110.185 148.213 112.798 146.58C115.505 144.893 117.663 146.799 119.493 148.701C125 154.473 128.793 161.434 133.21 167.988C143.141 182.727 145.373 199.992 150.099 216.462" stroke="#C6E400" stroke-width="2" stroke-linecap="round" stroke-linejoin="round"/>
<path d="M235.897 106.535C229.504 108.068 223.361 110.595 216.754 111.219" stroke="#C6E400" stroke-width="2" stroke-linecap="round" stroke-linejoin="round"/>
<path d="M140.27 121.221C137.309 121.559 134.373 123.938 132.711 125.264C130.291 127.197 130.236 129.969 131.37 132.408C133.424 136.814 135.189 141.505 139.446 144.473" stroke="#C6E400" stroke-width="2" stroke-linecap="round" stroke-linejoin="round"/>
<path d="M213.881 54.7629C208.141 59.4559 203.55 65.2322 198.558 70.6437" stroke="#C6E400" stroke-width="2" stroke-linecap="round" stroke-linejoin="round"/>
<path d="M79.4881 193.322C74.6884 199.129 69.3404 204.49 65.33 210.923" stroke="#C6E400" stroke-width="2" stroke-linecap="round" stroke-linejoin="round"/>
<path d="M135.27 123.345C137.289 122.124 138.367 121.344 140.717 121.259C142.835 121.607 144.076 124.575 142.874 129.293C141.648 134.072 143.253 139.408 140.724 144.115" stroke="#C6E400" stroke-width="2" stroke-linecap="round" stroke-linejoin="round"/>
<path d="M169.557 25.6048C166.949 32.0264 164.583 38.5304 162.777 45.2323" stroke="#C6E400" stroke-width="2" stroke-linecap="round" stroke-linejoin="round"/>
<path d="M140.523 148.266C137.062 154.762 132.939 160.599 125.662 163.362C124.479 163.816 123.653 163.352 122.77 162.78" stroke="#C6E400" stroke-width="2" stroke-linecap="round" stroke-linejoin="round"/>
<path d="M140.445 145.558C144.6 148.064 148.595 150.97 153.679 151.387" stroke="#C6E400" stroke-width="2" stroke-linecap="round" stroke-linejoin="round"/>
<path d="M31.7355 166.489C40.1981 164.158 48.5842 161.603 56.6734 158.135" stroke="#C6E400" stroke-width="2" stroke-linecap="round" stroke-linejoin="round"/>
<path d="M106.586 29.6223C111.17 36.8255 113.095 45.0063 115.215 53.105" stroke="#C6E400" stroke-width="2" stroke-linecap="round" stroke-linejoin="round"/>
<path d="M167.676 128.387C163.489 125.912 160.233 127.28 157.909 132.489" stroke="#C6E400" stroke-width="2" stroke-linecap="round" stroke-linejoin="round"/>
<path d="M135.25 226.779C136.861 228.729 137.475 231.259 139.095 233.193" stroke="#C6E400" stroke-width="2" stroke-linecap="round" stroke-linejoin="round"/>
<path d="M168.561 131.55C165.47 134.736 167.717 139.688 164.409 143.126C162.285 145.332 160.411 147.167 157.393 147.645" stroke="#C6E400" stroke-width="2" stroke-linecap="round" stroke-linejoin="round"/>
<path d="M111.08 155.154C113.722 158.835 116.761 161.886 121.783 161.693" stroke="#C6E400" stroke-width="2" stroke-linecap="round" stroke-linejoin="round"/>
</g>
<defs>
<clipPath id="clip0_2996_3157">
<rect width="215.395" height="250.676" fill="white" transform="translate(0 58.1327) rotate(-15.6577)"/>
</clipPath>
</defs>
</svg>
