<svg width="265" height="181" viewBox="0 0 265 181" fill="none" xmlns="http://www.w3.org/2000/svg">
<g clip-path="url(#clip0_2996_3062)">
<path d="M-12.981 33.58C-8.69099 35.37 -7.76099 38.84 -7.94099 43.07C-8.12099 47.23 -8.22098 51.41 -7.91098 55.55C-7.57098 60.16 -0.300984 64.87 4.00902 63.53C5.95902 62.92 4.45901 61.15 5.20901 60.1C-2.03098 58.28 -2.37099 57.75 -2.01099 50.56C-1.85099 47.24 -1.99098 43.9 -1.98098 40.57C-1.96098 37.25 -2.46099 34.15 -5.85099 32.08C-0.170986 25.96 -2.10099 18.54 -2.13099 11.6C-2.15099 7.78001 -1.81098 5.27001 2.51902 5.13001C3.96902 5.08001 5.04902 5.01001 5.04902 3.11001C5.04902 1.21001 3.94902 1.22001 2.51902 1.07001C-3.67098 0.440013 -7.85099 3.95001 -7.98099 10.1C-8.04099 12.76 -8.08099 15.43 -7.98099 18.09C-7.77099 23.18 -7.45098 28.23 -13.481 30.62C-14.901 31.18 -12.961 32.25 -13.501 33.08" stroke="#C6E400" stroke-width="2" stroke-linecap="round" stroke-linejoin="round"/>
<path d="M195.911 135.99C195.241 134.66 194.591 133.32 193.761 131.75C185.741 137.18 178.211 143.27 170.461 149.03C167.011 151.6 166.811 154.49 169.971 156.89C178.101 163.07 186.611 168.72 195.271 174.34C196.601 170.46 195.831 168.03 192.461 165.87C186.331 161.93 179.961 158.28 174.481 153.31C179.931 148.86 186.111 145.19 191.971 141.08C193.801 139.8 195.401 138.72 195.901 136.49" stroke="#C6E400" stroke-width="2" stroke-linecap="round" stroke-linejoin="round"/>
<path d="M226.89 126.99C227.39 132.03 224.12 136.02 222.62 140.39C218.19 153.33 212.89 166 208.37 178.94C208.23 179.34 207.73 179.61 207.39 179.95C205.25 180.14 203.56 179.06 201.84 178.08C207.9 159.51 215.79 141.82 222.43 123.7C224.87 124.58 226.07 125.62 227.37 126.5" stroke="#C6E400" stroke-width="2" stroke-linecap="round" stroke-linejoin="round"/>
<path d="M254.878 153.97C248.338 157.76 242.548 162.63 236.338 166.88C233.198 169.03 233.408 171.19 234.928 174.69C244.798 167.91 254.708 161.87 263.168 153.77C255.618 144.35 244.738 140.01 236.558 132.78C234.158 133.53 233.628 135.09 232.828 136.59C239.458 143.38 248.428 147.1 255.378 153.47" stroke="#C6E400" stroke-width="2" stroke-linecap="round" stroke-linejoin="round"/>
<path d="M94.4583 106.01C83.8183 104.87 73.1183 105.44 62.4683 105.26C55.2083 105.14 47.7683 105.36 40.4783 106.49C39.3083 106.67 38.2283 105.65 36.9883 106.01" stroke="#C6E400" stroke-width="2" stroke-linecap="round" stroke-linejoin="round"/>
<path d="M27.4883 138.48C34.6283 139.62 41.8183 138.71 48.9783 138.96C51.4883 139.05 54.0183 138.7 56.4783 139.48" stroke="#C6E400" stroke-width="2" stroke-linecap="round" stroke-linejoin="round"/>
<path d="M74.9705 17.6C77.5605 13.6 75.4605 9.48004 74.7705 5.65004C74.1005 1.94004 69.1305 0.720041 62.0405 1.68004C62.5905 3.31004 61.7905 5.14004 64.9805 5.24004C69.1105 5.37004 70.8305 7.87004 69.9505 11.6C68.2705 18.7 68.4605 25.46 73.3405 31.71C68.8005 36.26 69.3305 41.99 69.5305 47.57C69.6405 50.61 69.1605 53.62 68.7905 56.54C68.3505 60.02 64.4005 59.07 61.9805 60.06C63.5705 64.1 69.5005 64.28 73.0005 60.59C75.9405 57.49 75.4105 53.75 75.4605 50.07C75.5005 47.07 75.5105 44.08 75.4605 41.08C75.4105 37.63 76.6205 34.64 80.0105 33.76C81.6605 33.33 81.1205 32.08 82.1305 31.49C80.8205 28.83 76.2205 29.8 75.9705 26.1C75.7905 23.44 76.3305 20.73 75.4605 18.11" stroke="#C6E400" stroke-width="2" stroke-linecap="round" stroke-linejoin="round"/>
<path d="M127.441 138.48C122.251 139 117.121 137.46 111.951 138C101.811 139.05 91.5609 137.68 81.4609 139.48" stroke="#C6E400" stroke-width="2" stroke-linecap="round" stroke-linejoin="round"/>
<path d="M12 48.57C13.5 53.01 16.52 55.01 18.97 53.03C21.13 51.29 21.96 48.91 19.95 46.61C18.15 44.55 15.92 43.18 13.49 46.06C12.95 46.7 12.8 47.63 12 48.07" stroke="#C6E400" stroke-width="2" stroke-linecap="round" stroke-linejoin="round"/>
<path d="M38.9913 50.0699C39.2413 49.1099 38.0213 48.9999 37.9413 48.0799C37.7413 45.7999 36.1213 44.7499 33.9913 44.5999C31.6013 44.4399 30.8913 46.7099 30.1313 48.1399C29.2813 49.7499 30.2913 51.5199 31.9913 52.5699C32.7013 53.0099 32.9613 54.0599 33.8413 54.0899C36.2513 53.7599 37.5213 52.0299 38.9813 50.5699" stroke="#C6E400" stroke-width="2" stroke-linecap="round" stroke-linejoin="round"/>
<path d="M12.5 90.03C26.33 89.96 40.16 90.57 53.98 89.57C57.46 89.32 61 89.37 64.47 90.03" stroke="#C6E400" stroke-width="2" stroke-linecap="round" stroke-linejoin="round"/>
<path d="M51.9805 54.06C57.3105 51.26 58.0705 48.18 53.9605 45.6C51.2305 43.89 49.2905 45.73 47.4805 47.56C47.8005 50.35 48.0905 53.15 51.4805 54.05" stroke="#C6E400" stroke-width="2" stroke-linecap="round" stroke-linejoin="round"/>
<path d="M100.959 123.5C95.4487 123.19 89.9688 124.05 84.4688 124" stroke="#C6E400" stroke-width="2" stroke-linecap="round" stroke-linejoin="round"/>
<path d="M79.4688 90.0299C89.2587 87.6299 99.1287 90.2599 108.959 89.5799C115.109 89.1599 121.269 88.8299 127.449 89.0299" stroke="#C6E400" stroke-width="2" stroke-linecap="round" stroke-linejoin="round"/>
<path d="M72.4683 124.5C67.6583 123.69 62.7783 123.76 57.9783 124.08C48.9183 124.69 39.9383 124.61 30.9783 123.04C30.2083 122.91 29.4083 123.75 28.4883 123.5" stroke="#C6E400" stroke-width="2" stroke-linecap="round" stroke-linejoin="round"/>
<path d="M47.4783 154.97C40.9783 154.58 34.4883 156.47 27.9883 154.97" stroke="#C6E400" stroke-width="2" stroke-linecap="round" stroke-linejoin="round"/>
<path d="M80.4705 139.48C76.8005 139.71 72.9105 137.56 69.4805 140.48" stroke="#C6E400" stroke-width="2" stroke-linecap="round" stroke-linejoin="round"/>
<path d="M128.439 104.52C120.769 104.38 113.119 105.26 105.449 105.02" stroke="#C6E400" stroke-width="2" stroke-linecap="round" stroke-linejoin="round"/>
</g>
<defs>
<clipPath id="clip0_2996_3062">
<rect width="279.16" height="180.97" fill="white" transform="translate(-15)"/>
</clipPath>
</defs>
</svg>
