<svg width="383" height="260" viewBox="0 0 383 260" fill="none" xmlns="http://www.w3.org/2000/svg">
<g clip-path="url(#clip0_2996_3000)">
<path d="M13.8462 235.393C9.58301 233.616 5.96119 234.52 3.2901 238.03C-0.0223587 242.383 0.0153684 251.278 2.84492 255.014C5.68955 258.772 9.54528 259.382 13.4387 258.592C17.4077 257.786 18.7055 253.959 19.4449 250.442C20.7201 244.379 19.5279 238.963 14.2235 235.032" stroke="#C6E400" stroke-width="2" stroke-linecap="round" stroke-linejoin="round"/>
<path d="M160.898 100.324C161.464 102.998 163.773 101.258 164.671 101.251C180.132 101.153 195.585 100.95 211.053 101.379C221.224 101.665 231.411 101.537 241.597 101.462C248.381 101.409 255.171 101.319 261.955 101.484C272.02 101.733 282.071 101.138 292.114 100.889C295.064 100.814 295.374 101.861 295.079 103.706C293.608 112.948 297.479 121.7 297.418 130.806C297.366 138.458 297.464 146.111 297.381 153.756C297.29 161.837 295.585 169.776 295.057 177.827C294.876 180.576 294.83 183.371 294.77 185.563C292.363 188.123 290.069 185.661 287.979 186.489" stroke="#C6E400" stroke-width="2" stroke-linecap="round" stroke-linejoin="round"/>
<path d="M241.975 26.58C241.892 34.3604 242.443 42.1257 242.353 49.9061C242.33 51.6686 242.285 53.416 242.028 55.1784C241.545 58.4322 239.795 59.9536 236.724 58.8766C233.162 57.6338 229.684 58.2213 226.145 58.5377C225.904 58.5603 225.662 58.8691 225.39 58.8841C222.501 59.0197 218.23 57.9728 217.468 60.9102C216.819 63.3807 216.411 66.5591 216.721 69.4664C217.294 74.8442 217.438 80.252 217.822 85.6448C217.996 88.04 218.064 90.4803 217.098 92.7926" stroke="#C6E400" stroke-width="2" stroke-linecap="round" stroke-linejoin="round"/>
<path d="M338.127 7.38879C333.479 10.5898 329.623 14.7173 325.345 18.3477C317.384 25.1037 308.865 31.182 301.214 38.2845C298.43 40.8755 294.68 42.6003 293.254 46.5168" stroke="#C6E400" stroke-width="2" stroke-linecap="round" stroke-linejoin="round"/>
<path d="M69.2739 238.406C70.036 244.289 69.4022 250.201 69.6965 256.091C69.8172 258.479 68.2779 258.727 66.3387 259.254C63.8714 253.041 65.9086 246.51 64.8976 240.282C63.4036 239.317 61.2229 240.816 60.1816 238.602C63.147 237.284 65.2824 233.91 68.7684 234.685C70.617 235.868 68.4439 237.163 69.6587 238.03" stroke="#C6E400" stroke-width="2" stroke-linecap="round" stroke-linejoin="round"/>
<path d="M96.046 235.017C89.4362 238.941 87.58 249.388 92.2431 255.36C96.0989 260.301 103.659 259.872 106.678 255.006C109.907 249.787 109.56 241.652 105.501 237.254C102.897 234.429 99.9772 233.631 96.4233 235.017" stroke="#C6E400" stroke-width="2" stroke-linecap="round" stroke-linejoin="round"/>
<path d="M299.291 57.0538C305.048 61.1135 308.557 67.2219 312.699 72.6071C319.083 80.8997 326.138 88.6274 332.438 96.9652C334.385 99.5486 336.641 101.801 338.882 104.083" stroke="#C6E400" stroke-width="2" stroke-linecap="round" stroke-linejoin="round"/>
<path d="M136.393 194.759C144.821 194.503 153.234 195.135 161.655 195.158C166.076 195.173 170.468 194.887 174.852 194.39C176.353 194.224 177.87 194.39 179.379 194.39C190.569 194.36 201.766 193.953 212.934 194.149C226.251 194.382 239.622 194.006 252.91 195.489C255.037 195.723 257.158 195.105 259.316 195.098C271.381 195.045 283.446 195.346 295.519 195.188C297.798 195.158 299.925 192.786 302.302 194.766" stroke="#C6E400" stroke-width="2" stroke-linecap="round" stroke-linejoin="round"/>
<path d="M240.465 94.6755C239.183 93.8621 237.757 93.8998 236.315 93.9148C229.766 93.9977 223.239 92.883 216.712 93.2445C210.042 93.6136 203.38 93.2294 196.717 93.365C185.655 93.591 174.609 94.427 163.54 94.3065C158.733 94.2538 153.919 94.2387 149.211 95.4287C146.721 96.0539 144.155 95.9484 141.673 95.73C138.745 95.4739 137.1 96.7393 136.014 99.1871" stroke="#C6E400" stroke-width="2" stroke-linecap="round" stroke-linejoin="round"/>
<path d="M237.448 242.165C229.804 241.208 222.115 241.585 214.449 241.374C205.523 241.125 196.574 241.283 187.595 240.071C186.214 236.531 186.47 236.357 190.311 235.717C196.355 234.708 202.376 235.815 208.428 235.582C215.837 235.296 223.255 235.875 230.694 234.836C232.4 234.595 234.701 234.926 236.723 235.243C238.881 235.582 241.364 236.132 243.492 234.633" stroke="#C6E400" stroke-width="2" stroke-linecap="round" stroke-linejoin="round"/>
<path d="M241.975 127.032C235.954 126.468 229.933 126.4 223.874 126.588C214.578 126.874 205.267 126.468 195.971 127.032" stroke="#C6E400" stroke-width="2" stroke-linecap="round" stroke-linejoin="round"/>
<path d="M243.484 163.908C232.415 163.886 221.353 164.119 210.299 164.662" stroke="#C6E400" stroke-width="2" stroke-linecap="round" stroke-linejoin="round"/>
<path d="M270.633 92.0469C273.153 94.2161 276.141 92.9582 278.933 93.1691C285.218 93.6361 291.564 93.4553 297.781 94.6906C299.426 95.0144 302.377 99.1118 302.294 101.085C302.052 106.877 302.852 112.624 303.108 118.393C303.44 125.797 303.418 133.193 303.44 140.597C303.448 145.109 303.44 149.628 303.44 154.14" stroke="#C6E400" stroke-width="2" stroke-linecap="round" stroke-linejoin="round"/>
<path d="M56.8315 247.06C57.752 241.057 53.2776 233.526 46.2528 234.52C43.725 234.874 42.1405 236.29 40.6918 237.728C37.4774 240.914 37.583 250.683 40.1938 254.615C42.2537 257.725 45.0002 258.968 48.539 258.697C52.3646 258.403 54.681 256.053 56.0619 252.694C56.7485 251.03 57.2616 249.282 57.2088 247.437" stroke="#C6E400" stroke-width="2" stroke-linecap="round" stroke-linejoin="round"/>
<path d="M160.529 116.503C160.356 131.687 160.997 146.856 161.261 162.026C161.359 167.426 160.891 172.819 160.439 178.196C160.34 179.379 160.303 180.464 160.529 181.593" stroke="#C6E400" stroke-width="2" stroke-linecap="round" stroke-linejoin="round"/>
<path d="M304.195 155.254C305.29 160.753 305.154 166.432 304.331 171.772C303.448 177.473 303.652 183.085 303.456 188.741C303.26 194.39 302.83 200.024 302.611 205.665C302.498 208.701 300.596 211.028 297.254 213.687C293.006 210.983 288.539 213.453 284.223 213.785C278.941 214.191 273.636 214.229 268.362 214.545C260.477 215.012 252.532 214.734 244.616 215.012C236.92 215.283 236.867 214.289 238.905 222.612C239.508 225.067 240.542 227.342 241.244 229.737C242.27 233.254 244.601 235.205 248.389 234.987C250.057 234.889 251.566 235.424 252.464 236.576C253.384 237.758 253.445 239.212 251.415 239.928C247.235 241.404 242.949 241.652 238.588 241.404" stroke="#C6E400" stroke-width="2" stroke-linecap="round" stroke-linejoin="round"/>
<path d="M79.83 248.936C79.8149 245.923 79.8979 242.903 79.6036 240.063C78.1172 239.25 76.51 241.562 75.3027 239.536C78.0493 235.665 80.245 234.52 84.2743 235.062C84.8176 242.278 84.8628 249.568 84.6591 256.844C84.5761 259.759 82.1465 258.358 80.0111 259.028C80.5921 255.443 79.664 252.619 79.83 249.696" stroke="#C6E400" stroke-width="2" stroke-linecap="round" stroke-linejoin="round"/>
<path d="M137.145 104.083C136.074 104.806 135.742 105.943 135.659 107.096C134.535 122.122 134.082 137.2 134.286 152.242C134.444 164.398 133.788 176.615 135.297 188.734C135.765 192.515 135.765 196.258 135.289 200.024C135.161 201.01 135.251 202.027 135.274 203.029C135.433 209.785 137.319 211.141 143.921 212.218C149.573 213.144 155.33 212.534 161.019 214.372C163.751 215.253 167.765 214.078 171.092 214.116C177.747 214.191 184.418 214.289 191.08 214.613C197.977 214.952 204.904 214.839 211.815 214.658C216.229 214.545 220.598 215.313 225.012 215.095C228.023 214.944 231.041 215.042 234.059 215.08C234.904 215.088 235.44 214.824 235.568 213.943" stroke="#C6E400" stroke-width="2" stroke-linecap="round" stroke-linejoin="round"/>
<path d="M303.818 145.094C315.001 144.815 326.191 144.71 337.381 144.71C343.04 144.71 348.691 145.621 354.35 144.71" stroke="#C6E400" stroke-width="2" stroke-linecap="round" stroke-linejoin="round"/>
<path d="M160.529 101.454C155.149 102.599 149.716 101.643 144.042 101.853C142.865 105.228 143.175 108.971 143.363 112.353C143.967 123.199 142.661 133.939 142.548 144.725C142.495 149.975 142.412 155.254 142.669 160.534C142.993 167.283 143.793 174.061 143.159 180.84C143.039 182.151 143.439 183.356 143.597 184.598C143.808 186.225 144.804 186.873 146.578 186.903C158.265 187.092 169.953 187.769 181.641 187.543C185.406 187.468 189.179 187.265 192.952 187.235C194.936 187.22 196.928 187.212 198.234 189.118" stroke="#C6E400" stroke-width="2" stroke-linecap="round" stroke-linejoin="round"/>
<path d="M51.9286 249.312C52.9473 244.68 52.0871 240.507 48.9934 236.915C45.1226 236.613 44.1794 239.506 43.2966 242.172C42.2403 245.373 42.9043 248.732 43.3796 251.918C43.7116 254.14 45.2584 256.287 48.1484 256.046C50.8345 255.827 51.3099 253.681 51.4985 251.557C51.5589 250.886 52.1625 250.382 51.9211 249.681" stroke="#C6E400" stroke-width="2" stroke-linecap="round" stroke-linejoin="round"/>
<path d="M192.953 111.607C184.668 110.771 176.361 111.457 168.068 111.231" stroke="#C6E400" stroke-width="2" stroke-linecap="round" stroke-linejoin="round"/>
<path d="M382.246 172.186C368.197 173.587 354.102 173.271 339.531 173.308C340.203 171.034 339.124 168.97 339.479 166.515C340.037 162.658 338.966 162.395 334.363 161.958C324.667 161.031 315.001 162.53 305.32 162.026" stroke="#C6E400" stroke-width="2" stroke-linecap="round" stroke-linejoin="round"/>
<path d="M87.3772 154.125C87.2489 154.253 87.1206 154.486 86.9999 154.486C80.2618 154.328 80.4203 154.35 79.4167 160.135C78.3679 166.191 79.877 172.156 79.711 178.211C79.462 187.084 79.7864 196.009 79.8393 204.919" stroke="#C6E400" stroke-width="2" stroke-linecap="round" stroke-linejoin="round"/>
<path d="M23.2699 239.159C23.0435 240.508 24.0621 240.515 24.7639 240.251C27.9782 239.039 28.2348 240.854 28.1895 243.302C28.114 247.437 28.1593 251.579 28.1744 255.714C28.1744 257.176 27.8801 259.104 30.0532 258.998C31.2982 258.938 31.849 257.959 32.1433 256.121C33.2978 248.988 32.5583 242.029 31.8717 234.663C27.8952 234.497 25.6316 237.186 22.8926 238.783" stroke="#C6E400" stroke-width="2" stroke-linecap="round" stroke-linejoin="round"/>
<path d="M217.845 142.089C210.722 140.869 203.538 140.951 196.348 140.959" stroke="#C6E400" stroke-width="2" stroke-linecap="round" stroke-linejoin="round"/>
<path d="M232.929 133.811C228.53 133.728 224.116 133.6 219.732 133.555C211.568 133.465 203.381 133.909 195.225 134.564" stroke="#C6E400" stroke-width="2" stroke-linecap="round" stroke-linejoin="round"/>
<path d="M198.989 120.261C191.195 119.516 183.4 120.555 175.613 120.261" stroke="#C6E400" stroke-width="2" stroke-linecap="round" stroke-linejoin="round"/>
<path d="M366.03 57.8071C365.026 58.8088 364.015 59.8106 363.011 60.8198C360.989 59.7729 358.537 59.4264 357.292 57.0916C357.096 56.715 356.168 56.6095 355.466 56.6698C344.91 57.5887 334.354 57.6565 323.79 56.6924C323.413 56.6547 323.035 56.6924 322.658 56.6924" stroke="#C6E400" stroke-width="2" stroke-linecap="round" stroke-linejoin="round"/>
<path d="M288.734 187.611C285.724 185.035 282.185 187.43 278.895 186.609C276.292 185.962 273.394 186.504 270.633 186.466C268.746 186.444 266.709 187.054 265.328 184.99C264.71 184.071 263.57 184.561 262.718 184.629C254.297 185.306 245.854 185.465 237.44 186.368C232.098 186.941 226.643 186.474 221.24 186.474" stroke="#C6E400" stroke-width="2" stroke-linecap="round" stroke-linejoin="round"/>
<path d="M324.93 56.3007C324.9 53.6947 323.323 51.3975 323.428 48.7764C323.541 45.9067 320.795 46.4189 319.633 46.3059C315.528 45.8917 311.348 46.3059 307.205 46.1101C298.128 45.6958 289.179 47.8048 280.042 47.0892C276.02 46.7729 271.727 46.8256 267.614 47.6466C265.758 48.0157 264.528 48.7689 264.559 51.0359C264.672 59.0574 264.332 67.0864 264.34 75.1153C264.34 81.2011 266.053 87.8668 261.963 93.5533" stroke="#C6E400" stroke-width="2" stroke-linecap="round" stroke-linejoin="round"/>
<path d="M346.05 7.01221C345.529 6.63562 345.801 6.36447 346.004 5.86737C346.721 4.05972 346.895 1.82275 344.873 1.15242C343.386 0.662847 341.334 0.406764 339.621 1.70978C337.833 3.07304 337.84 4.94095 338.218 6.62055C338.761 9.04581 342.745 9.36968 345.68 7.3888" stroke="#C6E400" stroke-width="2" stroke-linecap="round" stroke-linejoin="round"/>
<path d="M79.8305 208.678C80.1323 209.529 79.506 210.071 79.0608 210.538C75.439 214.334 75.4767 215.449 79.4607 218.831C81.9508 218.251 84.071 216.97 84.2748 214.312C84.4785 211.751 82.3808 210.591 80.2153 209.8" stroke="#C6E400" stroke-width="2" stroke-linecap="round" stroke-linejoin="round"/>
<path d="M192.953 151.488C190.343 150.803 187.671 151.127 185.038 151.142C179.379 151.165 173.712 150.765 168.068 151.488" stroke="#C6E400" stroke-width="2" stroke-linecap="round" stroke-linejoin="round"/>
<path d="M223.873 204.543C222.772 201.455 220.335 200.491 217.482 201.244C215.181 201.846 214.2 204.663 215.196 206.426C216.094 208.023 220.297 208.972 221.98 207.925C223.081 207.239 223.27 205.944 223.866 204.919" stroke="#C6E400" stroke-width="2" stroke-linecap="round" stroke-linejoin="round"/>
<path d="M204.271 164.285C197.759 165.219 191.172 164.149 184.66 165.038" stroke="#C6E400" stroke-width="2" stroke-linecap="round" stroke-linejoin="round"/>
<path d="M355.098 144.341C356.599 143.934 357.671 143.128 358.561 141.75C359.421 140.409 363.752 140.499 364.884 141.727C366.446 143.414 366.099 145.229 364.899 146.977C363.601 148.86 361.285 147.956 359.497 148.935C359.15 147.12 357.656 145.975 356.984 144.348" stroke="#C6E400" stroke-width="2" stroke-linecap="round" stroke-linejoin="round"/>
<path d="M220.478 187.235C216.931 188.884 213.181 187.717 209.537 187.935C205.908 188.161 202.248 187.95 198.604 187.988" stroke="#C6E400" stroke-width="2" stroke-linecap="round" stroke-linejoin="round"/>
<path d="M99.0651 236.9C94.4925 238.926 94.6887 243.249 94.6887 247.06C94.6887 249.403 94.5982 252.144 96.4317 254.208C98.884 256.98 100.114 257.063 102.438 254.193C106.135 249.629 104.445 240.221 99.4424 236.907" stroke="#C6E400" stroke-width="2" stroke-linecap="round" stroke-linejoin="round"/>
<path d="M133.75 152.618C122.847 154.004 111.869 152.957 100.943 153.703C96.6871 153.989 92.4013 153.748 88.123 153.748" stroke="#C6E400" stroke-width="2" stroke-linecap="round" stroke-linejoin="round"/>
<path d="M253.285 140.959C247.241 140.635 241.22 141.418 235.184 141.335" stroke="#C6E400" stroke-width="2" stroke-linecap="round" stroke-linejoin="round"/>
<path d="M194.462 179.334C187.935 180.087 181.386 179.469 174.852 179.71" stroke="#C6E400" stroke-width="2" stroke-linecap="round" stroke-linejoin="round"/>
<path d="M240.467 134.188C246.518 133.352 252.54 134.09 258.568 134.564" stroke="#C6E400" stroke-width="2" stroke-linecap="round" stroke-linejoin="round"/>
<path d="M10.0734 236.9C4.36144 238.715 6.00635 243.897 5.32726 247.836C5.0858 249.222 5.67435 251.09 6.21008 252.732C6.94199 254.984 8.37562 256.294 10.4506 256.362C12.337 256.422 13.6801 254.66 14.1404 253.056C15.4608 248.408 15.3627 243.678 13.4084 239.182C12.9331 238.09 11.7258 237.291 10.4506 236.9" stroke="#C6E400" stroke-width="2" stroke-linecap="round" stroke-linejoin="round"/>
<path d="M277.417 127.032C268.868 127.183 260.326 125.654 251.77 126.995C251.015 127.115 250.238 127.123 249.514 127.409" stroke="#C6E400" stroke-width="2" stroke-linecap="round" stroke-linejoin="round"/>
<path d="M271.387 93.5458C264.973 94.5927 258.56 93.5985 252.161 93.6738C248.796 93.719 245.332 93.5156 241.975 94.299" stroke="#C6E400" stroke-width="2" stroke-linecap="round" stroke-linejoin="round"/>
<path d="M199.744 215.457C199.578 222.167 198.974 228.78 195.217 234.648" stroke="#C6E400" stroke-width="2" stroke-linecap="round" stroke-linejoin="round"/>
<path d="M235.184 171.809C233.479 169.113 230.997 171.282 229.156 171.29C222.629 171.32 216.094 171.832 209.545 171.809" stroke="#C6E400" stroke-width="2" stroke-linecap="round" stroke-linejoin="round"/>
<path d="M241.599 18.3025C239.584 18.9954 238.678 20.6976 237.705 22.6936C239.003 23.9213 240.135 25.4502 241.983 26.1959C247.378 22.4751 247.378 20.901 241.976 18.3025" stroke="#C6E400" stroke-width="2" stroke-linecap="round" stroke-linejoin="round"/>
<path d="M193.707 158.267C187.671 158.297 181.642 157.77 175.605 158.267" stroke="#C6E400" stroke-width="2" stroke-linecap="round" stroke-linejoin="round"/>
<path d="M336.617 107.472C337.289 111.208 340.156 112.797 343.408 111.238C345.679 110.146 345.377 108.007 344.812 106.38C344.102 104.309 342.261 103.345 340.02 104.49C338.753 105.137 337.606 106.041 336.617 107.096" stroke="#C6E400" stroke-width="2" stroke-linecap="round" stroke-linejoin="round"/>
<path d="M264.597 163.532C259.572 162.402 254.539 164.383 249.514 163.532" stroke="#C6E400" stroke-width="2" stroke-linecap="round" stroke-linejoin="round"/>
<path d="M190.689 140.959C187.957 141.607 185.03 140.063 182.396 141.712" stroke="#C6E400" stroke-width="2" stroke-linecap="round" stroke-linejoin="round"/>
<path d="M160.529 105.589C160.77 108.979 159.563 112.36 160.529 115.75" stroke="#C6E400" stroke-width="2" stroke-linecap="round" stroke-linejoin="round"/>
<path d="M184.66 171.809C190.44 172.57 196.227 172.065 202.007 171.809" stroke="#C6E400" stroke-width="2" stroke-linecap="round" stroke-linejoin="round"/>
<path d="M187.678 133.058C186.07 133.028 184.863 134.617 183.15 134.188" stroke="#C6E400" stroke-width="2" stroke-linecap="round" stroke-linejoin="round"/>
<path d="M357.738 56.3007C360.168 51.8645 361.926 51.7063 366.031 55.5476" stroke="#C6E400" stroke-width="2" stroke-linecap="round" stroke-linejoin="round"/>
<path d="M241.975 171.056C245.446 172.028 249.075 170.732 252.531 171.809" stroke="#C6E400" stroke-width="2" stroke-linecap="round" stroke-linejoin="round"/>
<path d="M199.744 157.89C202.762 158.011 205.781 157.582 208.791 157.89" stroke="#C6E400" stroke-width="2" stroke-linecap="round" stroke-linejoin="round"/>
<path d="M152.985 137.193C154.132 138.872 152.215 140.778 153.362 142.458" stroke="#C6E400" stroke-width="2" stroke-linecap="round" stroke-linejoin="round"/>
<path d="M205.771 171.809C206.805 171.711 207.635 173.263 208.79 172.186" stroke="#C6E400" stroke-width="2" stroke-linecap="round" stroke-linejoin="round"/>
</g>
<defs>
<clipPath id="clip0_2996_3000">
<rect width="383" height="260" fill="white"/>
</clipPath>
</defs>
</svg>
