<svg width="463" height="235" viewBox="0 0 463 235" fill="none" xmlns="http://www.w3.org/2000/svg">
<g opacity="0.54" clip-path="url(#clip0_2996_2876)">
<path d="M51.8875 145.862C52.8776 151.099 53.8579 156.338 54.8579 161.574C55.5187 164.997 57.7549 166.077 61.5666 164.814C60.7771 160.638 59.9727 156.383 59.1665 152.119C58.9491 150.969 58.184 149.506 58.6313 148.75C59.7256 146.894 60.4963 144.296 63.2698 144.27C66.012 144.24 66.5834 146.778 67.0506 148.603C68.0276 152.479 69.4014 156.3 69.787 160.278C70.0079 162.577 70.2021 164.25 73.0652 163.729C75.7219 163.247 76.2944 161.592 75.7827 159.154C75.0242 155.573 74.6059 151.907 73.6644 148.38C72.7396 144.942 74.0005 142.353 77.0638 141.815C80.1192 141.288 81.019 144.11 81.651 146.86C82.774 151.777 82.265 157.267 86.165 161.262C89.8256 160.438 90.6427 158.462 89.8284 154.962C88.9634 151.248 88.756 147.298 87.5011 143.729C84.7613 135.912 79.1125 136.125 74.2528 140.189C73.1902 141.082 72.1223 142.108 71.2259 143.234C66.8223 138.998 64.2482 139.648 58.918 142.569C58.1152 143.005 57.8593 144.397 56.5138 143.471C53.8462 141.635 52.5764 143.584 51.3033 145.464" stroke="#C6E400" stroke-width="2" stroke-linecap="round" stroke-linejoin="round"/>
<path d="M98.9861 66.7959C101.853 66.1319 102.288 68.1664 102.667 70.1709C104.327 78.8435 106.044 87.4951 107.555 96.1857C108.28 100.343 106.087 101.338 100.596 99.5367C95.9092 103.975 91.4089 104.825 87.3412 102.043C82.656 98.8474 80.2975 91.3246 82.2216 85.7298C84.1538 80.1233 88.0041 78.4184 96.7392 79.5656C96.5037 76.9743 97.2803 74.5681 96.0888 71.8725C95.5753 70.7178 94.6854 67.1409 98.5877 67.3801" stroke="#C6E400" stroke-width="2" stroke-linecap="round" stroke-linejoin="round"/>
<path d="M228.118 117.622C232.819 117.131 233.144 113.202 233.685 109.924C234.262 106.355 231.102 102.454 227.104 101.602C220.803 100.249 214.709 101.656 208.659 103.461C205.999 104.249 206.023 105.832 206.443 108.001C208.131 116.659 209.762 125.337 211.372 134.019C211.763 136.082 212.937 137.448 214.95 136.792C216.646 136.238 218.795 135.546 218.31 132.707C217.718 129.257 215.719 126.002 216.803 122.316C224.662 119.1 226.298 120.378 229.53 128.052C231.839 133.538 231.623 133.63 238.267 131.417C235.406 127.317 236.499 121.147 230.865 118.64" stroke="#C6E400" stroke-width="2" stroke-linecap="round" stroke-linejoin="round"/>
<path d="M25.7726 196.046C27.7457 196.04 28.9786 196.855 29.3902 198.925C30.2408 203.262 30.3589 207.87 33.7489 211.321C31.4565 216.313 33.9521 221.062 34.3047 225.942C34.4025 227.267 32.8426 229.19 30.5307 229.342C30.0577 229.37 28.6413 230.707 29.5541 231.929C30.1537 232.731 31.0469 233.203 32.2574 232.985C37.4959 232.055 40.6003 227.805 39.9164 222.357C39.8331 221.701 39.9658 222.51 39.8235 221.866C38.7658 217.455 37.0488 212.895 43.6408 210.081C36.2929 209.435 36.4805 204.291 35.6377 199.779C34.2784 192.535 29.0511 190.348 22.3819 194.153C22.4217 196.141 24.5256 195.641 25.3957 196.637" stroke="#C6E400" stroke-width="2" stroke-linecap="round" stroke-linejoin="round"/>
<path d="M60.5009 73.0546C56.3145 71.8514 55.6562 75.6905 54.3645 77.848C46.7082 90.643 52.678 107.039 63.8887 112.614C65.4164 113.373 66.6971 114.118 68.1133 112.243C56.9033 101.02 54.3032 88.1283 60.5957 73.5558" stroke="#C6E400" stroke-width="2" stroke-linecap="round" stroke-linejoin="round"/>
<path d="M162.752 135.069C165.122 135.222 167.247 133.222 169.634 134.867C170.645 127.939 167.666 123.597 161.412 122.652C154.13 121.546 148.383 127.486 147.556 132.854C146.6 139.049 150.888 146.278 156.453 147.455C162.072 148.642 169.806 144.228 171.145 139.09C169.112 137.113 167.229 137.968 165.681 139.634C160.057 145.685 157.615 145.312 154.118 137.74C156.355 135.363 159.944 137.279 162.272 135.17" stroke="#C6E400" stroke-width="2" stroke-linecap="round" stroke-linejoin="round"/>
<path d="M194.337 68.0954C197.922 68.2725 199.019 71.22 199.294 73.753C199.564 76.2564 199.865 78.7642 200.442 81.1689C201.43 85.2666 206.409 87.9687 209.987 86.3865C210.935 85.963 212.765 85.7901 212.592 83.9604C212.445 82.482 211.558 81.2351 210.092 81.4511C206.044 82.0536 206.249 79.1041 205.601 76.6417C204.625 72.9894 205.506 68.4975 201.122 66.3037C203.064 62.792 202.683 59.1086 201.583 55.551C200.564 52.263 201.135 49.6821 204.393 48.5063C206.242 47.8414 206.319 47.0126 205.856 45.5838C205.242 43.7357 203.819 44.3914 202.643 44.685C197.341 45.9824 194.11 50.0434 195.791 55.5978C197.462 61.1031 196.385 64.9299 192.391 68.4632" stroke="#C6E400" stroke-width="2" stroke-linecap="round" stroke-linejoin="round"/>
<path d="M438.989 84.3703C436.095 87.2581 435.653 90.6288 436.784 94.4554C437.398 96.5173 437.608 98.7063 438.029 100.825C439.209 106.637 438.745 111.773 432.321 114.239C433.048 116.035 433.309 118.174 435.196 118.031C437.504 117.859 440.046 117.847 441.902 115.877C445.098 112.485 445.184 108.367 444.733 104.147C444.52 102.162 444.24 100.139 443.6 98.2654C441.464 91.9727 441.709 86.3798 447.601 82.8234C448.017 80.6076 445.998 79.7783 445.683 79.7259C439.52 78.7843 438.907 74.0355 438.165 69.301C437.801 66.9985 437.388 64.7054 436.867 62.4326C434.821 53.4971 429.118 50.5147 420.504 53.8326C420.61 56.9776 422.709 57.7411 425.357 58.024C428.431 58.3486 429.232 60.3242 430.09 63.1947C431.451 67.7004 431.367 72.4791 433.394 76.8486C434.924 80.1519 436.664 82.7846 440.377 83.6396" stroke="#C6E400" stroke-width="2" stroke-linecap="round" stroke-linejoin="round"/>
<path d="M70.2311 97.6553C72.5176 99.3602 71.6882 102.133 72.4453 104.361C73.0062 106.036 73.6378 107.331 75.513 106.752C77.091 106.271 78.7851 105.381 78.3979 103.225C77.2414 96.8388 76.0143 90.4556 74.789 84.0823C74.4231 82.1466 73.1566 81.9077 71.3792 82.142C68.7278 82.4906 68.5103 84.5163 68.688 86.2637C68.9862 89.2401 69.5116 92.2346 70.7591 95.0112C71.1616 95.9019 70.6391 96.5299 70.148 97.1621" stroke="#C6E400" stroke-width="2" stroke-linecap="round" stroke-linejoin="round"/>
<path d="M32.3883 80.4051C25.9778 79.3882 20.7958 80.7241 20.9025 89.2019C20.923 90.979 21.3512 92.2211 18.9494 92.7057C17.1157 93.0727 17.2453 95.4806 18.517 95.5862C24.4254 96.0466 22.594 100.84 23.5496 103.957C24.333 106.485 24.7461 109.155 25.0517 111.794C25.3263 114.215 26.9702 115.482 28.8838 115.538C31.7385 115.619 31.6226 112.852 31.4725 111.089C31.1954 107.793 30.6897 104.419 29.6302 101.291C28.1259 96.8328 29.3127 94.0133 33.603 92.8053C33.714 90.6471 32.0471 90.4432 31.1963 90.4107C29.4848 90.3475 27.9141 91.2449 27.2054 88.5191C26.4646 85.6773 28.5358 84.7361 29.9727 83.5078C30.9089 82.6999 33.2645 83.4249 32.4831 80.9062" stroke="#C6E400" stroke-width="2" stroke-linecap="round" stroke-linejoin="round"/>
<path d="M328.159 119.562C333.775 118.205 335.271 113.2 336.125 108.835C338.094 98.8457 333.939 82.3606 319.516 78.8489C330.013 91.4175 334.287 104.389 327.575 119.163" stroke="#C6E400" stroke-width="2" stroke-linecap="round" stroke-linejoin="round"/>
<path d="M314.478 79.435C311.437 83.2667 308.021 86.9453 307.226 92.0009C305.35 103.825 309.491 114.695 318.003 119.396C319.368 120.155 321.17 121.667 322.485 119.098C312.844 109.064 310.551 93.6521 316.815 81.0287" stroke="#C6E400" stroke-width="2" stroke-linecap="round" stroke-linejoin="round"/>
<path d="M129.417 136.283C127.354 137.049 127.414 136.346 126.747 134.274C125.209 129.476 125.625 124.136 122.644 119.621C119.073 119.034 117.456 120.816 118.034 124.197C119.598 133.386 121.43 142.535 123.22 151.682C123.637 153.832 125.434 153.329 126.993 153.014C128.962 152.611 130.493 152.577 129.574 149.443C128.848 146.944 127.723 143.686 130.38 141.159C136.043 142.531 137.341 153.378 146.464 148.397C143.006 143.402 138.545 139.778 134.6 135.598C136.194 132.722 138.649 130.151 141.176 127.424C139.389 126.368 137.865 125.577 136.457 127.818C134.744 130.543 132.334 132.709 130.224 135.113" stroke="#C6E400" stroke-width="2" stroke-linecap="round" stroke-linejoin="round"/>
<path d="M297.401 118.253C297.466 120.215 298.372 121.346 300.397 120.699C302.546 120.008 303.918 118.273 303.533 116.076C301.979 107.048 300.248 98.0525 298.44 89.0822C298.058 87.1699 296.467 86.0764 294.514 86.8324C292.342 87.6705 292.075 89.3289 292.249 91.7588C292.793 99.3194 295.252 106.457 296.604 113.824C296.864 115.2 296.293 116.539 296.797 117.858" stroke="#C6E400" stroke-width="2" stroke-linecap="round" stroke-linejoin="round"/>
<path d="M95.5912 99.9742C97.8421 97.9916 100.595 96.6163 99.8881 92.5569C98.6358 85.3949 98.1434 84.2972 92.1582 81.8159C86.6179 87.555 88.0683 96.5725 95.0999 100.067" stroke="#C6E400" stroke-width="2" stroke-linecap="round" stroke-linejoin="round"/>
<path d="M214.629 113.568C213.935 117.22 215.547 117.882 218.907 117.41C223.953 116.7 226.417 114.982 226.41 111.34C226.41 106.923 223.491 104.402 219.125 105.105C217.149 105.418 215.195 105.848 213.23 106.22C212.679 108.634 213.952 110.846 214.037 113.181" stroke="#C6E400" stroke-width="2" stroke-linecap="round" stroke-linejoin="round"/>
<path d="M9.66239 116.22C10.8434 118.052 12.7 119.044 14.5915 118.229C16.7843 117.285 16.6834 115.136 16.1985 112.948C15.1637 108.229 14.2664 103.483 13.5086 98.7205C13.1588 96.5477 12.3589 94.8466 10.4824 93.6952C6.34487 94.3655 5.94886 96.9541 6.63302 100.519C7.6014 105.587 8.92352 110.589 9.56951 115.728" stroke="#C6E400" stroke-width="2" stroke-linecap="round" stroke-linejoin="round"/>
<path d="M108.749 153.41C108.52 153.118 108.739 152.822 109.033 152.329C110.563 149.709 110.628 146.125 109.23 145.188C107.204 143.841 103.37 145.146 101.541 147.639C99.607 150.274 101.032 152.213 102.804 153.995C103.582 154.774 104.794 154.83 105.902 154.447C108.425 153.584 110.664 153.852 113.202 155.001C116.584 156.529 119.27 154.047 117.756 150.72C116.282 147.498 117.117 144.114 115.718 140.857C113.567 135.829 110.578 132.456 106.323 132.507C100.098 132.575 95.2759 135.817 93.6389 141.154C96.4478 142.231 98.1308 141.282 99.9762 138.877C103.5 134.262 106.242 134.823 108.79 140.172C107.94 142.083 106.033 141.63 104.547 141.952C101.417 142.625 98.7134 143.879 96.7577 146.508C94.4239 149.666 94.0561 153.858 95.9713 155.806C99.1459 159.032 104.257 159.206 107.685 156.074C108.145 155.652 109.362 155.523 108.919 154.365" stroke="#C6E400" stroke-width="2" stroke-linecap="round" stroke-linejoin="round"/>
<path d="M400.69 91.6115C405.484 93.9822 406.697 98.5667 406.748 103.147C406.78 105.95 407.781 108.447 408.163 111.062C409.029 116.984 410.098 117.26 417.35 116.968C418.272 118.29 418.099 119.849 418.779 122.265C415.124 121.124 412.517 123.164 409.569 122.479C405.237 121.477 401.581 116.621 401.33 110.339C401.244 108.269 400.611 106.373 400.426 104.373C399.861 98.2612 399.213 97.7935 390.866 93.479C390.165 91.2808 391.391 89.8483 393.092 89.0484C396.166 87.602 396.538 85.3132 395.908 82.3588C395.005 78.1227 394.162 73.8755 393.495 69.5949C392.571 63.6837 395.129 59.6685 400.838 57.5105C402.271 56.9647 403.758 56.541 405.314 55.565C407.134 58.3555 407.811 60.5377 403.766 62.1268C400.308 63.4828 399.591 66.1524 400.536 69.8005C401.651 74.1388 403.02 78.6328 402.492 83.1087C402.139 86.0862 402.882 90.3421 398.051 91.113" stroke="#C6E400" stroke-width="2" stroke-linecap="round" stroke-linejoin="round"/>
<path d="M173.396 110.687C172.097 111.788 172.854 113.1 173.073 114.31C174.621 122.658 176.298 130.991 177.738 139.36C178.105 141.519 178.941 143.518 181.059 143.149C183.256 142.764 184.808 141.178 184.254 138.138C182.702 129.608 180.339 121.251 178.907 112.709C178.392 109.61 176.71 109.379 174.277 110.022" stroke="#C6E400" stroke-width="2" stroke-linecap="round" stroke-linejoin="round"/>
<path d="M283.376 119.378C285.321 122.074 287.492 123.973 291.408 121.218C289.753 115.964 289.739 110.237 287.833 104.786C287.083 102.648 285.479 101.862 283.933 101.005C277.775 97.6095 269.125 101.382 266.984 108.361C269.943 108.993 271.789 107.667 273.681 105.508C277.198 101.504 280.465 102.525 282.281 108.095C279.228 109.547 275.548 109.032 272.636 111.18C268.677 114.086 266.322 119.071 268.051 121.756C270.604 125.731 277.36 126.53 281.516 123.21C282.107 122.732 282.786 122.125 283.243 121.418" stroke="#C6E400" stroke-width="2" stroke-linecap="round" stroke-linejoin="round"/>
<path d="M153.256 87.5456C155.048 85.0187 153.586 82.4556 153.371 79.9723C150.342 78.9676 147.789 79.6232 145.557 81.8669C143.973 83.4487 143.596 85.4334 144.625 87.1113C145.878 89.1643 147.775 90.4748 150.457 88.6752C151.135 88.2214 152.413 87.6642 153.444 88.538" stroke="#C6E400" stroke-width="2" stroke-linecap="round" stroke-linejoin="round"/>
<path d="M189.48 109.682C187.638 110.325 188.647 111.732 188.501 112.9C188.297 114.567 189.614 117.066 186.365 117.426C185.218 117.551 185.027 118.533 185.235 119.634C185.499 121.029 186.253 121.68 187.586 121.194C190.122 120.287 190.306 121.962 190.613 123.695C191.193 126.975 191.89 130.232 192.449 133.515C192.978 136.631 194.17 139.276 197.699 139.586C201.041 139.88 204.459 139.814 206.477 135.85C204.472 134.285 202.44 134.629 200.337 135.077C197.637 130.377 197.907 125.024 196.554 120.557C198.242 118.131 202.577 120.121 201.901 116.005C200.178 114.213 197.962 115.681 195.955 115.073C194.229 113.16 196.36 107.262 190.469 109.475" stroke="#C6E400" stroke-width="2" stroke-linecap="round" stroke-linejoin="round"/>
<path d="M117.428 83.6434C120.539 83.9507 123.446 83.1773 126.278 82.0618C125.806 78.4363 124.288 76.3825 120.236 76.9654C116.054 77.5627 116.275 80.2382 116.843 83.245" stroke="#C6E400" stroke-width="2" stroke-linecap="round" stroke-linejoin="round"/>
<path d="M248.787 108.636C246.273 110.465 244.719 112.53 247.295 116.032C249.761 115.566 252.375 115.072 254.959 114.583C255.677 109.552 252.384 109.147 249.278 108.543" stroke="#C6E400" stroke-width="2" stroke-linecap="round" stroke-linejoin="round"/>
<path d="M157.059 126.488C153.772 127.781 153.275 130.052 154.57 133.563C157.449 133.019 160.062 132.525 162.637 132.038C163.35 127.415 160.504 126.569 157.457 125.903" stroke="#C6E400" stroke-width="2" stroke-linecap="round" stroke-linejoin="round"/>
<path d="M282.789 118.98C284.196 116.464 284.308 113.665 281.894 112.147C279.689 110.763 277.067 112.347 275.272 113.887C273.635 115.296 273.231 117.357 274.725 119.497C277.566 123.6 279.844 120.249 282.308 119.071" stroke="#C6E400" stroke-width="2" stroke-linecap="round" stroke-linejoin="round"/>
<path d="M246.51 120.76C247.263 123.508 247.912 126.133 251.639 126.467C255.054 126.768 256.37 125.328 257.631 122.311C258.804 119.525 261.539 119.456 263.939 121.546C260.743 127.626 254.962 131.019 248.782 129.928C243.896 129.06 240.699 125.553 239.611 121.037C238.491 116.404 239.395 111.928 243.665 108.516C249.308 104.019 254.933 103.892 259.501 108.626C261.312 110.502 263.089 112.313 262.256 115.229C261.389 118.232 258.416 116.718 256.649 117.815" stroke="#C6E400" stroke-width="2" stroke-linecap="round" stroke-linejoin="round"/>
<path d="M124.447 96.554C118.194 98.6317 113.805 96.1947 110.81 88.9652C108.534 83.4928 111.478 76.1887 117.157 74.0873C123.816 71.6274 129.167 72.8547 132.285 78.7989C134.35 82.7236 133.556 84.0646 129.38 85.0169C124.767 86.0822 119.313 85.1696 116.073 89.9955" stroke="#C6E400" stroke-width="2" stroke-linecap="round" stroke-linejoin="round"/>
<path d="M352.887 107.763C351.572 105.385 351.431 101.677 346.931 103.23C344.972 103.906 343.788 104.964 344.158 106.868C344.471 108.519 345.049 110.608 347.666 109.757C348.481 109.491 348.725 110.351 349.001 110.36C350.596 112.765 344.951 114.128 348.624 116.924C351.386 114.682 352.798 111.921 352.498 108.345" stroke="#C6E400" stroke-width="2" stroke-linecap="round" stroke-linejoin="round"/>
<path d="M8.45598 91.036C10.6972 89.5945 12.8166 87.9929 10.82 85.0221C10.038 83.8469 8.63854 83.7655 7.13649 84.1105C5.3139 84.5365 4.19434 86.3664 4.37747 87.2273C4.69728 88.7036 5.27511 91.0064 7.86197 90.6394" stroke="#C6E400" stroke-width="2" stroke-linecap="round" stroke-linejoin="round"/>
<path d="M68.5362 72.5529C66.255 74.4293 65.3458 76.4026 68.5894 78.1098C72.3537 80.095 73.1683 77.2441 74.0293 74.6388C73.0489 72.1984 70.7777 72.9433 69.0275 72.46" stroke="#C6E400" stroke-width="2" stroke-linecap="round" stroke-linejoin="round"/>
<path d="M132.42 93.0116C130.423 95.852 127.735 96.869 124.326 96.3329C125.99 93.6165 127.988 91.4272 129.727 89.0528C130.131 88.4981 131.592 87.2347 133.226 88.717C134.763 90.1159 132.845 90.8449 133.207 91.8451" stroke="#C6E400" stroke-width="2" stroke-linecap="round" stroke-linejoin="round"/>
<path d="M117.652 90.2161C118.992 93.2094 121.255 94.6846 124.568 94.4959" stroke="#C6E400" stroke-width="2" stroke-linecap="round" stroke-linejoin="round"/>
<path d="M244.852 120.056L256.633 117.829" stroke="#C6E400" stroke-width="2" stroke-linecap="round" stroke-linejoin="round"/>
<path d="M345.18 85.8329C344.299 87.2004 342.317 86.1911 341.047 88.1409C341.81 89.6454 340.497 92.7127 344.027 93.0834C345.949 93.2899 347.752 92.4911 348.587 90.2876C349.707 87.3281 347.156 86.9148 345.662 85.7419" stroke="#C6E400" stroke-width="2" stroke-linecap="round" stroke-linejoin="round"/>
</g>
<defs>
<clipPath id="clip0_2996_2876">
<rect width="440.86" height="155.44" fill="white" transform="translate(0 81.8975) rotate(-10.7059)"/>
</clipPath>
</defs>
</svg>
