<svg width="82" height="88" viewBox="0 0 82 88" fill="none" xmlns="http://www.w3.org/2000/svg">
<path d="M53.5255 5.92609C48.3739 2.12433 42.4171 3.27346 36.9749 4.15237C18.7302 7.07673 5.16147 25.8812 3.30591 41.9104C1.03441 61.6269 16.1083 79.7755 32.8529 83.2176C46.6038 86.0515 58.7223 84.0529 69.0587 74.5323C72.0765 71.7548 75.2385 68.6341 76.308 64.2701" stroke="#C6E400" stroke-width="2" stroke-linecap="round" stroke-linejoin="round"/>
<path d="M55.6047 6.10143C42.5433 7.24673 36.566 16.5707 32.5314 27.1775C28.3456 38.2107 30.5396 48.5382 38.0831 57.9686C46.1092 68.0043 56.5015 70.7115 68.5518 69.2717C69.7356 69.1312 70.7033 68.7006 71.6721 69.6188" stroke="#C6E400" stroke-width="2" stroke-linecap="round" stroke-linejoin="round"/>
</svg>
