<svg width="600" height="434" viewBox="0 0 600 434" fill="none" xmlns="http://www.w3.org/2000/svg">
<g clip-path="url(#clip0_2996_2913)">
<path d="M541.259 223.064C550.58 222.596 553.874 220.134 556.326 211.799C558.746 203.586 555.829 193.762 549.809 189.835C545.177 186.819 537.293 189.102 533.765 195.318C529.549 202.752 528.345 214.403 536.611 221.228C538.01 222.381 539.722 221.679 540.73 223.008" stroke="#C6E400" stroke-width="2" stroke-linecap="round" stroke-linejoin="round"/>
<path d="M312.936 251.842C315.315 255.023 315.276 259.077 315.487 262.535C316.716 282.672 309.523 298.711 291.412 309.102C286.111 312.146 280.062 314.637 275.751 318.486C270.479 323.175 264.094 324.069 258.666 327.876C257.622 325.111 259.174 324.207 260.395 323.139" stroke="#C6E400" stroke-width="2" stroke-linecap="round" stroke-linejoin="round"/>
<path d="M385.505 154.026C387.132 156.077 385.693 157.994 384.953 159.699C382.715 164.895 379.278 169.53 378.379 175.351C377.986 177.9 375.11 179.121 373.81 181.249C368.477 190.011 362.653 198.511 357.377 207.215C352.478 215.291 346.887 222.64 340.242 228.844C334.03 234.635 326.454 239.098 319.817 244.581C308.32 254.088 295.42 261.51 282.619 268.982C273.308 274.417 262.818 277.578 252.793 281.552C250.736 282.371 247.58 281.823 245.142 280.09C238.784 275.58 234.474 269.121 229.54 263.361C227.377 260.847 225.554 258.518 222.523 257.237" stroke="#C6E400" stroke-width="2" stroke-linecap="round" stroke-linejoin="round"/>
<path d="M507.187 199.296C506.433 196.827 506.491 194.155 505.214 191.81C502.741 187.262 499.182 184.556 493.782 184.561C488.916 184.568 485.334 187.329 483.468 191.093C480.328 197.425 479.571 204.409 482.162 211.267C483.898 215.868 487.644 218.474 492.455 218.87C497.629 219.307 502.175 215.665 504.736 210.611C506.505 207.132 505.938 203.31 507.133 199.814" stroke="#C6E400" stroke-width="2" stroke-linecap="round" stroke-linejoin="round"/>
<path d="M232.711 285.283C231.975 296.733 229.428 307.57 221.181 316.138C215.297 322.249 209.045 328.005 201.997 332.785C199.744 334.309 197.773 336.213 194.926 338.085C194.644 331.39 197.744 325.399 196.109 318.873C180.588 332.786 163.646 343.202 143.302 347.204" stroke="#C6E400" stroke-width="2" stroke-linecap="round" stroke-linejoin="round"/>
<path d="M406.175 305.679C410.235 302.697 414.988 303.046 419.393 303.784C427.843 305.208 435.207 309.573 441.966 314.546C452.35 322.187 457.886 332.954 459.208 345.686C460.223 355.475 457.784 365.024 453.051 373.251C446.395 384.787 436.381 392.839 422.668 395.383C415.759 396.661 409.373 394.961 403.018 392.647" stroke="#C6E400" stroke-width="2" stroke-linecap="round" stroke-linejoin="round"/>
<path d="M518.932 221.178C524.728 220.57 522.758 215.27 522.99 212.644C523.608 205.575 524.156 198.47 524.578 191.364C524.835 187.078 523.113 186.033 519.129 187.736C516.795 188.731 514.785 190.234 512.59 191.439C511.592 191.982 511.647 193.064 512.569 194.292C513.962 195.518 515.87 193.609 518.031 194.785C517.461 201.543 516.872 208.645 516.263 215.735C516.078 217.926 515.832 220.091 518.432 221.147" stroke="#C6E400" stroke-width="2" stroke-linecap="round" stroke-linejoin="round"/>
<path d="M301.108 168.838C295.489 173.173 294.56 178.971 295.454 185.613C296.453 192.995 300.034 198.547 306.086 202.707C310.329 205.627 320.192 207.777 324.745 204.794" stroke="#C6E400" stroke-width="2" stroke-linecap="round" stroke-linejoin="round"/>
<path d="M165.983 295.323C167.207 295.322 168.41 295.455 169.64 295.632C169.36 298.201 167.792 299.92 165.986 301.607C155.84 311.102 149.111 322.883 145.111 335.939C144.086 339.272 140.953 343.043 143.301 347.204" stroke="#C6E400" stroke-width="2" stroke-linecap="round" stroke-linejoin="round"/>
<path d="M618.924 195.147C609.653 193.036 604.343 199.29 602.353 205.762C599.264 215.832 603.45 224.864 609.831 228.361C611.931 229.511 613.994 228.755 616.079 228.847" stroke="#C6E400" stroke-width="2" stroke-linecap="round" stroke-linejoin="round"/>
<path d="M572.191 191.201C569.948 191.493 568.185 192.913 566.205 193.812C564.421 194.613 561.968 195.284 562.876 197.671C563.868 200.296 566.199 198.213 568.99 198.125C568.37 205.475 567.838 212.76 567.099 220.027C566.843 222.567 567.082 224.574 569.82 225.485C574.669 224.316 572.386 220.244 573.107 217.408C575.146 209.372 574.48 201.15 574.613 192.995C574.627 191.972 573.539 191.838 572.665 191.785" stroke="#C6E400" stroke-width="2" stroke-linecap="round" stroke-linejoin="round"/>
<path d="M270.635 275.948C274.504 288.613 271.992 300.645 266.38 312.091C264.724 315.464 264.809 319.915 260.979 322.143" stroke="#C6E400" stroke-width="2" stroke-linecap="round" stroke-linejoin="round"/>
<path d="M204.616 258.883C192.627 259.586 182.487 265.045 173.305 272.049C168.374 275.805 163.476 280.024 160.048 285.433C157.633 289.244 155.005 292.985 153.409 297.639C157.544 297.246 161.178 296.214 164.9 295.755" stroke="#C6E400" stroke-width="2" stroke-linecap="round" stroke-linejoin="round"/>
<path d="M337.334 123.84C339.261 135.222 347.649 142.591 354.489 150.801C360.836 158.416 368.63 164.636 376.199 171.037C376.903 171.629 377.57 171.529 378.268 171.692" stroke="#C6E400" stroke-width="2" stroke-linecap="round" stroke-linejoin="round"/>
<path d="M225.623 282.604C226.88 282.846 227.526 283.622 226.987 284.8C223.062 293.356 217.61 300.675 209.523 305.743C208.716 306.25 207.606 307.254 206.377 306.063C205.314 305.022 205.822 303.35 206.219 302.986C208.725 300.688 204.808 296.395 208.911 294.765" stroke="#C6E400" stroke-width="2" stroke-linecap="round" stroke-linejoin="round"/>
<path d="M351.488 117.204C341.029 121.361 330.039 124.249 320.127 129.738C314.99 132.577 309.906 135.536 304.723 138.298C301.228 140.157 297.119 140.238 293.785 143.041C286.171 149.446 279.226 156.597 271.382 162.752C269.476 164.254 267.689 165.964 265.712 167.449C262.985 169.498 260.181 171.478 259.106 175.172C258.795 176.254 258.875 177.652 257.479 178.82C246.281 188.143 239.14 200.463 232.43 213.134C230.888 216.036 228.967 218.833 227.101 221.603C224.838 224.978 224.177 227.724 227.107 231.694C230.674 236.533 233.014 242.533 237.683 246.347C241.981 249.857 245.181 254.215 249.08 257.984C251.382 260.207 254.335 262.537 252.122 266.564C251.962 266.854 252.7 267.282 253.058 267.135" stroke="#C6E400" stroke-width="2" stroke-linecap="round" stroke-linejoin="round"/>
<path d="M81.5135 32.2603C72.2552 34.0926 63.5528 36.0347 56.218 43.4665C49.4891 50.2908 45.013 57.3262 44.1055 66.7123C43.9541 68.2574 43.3721 69.2016 41.7619 69.6826C36.1397 71.3305 32.6869 76.0369 28.4335 79.5675C27.1059 80.6683 25.8856 82.6042 26.4456 84.5231C27.1212 86.8072 29.3808 87.1862 31.3838 87.0103C36.8022 86.5371 42.2557 87.259 47.6103 87.2928C69.9615 87.4128 89.5419 78.9549 109.137 70.0697C110.737 69.3473 112.33 68.8231 114.015 68.4426" stroke="#C6E400" stroke-width="2" stroke-linecap="round" stroke-linejoin="round"/>
<path d="M458.271 351.337C453.18 351.158 449.505 354.653 445.35 356.645C433.039 362.538 420.459 368.021 407.309 371.208C399.788 373.031 392.157 374.927 384.491 376.371C380.29 377.167 378.13 378.835 379.216 383.318" stroke="#C6E400" stroke-width="2" stroke-linecap="round" stroke-linejoin="round"/>
<path d="M220.311 178.212C208.86 182.348 198.375 188.667 192.25 199.003C187.222 207.487 180.459 214.968 176.833 224.208C175.914 226.535 173.391 227.922 173.534 231.928C181.229 230.267 187.579 225.45 194.994 224.131" stroke="#C6E400" stroke-width="2" stroke-linecap="round" stroke-linejoin="round"/>
<path d="M427.463 307.476C421.334 308.684 415.28 306.772 409.22 306.543C400.115 306.192 393.242 309.888 386.692 314.595C376.122 322.172 370.713 333.06 369.355 345.921C369.145 347.921 368.716 349.778 367.754 351.505C371.914 354.282 385.436 351.524 394.934 345.989" stroke="#C6E400" stroke-width="2" stroke-linecap="round" stroke-linejoin="round"/>
<path d="M301.457 164.695C304.153 163.626 306.152 161.39 308.472 159.819C317.227 153.908 325.833 156.203 332.97 160.904C340.485 165.847 343.785 174.229 342.804 183.859C341.94 192.36 338.468 198.78 330.687 202.703C325.682 205.218 320.362 204.393 315.514 203.199C312.715 202.513 309.256 201.97 306.879 199.626" stroke="#C6E400" stroke-width="2" stroke-linecap="round" stroke-linejoin="round"/>
<path d="M592.397 193.43C594.615 193.806 595.496 195.156 595.208 197.327C594.088 205.754 593.641 214.27 592.854 222.725C592.367 227.995 590.426 226.692 587.607 226.255C586.136 217.526 588.579 209.283 588.501 200.787C586.977 198.88 583.945 202.2 582.362 199.139C584.485 195.554 588.535 194.683 591.932 192.868" stroke="#C6E400" stroke-width="2" stroke-linecap="round" stroke-linejoin="round"/>
<path d="M52.0725 89.834C61.2405 104.316 74.6792 107.625 90.5697 104.575" stroke="#C6E400" stroke-width="2" stroke-linecap="round" stroke-linejoin="round"/>
<path d="M129.662 50.42C131.142 56.8185 130.193 59.0074 124.482 61.9548C123.815 62.2958 123.042 62.5234 122.336 62.8401C116.76 65.2971 113.268 68.2435 115.699 75.5067C116.484 77.8628 115.613 82.3585 112.239 85.1372C109.799 87.1479 108.944 90.9445 106.648 93.3541C102.594 97.623 98.1835 101.527 92.2704 103.15" stroke="#C6E400" stroke-width="2" stroke-linecap="round" stroke-linejoin="round"/>
<path d="M537.738 202.921C536.271 207.533 536.306 211.959 539.23 216.117C542.088 220.185 545.404 220.078 547.641 215.771C550.454 210.331 550.825 204.569 549.552 198.711C549.002 196.176 548.204 193.108 544.86 193.181C541.778 193.245 539.877 195.437 538.602 198.268C537.996 199.617 538.404 201.231 537.283 202.36" stroke="#C6E400" stroke-width="2" stroke-linecap="round" stroke-linejoin="round"/>
<path d="M494.478 188.823C487.262 193.86 484.964 204.09 488.74 211.917C489.89 214.293 491.826 214.53 493.343 214.658C495.359 214.828 497.047 212.806 497.753 211.015C499.831 205.732 500.637 200.154 499.691 194.501C499.262 191.903 497.365 190.081 494.998 188.867" stroke="#C6E400" stroke-width="2" stroke-linecap="round" stroke-linejoin="round"/>
<path d="M76.2118 318.035C75.5121 315.54 76.0165 316.011 78.0145 313.911C81.7115 310.03 86.3679 309.534 91.0142 307.919C97.2985 305.742 101.155 309.267 105.449 311.333C109.481 313.274 112.194 317.581 112.818 322.203C113.127 324.498 113.584 326.523 114.507 328.598C115.236 330.249 115.943 332.044 114.632 333.815" stroke="#C6E400" stroke-width="2" stroke-linecap="round" stroke-linejoin="round"/>
<path d="M488.201 325.141C488.806 329.374 485.109 331.77 483.025 333.895C476.704 340.346 469.34 345.778 460.135 347.845" stroke="#C6E400" stroke-width="2" stroke-linecap="round" stroke-linejoin="round"/>
<path d="M367.265 351.485C355.813 356.122 346.297 363.736 336.868 371.43C334.115 373.676 335.157 380.539 338.595 381.844C342.985 383.511 347.709 384.192 352.181 381.548" stroke="#C6E400" stroke-width="2" stroke-linecap="round" stroke-linejoin="round"/>
<path d="M83.5921 32.4355C95.9223 34.9927 110.297 41.7166 113.789 57.9882C113.978 58.851 115.061 59.162 114.717 60.1368" stroke="#C6E400" stroke-width="2" stroke-linecap="round" stroke-linejoin="round"/>
<path d="M471.393 71.9624C468.896 74.2715 468.806 77.6831 467.642 80.5647C464.986 87.1159 464.395 87.6725 457.493 88.1145C455.042 88.2735 452.386 87.3801 450.086 88.9738" stroke="#C6E400" stroke-width="2" stroke-linecap="round" stroke-linejoin="round"/>
<path d="M209.197 266.589C198.513 270.56 189.516 276.492 184.943 287.524" stroke="#C6E400" stroke-width="2" stroke-linecap="round" stroke-linejoin="round"/>
<path d="M193.331 287.187C190.834 293.343 186.296 298.387 183.936 304.649C183.168 306.676 182.068 308.549 181.895 311.347C185.747 311.337 188.694 309.15 191.588 307.345C196.415 304.333 200.965 300.88 206.006 298.179" stroke="#C6E400" stroke-width="2" stroke-linecap="round" stroke-linejoin="round"/>
<path d="M223.556 226.532C219.009 230.435 215.074 240.987 215.922 248.535C219.507 242.637 221.009 235.748 224.332 229.734" stroke="#C6E400" stroke-width="2" stroke-linecap="round" stroke-linejoin="round"/>
<path d="M137.229 313.786C129.644 318.845 122.892 324.956 115.922 330.788" stroke="#C6E400" stroke-width="2" stroke-linecap="round" stroke-linejoin="round"/>
<path d="M387.452 155.759C390.063 153.094 390.398 149.494 391.38 146.168C391.571 145.515 391.165 146.244 391.464 145.673C394.906 139.105 392.992 131.791 394.502 125.059C395.24 121.765 396.271 119.102 395.163 115.621C394.122 112.334 393.498 110.922 390.175 111.112C382.332 111.558 374.565 112.701 366.917 114.428C364.634 114.947 362.824 115.317 361.223 113.331" stroke="#C6E400" stroke-width="2" stroke-linecap="round" stroke-linejoin="round"/>
<path d="M341.605 48.4681C340.741 50.4026 338.856 50.9127 337.161 51.7734C333.706 53.5311 332.964 56.0092 334.161 59.9267C334.866 62.2342 337.072 64.4804 335.829 67.3031" stroke="#C6E400" stroke-width="2" stroke-linecap="round" stroke-linejoin="round"/>
<path d="M116.543 143.855C122.863 147.087 126.183 151.382 121.585 158.376C120.72 159.704 123.647 160.725 121.808 162.054" stroke="#C6E400" stroke-width="2" stroke-linecap="round" stroke-linejoin="round"/>
<path d="M338.39 371.506C337.502 377.925 338.609 378.949 344.989 379.968C355.552 381.655 365.82 380.504 376.036 377.853C376.882 377.632 377.843 377.901 378.582 378.559" stroke="#C6E400" stroke-width="2" stroke-linecap="round" stroke-linejoin="round"/>
<path d="M329.898 32.3291C328.232 36.9459 331.519 40.768 331.933 45.0376C332.008 45.755 332.176 46.2501 332.907 46.1445C337.093 45.5151 340.615 48.6669 344.766 48.2122" stroke="#C6E400" stroke-width="2" stroke-linecap="round" stroke-linejoin="round"/>
<path d="M197.116 223.787C191.588 221.47 189.238 221.533 182.406 225.243C180.377 226.347 178.567 226.466 176.515 226.23" stroke="#C6E400" stroke-width="2" stroke-linecap="round" stroke-linejoin="round"/>
<path d="M229.186 178.439C236.797 178.517 244.513 177.976 251.338 182.4" stroke="#C6E400" stroke-width="2" stroke-linecap="round" stroke-linejoin="round"/>
<path d="M483.85 85.5508C487.489 85.8266 491.11 86.3205 495.151 85.8043C493.563 90.846 489.092 91.6291 486.152 93.974C482.81 96.63 480.958 97.9898 484.214 102.552C485.955 104.988 488.262 108.895 486.911 113.005C486.769 113.443 488.092 114.757 488.637 115.734" stroke="#C6E400" stroke-width="2" stroke-linecap="round" stroke-linejoin="round"/>
<path d="M401.803 41.5366C402.914 43.9935 399.896 41.5638 400.113 42.9623C396.26 41.7483 394.35 43.5527 394.64 47.1845C394.83 49.6368 396.352 52.1911 399.356 51.6814C402.934 51.0634 403.864 48.1097 403.565 44.8326C403.511 44.2321 402.677 43.7016 402.201 43.1386" stroke="#C6E400" stroke-width="2" stroke-linecap="round" stroke-linejoin="round"/>
<path d="M413.569 224.297C413.629 227.669 416.542 230.351 415.925 233.697C418.649 235.391 421.508 232.015 424.242 234.086" stroke="#C6E400" stroke-width="2" stroke-linecap="round" stroke-linejoin="round"/>
<path d="M468.17 320.836C463.543 322.724 458.418 322.574 453.76 324.324" stroke="#C6E400" stroke-width="2" stroke-linecap="round" stroke-linejoin="round"/>
<path d="M460.422 102.896C459.482 107.333 457.492 111.567 457.725 116.25" stroke="#C6E400" stroke-width="2" stroke-linecap="round" stroke-linejoin="round"/>
<path d="M477.855 106.981C475.951 106.862 474.045 106.754 472.67 104.818C468.373 107.132 464.393 109.902 461.64 114.008C460.466 115.76 458.602 116.146 457.118 117.244" stroke="#C6E400" stroke-width="2" stroke-linecap="round" stroke-linejoin="round"/>
<path d="M253.805 264.604C258.435 267.641 262.86 270.879 265.387 276.028" stroke="#C6E400" stroke-width="2" stroke-linecap="round" stroke-linejoin="round"/>
<path d="M418.436 377.229C414.653 380.883 409.533 381.423 404.849 382.732C402.234 383.463 399.714 384.557 396.9 384.926C387.356 386.17 387.372 386.359 381.091 379.817" stroke="#C6E400" stroke-width="2" stroke-linecap="round" stroke-linejoin="round"/>
<path d="M225.377 223.559C218.667 221.476 211.641 221.04 204.779 219.771C201.328 219.134 198.376 221.248 195.179 222.055" stroke="#C6E400" stroke-width="2" stroke-linecap="round" stroke-linejoin="round"/>
<path d="M426.322 234.251C423.834 236.456 421.053 238.281 418.487 240.291C419.533 243.517 422.642 245.609 423.486 249.873C419.112 248.751 417.123 245.3 413.877 243.583C411.24 244.458 411.437 248.448 408.361 248.931" stroke="#C6E400" stroke-width="2" stroke-linecap="round" stroke-linejoin="round"/>
<path d="M395.637 325.158C391.789 325.617 388.087 326.705 384.447 327.925C381.637 328.869 378.981 330.213 375.988 328.727" stroke="#C6E400" stroke-width="2" stroke-linecap="round" stroke-linejoin="round"/>
<path d="M423.571 384.449C418.799 388.051 412.53 387.689 407.543 390.112C400.636 393.47 395.752 391.709 390.946 386.912" stroke="#C6E400" stroke-width="2" stroke-linecap="round" stroke-linejoin="round"/>
<path d="M307.423 174.599C306.403 178.381 305.544 182.104 306.936 186.07C308.69 191.069 312.136 193.765 317.22 194.77C322.149 195.75 325.983 194.338 328.612 189.97" stroke="#C6E400" stroke-width="2" stroke-linecap="round" stroke-linejoin="round"/>
<path d="M124.006 160.682C127.079 158.244 128.669 154.53 131.538 151.782C135.555 153.648 138.595 157.177 143.047 158.107" stroke="#C6E400" stroke-width="2" stroke-linecap="round" stroke-linejoin="round"/>
<path d="M472.395 66.3067C470.527 71.5757 475.024 75.1967 476.395 79.5366C477.098 81.7395 477.342 83.4435 477.042 85.5093" stroke="#C6E400" stroke-width="2" stroke-linecap="round" stroke-linejoin="round"/>
<path d="M369.166 353.737C369.371 359.745 371.124 365.372 373.523 370.792C374.5 372.987 375.714 375.086 376.591 377.346" stroke="#C6E400" stroke-width="2" stroke-linecap="round" stroke-linejoin="round"/>
<path d="M317.995 167.127C318.515 164.557 322.415 168.566 321.885 164.433C325.889 168.19 330.699 170.092 333.043 174.671" stroke="#C6E400" stroke-width="2" stroke-linecap="round" stroke-linejoin="round"/>
<path d="M309.506 44.7124C312.802 46.2036 314.639 49.4746 317.783 51.2874C320.327 52.7569 318.34 55.9665 317.601 57.2843C316.392 59.4512 315.999 61.5092 315.742 63.8087C319.544 63.1468 321.285 59.3729 324.246 58.0126C329.328 59.916 331.164 65.3198 335.841 67.304" stroke="#C6E400" stroke-width="2" stroke-linecap="round" stroke-linejoin="round"/>
<path d="M129.274 129.257C127.408 131.535 127.873 134.335 127.61 136.948C127.365 139.478 126.33 141.2 123.596 140.739C119.541 140.062 116.846 144.101 112.896 143.537" stroke="#C6E400" stroke-width="2" stroke-linecap="round" stroke-linejoin="round"/>
<path d="M412.991 367.359C409.315 368.387 405.386 368.693 402.217 371.155" stroke="#C6E400" stroke-width="2" stroke-linecap="round" stroke-linejoin="round"/>
<path d="M395.801 335.617C390.182 338.217 384.057 339.006 378.107 340.198C375.797 340.662 374.516 341.578 373.204 343.109" stroke="#C6E400" stroke-width="2" stroke-linecap="round" stroke-linejoin="round"/>
<path d="M404.614 355.161C400.913 355.863 397.631 357.928 393.884 358.437" stroke="#C6E400" stroke-width="2" stroke-linecap="round" stroke-linejoin="round"/>
<path d="M129.881 128.262C132.538 130.128 132.673 133.371 133.803 135.975C135.003 138.733 136.382 139.257 138.972 138.451C141.358 137.711 143.815 137.239 146.641 138.094C144.179 141.097 141.13 143.255 138.352 145.676" stroke="#C6E400" stroke-width="2" stroke-linecap="round" stroke-linejoin="round"/>
<path d="M328.553 35.875C325.818 39.011 326.202 44.1355 321.919 46.2833" stroke="#C6E400" stroke-width="2" stroke-linecap="round" stroke-linejoin="round"/>
<path d="M458.956 95.463C454.934 95.1443 451.021 94.5212 448.949 90.4253C448.222 88.9942 446.999 89.351 445.887 89.1421" stroke="#C6E400" stroke-width="2" stroke-linecap="round" stroke-linejoin="round"/>
<path d="M392.791 358.868C390.022 360.683 387.217 362.423 383.645 361.849C383.658 360.585 384.157 359.875 385.387 359.811" stroke="#C6E400" stroke-width="2" stroke-linecap="round" stroke-linejoin="round"/>
<path d="M413.351 226.892C411.194 231.206 407.597 234.559 402.561 236.95C403.151 240 405.935 239.744 408.416 240.236C408.695 243.741 406.376 246.672 407.214 249.879" stroke="#C6E400" stroke-width="2" stroke-linecap="round" stroke-linejoin="round"/>
<path d="M474.542 257.655C475.467 258.35 475.121 259.471 475.448 260.303C477.06 264.517 479.942 265.085 483.567 262.055C484.411 261.353 485.569 260.896 485.922 259.692C484.331 258.335 485.511 256.375 484.74 254.846C483.772 252.934 482.715 251.193 480.237 252.416C478.009 253.514 476.001 254.997 474.596 257.136" stroke="#C6E400" stroke-width="2" stroke-linecap="round" stroke-linejoin="round"/>
<path d="M189.175 379.81C185.668 379.085 183.284 376.343 180.2 374.818C177.257 373.367 173.561 375 170.896 372.108C170.024 371.157 167.961 371.672 167.718 373.816" stroke="#C6E400" stroke-width="2" stroke-linecap="round" stroke-linejoin="round"/>
<path d="M194.977 286.28C192.267 285.539 189.224 287.122 186.709 285.059" stroke="#C6E400" stroke-width="2" stroke-linecap="round" stroke-linejoin="round"/>
<path d="M228.103 178.87C226.005 179.185 223.987 180.405 221.782 179.382" stroke="#C6E400" stroke-width="2" stroke-linecap="round" stroke-linejoin="round"/>
<path d="M124.124 47.8715C120.367 49.3632 116.17 46.2694 112.53 48.9839" stroke="#C6E400" stroke-width="2" stroke-linecap="round" stroke-linejoin="round"/>
<path d="M136.748 146.084C138.821 147.44 140.177 149.343 140.985 151.67" stroke="#C6E400" stroke-width="2" stroke-linecap="round" stroke-linejoin="round"/>
<path d="M195.397 392.872C195.299 394.777 194.35 396.349 193.4 397.932" stroke="#C6E400" stroke-width="2" stroke-linecap="round" stroke-linejoin="round"/>
<path d="M466.179 319.622C470.853 320.038 475.521 320.515 480.199 320.764C483.053 320.911 485.544 321.529 487.249 324.015" stroke="#C6E400" stroke-width="2" stroke-linecap="round" stroke-linejoin="round"/>
<path d="M186.576 379.591C186.627 381.843 188.385 382.839 189.862 384.051" stroke="#C6E400" stroke-width="2" stroke-linecap="round" stroke-linejoin="round"/>
<path d="M300.863 165.68C299.323 166.815 297.744 167.926 298.91 170.22" stroke="#C6E400" stroke-width="2" stroke-linecap="round" stroke-linejoin="round"/>
<path d="M115.713 60.7334C117.329 61.9155 116.314 63.534 116.402 64.9739" stroke="#C6E400" stroke-width="2" stroke-linecap="round" stroke-linejoin="round"/>
<path d="M323.091 44.8138C321.781 43.8458 320.388 43.7283 318.935 44.463" stroke="#C6E400" stroke-width="2" stroke-linecap="round" stroke-linejoin="round"/>
<path d="M360.583 114.835C358.234 114.898 356.244 116.152 354.175 116.991C352.387 117.719 352.477 116.649 352.15 115.691" stroke="#C6E400" stroke-width="2" stroke-linecap="round" stroke-linejoin="round"/>
</g>
<defs>
<clipPath id="clip0_2996_2913">
<rect width="602" height="384" fill="white" transform="translate(32.305) rotate(4.82585)"/>
</clipPath>
</defs>
</svg>
