<svg width="111" height="102" viewBox="0 0 111 102" fill="none" xmlns="http://www.w3.org/2000/svg">
<path d="M69.86 91.82H60.34V101.9H10.22V92.38H0.14V52.06H9.66V42.12H19.74V32.18H59.92V41.84H30.38V51.78H20.16V61.58H59.92V71.66H69.86V91.82ZM49.84 91.82V72.08H20.16V91.82H49.84Z" fill="#00156A"/>
<path d="M78.3477 5.01465H84.7686C85.2568 5.09603 85.501 5.33203 85.501 5.72266V8.5791C85.501 9.05111 85.2568 9.28711 84.7686 9.28711H78.3477C77.8757 9.28711 77.6396 9.05111 77.6396 8.5791V5.72266C77.7048 5.25065 77.9408 5.01465 78.3477 5.01465ZM97.6348 5.01465H104.056C104.528 5.09603 104.764 5.33203 104.764 5.72266V8.5791C104.764 9.05111 104.528 9.28711 104.056 9.28711H97.6348C97.1465 9.28711 96.9023 9.05111 96.9023 8.5791V5.72266C96.9837 5.25065 97.2279 5.01465 97.6348 5.01465ZM78.3477 12.876H84.7686C85.2568 12.9411 85.501 13.1771 85.501 13.584V16.8066H77.9814V21.7871L77.957 24.3018H80.8379C81.3262 24.3669 81.5703 24.6029 81.5703 25.0098V31.4307C81.5703 31.9027 81.3262 32.1387 80.8379 32.1387H77.9814V35.7275H85.501V16.8066H88.6992C89.1712 16.8717 89.4072 17.1077 89.4072 17.5146V35.3613C89.4072 35.8333 89.1712 36.0693 88.6992 36.0693H85.501V39.292C85.501 39.764 85.2568 40 84.7686 40H78.3477C77.8757 40 77.6396 39.764 77.6396 39.292V36.0693H74.417C73.945 36.0693 73.709 35.8333 73.709 35.3613V17.5146C73.7904 17.0426 74.0264 16.8066 74.417 16.8066H77.6396V13.584C77.7048 13.112 77.9408 12.876 78.3477 12.876ZM97.6348 12.876H104.056C104.528 12.9411 104.764 13.1771 104.764 13.584V16.8066H107.986C108.458 16.8717 108.694 17.1077 108.694 17.5146V35.3613C108.694 35.8333 108.458 36.0693 107.986 36.0693H104.764V39.292C104.764 39.764 104.528 40 104.056 40H97.6348C97.1465 40 96.9023 39.764 96.9023 39.292V36.0693H93.7041C93.2321 36.0693 92.9961 35.8333 92.9961 35.3613V17.5146C93.0612 17.0426 93.2972 16.8066 93.7041 16.8066H96.9023V24.3018H100.125C100.597 24.3669 100.833 24.6029 100.833 25.0098V31.4307C100.833 31.9027 100.597 32.1387 100.125 32.1387H96.9023V35.7275H104.422V16.8066H96.9023V13.584C96.9837 13.112 97.2279 12.876 97.6348 12.876Z" fill="#00156A"/>
</svg>
