<svg width="108" height="107" viewBox="0 0 108 107" fill="none" xmlns="http://www.w3.org/2000/svg">
<path d="M45 67.5H33.75H22.5H11.25V56.25H0V45H11.25H22.5V56.25H33.75H45V45V33.75H33.75V22.5H45V11.25H33.75H22.5V22.5H11.25H0V11.25H11.25V0H22.5H33.75H45H56.25V11.25H67.5V22.5H56.25V33.75H67.5V45V56.25H56.25V67.5H45Z" fill="#00156A"/>
<path d="M76.1484 66.2129H78.3613C78.791 66.2845 79.0059 66.4993 79.0059 66.8574V69.7148H81.8418L81.8203 73.1953L85.9883 73.2168V76.375H88.5234C88.9388 76.4323 89.1465 76.64 89.1465 76.998V79.8555H92.0039C92.4336 79.9271 92.6484 80.1419 92.6484 80.5V83.3574H95.5059C95.9212 83.4147 96.1289 83.6224 96.1289 83.9805V86.2148C96.1289 86.6302 95.9212 86.8379 95.5059 86.8379H89.1465V90.2324L92.6484 90.3398V96.3555C92.6484 96.7852 92.4336 97 92.0039 97H89.791C89.3613 97 89.1465 96.7852 89.1465 96.3555V93.8203H86.6113C86.3105 93.8203 85.9954 93.5052 85.666 92.875V90.3398H82.4863V93.1973C82.4863 93.6126 82.2715 93.8203 81.8418 93.8203H79.0059V96.3555C79.0059 96.7852 78.791 97 78.3613 97H75.5039V66.8574C75.5755 66.4277 75.7904 66.2129 76.1484 66.2129ZM96.1504 66.2129H98.9863C99.416 66.2845 99.6309 66.4993 99.6309 66.8574V69.0703C99.6309 69.5 99.416 69.7148 98.9863 69.7148H96.1289V72.5508C96.1289 72.9805 95.9212 73.1953 95.5059 73.1953H93.2715C92.8561 73.1953 92.6484 72.9805 92.6484 72.5508V69.4141L96.1289 69.3926L96.1504 66.2129ZM99.9531 79.8555H105.646C106.076 79.9271 106.291 80.1419 106.291 80.5V82.7129C106.291 83.1426 106.076 83.3574 105.646 83.3574H99.9531C99.5234 83.3574 99.3086 83.1426 99.3086 82.7129V80.5C99.3802 80.0703 99.5951 79.8555 99.9531 79.8555ZM96.1504 90.0176H98.9863C99.416 90.0892 99.6309 90.304 99.6309 90.6621V93.498H102.488C102.904 93.5697 103.111 93.7845 103.111 94.1426V97H99.9531C99.5234 97 99.3086 96.7852 99.3086 96.3555V93.8203H96.7734C96.3438 93.8203 96.1289 93.6126 96.1289 93.1973V90.9629L96.1504 90.0176Z" fill="#00156A"/>
</svg>
