<svg width="60" height="81" viewBox="0 0 60 81" fill="none" xmlns="http://www.w3.org/2000/svg">
<path d="M43.2 81V75.6H48.6V81H43.2ZM54 81V75.6H59.4V81H54ZM43.2 70.2V64.8H48.6V70.2H43.2ZM54 70.2V64.8H59.4V70.2H54ZM43.2 59.4V54H48.6V59.4H43.2ZM54 59.4V54H59.4V59.4H54ZM10.8 48.6V43.2H16.2V48.6H10.8ZM21.6 48.6V43.2H27V48.6H21.6ZM32.4 48.6V43.2H37.8V48.6H32.4ZM43.2 48.6V43.2H48.6V48.6H43.2ZM54 48.6V43.2H59.4V48.6H54ZM0 37.8V32.4H5.4V37.8H0ZM10.8 37.8V32.4H16.2V37.8H10.8ZM21.6 37.8V32.4H27V37.8H21.6ZM32.4 37.8V32.4H37.8V37.8H32.4ZM43.2 37.8V32.4H48.6V37.8H43.2ZM54 37.8V32.4H59.4V37.8H54ZM0 27V21.6H5.4V27H0ZM10.8 27V21.6H16.2V27H10.8ZM43.2 27V21.6H48.6V27H43.2ZM54 27V21.6H59.4V27H54ZM0 16.2V10.8H5.4V16.2H0ZM10.8 16.2V10.8H16.2V16.2H10.8ZM21.6 16.2V10.8H27V16.2H21.6ZM32.4 16.2V10.8H37.8V16.2H32.4ZM43.2 16.2V10.8H48.6V16.2H43.2ZM54 16.2V10.8H59.4V16.2H54ZM10.8 5.39999V-1.43051e-06H16.2V5.39999H10.8ZM21.6 5.39999V-1.43051e-06H27V5.39999H21.6ZM32.4 5.39999V-1.43051e-06H37.8V5.39999H32.4ZM43.2 5.39999V-1.43051e-06H48.6V5.39999H43.2Z" fill="#00156A"/>
</svg>
