<svg width="165" height="83" viewBox="0 0 165 83" fill="none" xmlns="http://www.w3.org/2000/svg">
<path d="M24.1 82.2V28H16.1V37H6V27H15.1V17.9H25.1V27H34.3V82.2H24.1ZM55.5297 82.2V73.2H46.4297V27H55.5297V17.9H83.7297V27H92.9297V73.2H83.7297V82.2H55.5297ZM56.5297 72.2H82.7297V28H56.5297V72.2Z" fill="#00156A"/>
<path d="M112.16 9.03125H119.797C120.279 9.10938 120.52 9.35026 120.52 9.75391V13.0352H124.152V9.03125H131.77C132.264 9.10938 132.512 9.35026 132.512 9.75391V13.0352H135.773C136.255 13.1003 136.496 13.3411 136.496 13.7578V21.0234H139.777C140.259 21.1016 140.5 21.3424 140.5 21.7461V28.2891C140.5 28.7708 140.259 29.0117 139.777 29.0117H136.496V32.2734C136.496 32.7552 136.255 32.9961 135.773 32.9961H132.512V36.2773C132.512 36.7591 132.264 37 131.77 37H112.883C112.401 37 112.16 36.7591 112.16 36.2773V32.9961H108.898C108.417 32.9961 108.176 32.7552 108.176 32.2734V29.0117H104.895C104.413 29.0117 104.172 28.7708 104.172 28.2891V21.043L108.176 21.0234V13.7578C108.241 13.276 108.482 13.0352 108.898 13.0352H112.16V9.03125ZM112.531 17.0195V21.0234H116.164V17.0195H112.531ZM124.504 17.0195V21.0234H128.137V17.0195H124.504ZM112.531 29.0117V32.9961H131.77C132.264 32.9961 132.525 32.6315 132.551 31.9023V28.9922L131.77 29.0117H112.531Z" fill="#00156A"/>
</svg>
