<svg width="159" height="56" viewBox="0 0 159 56" fill="none" xmlns="http://www.w3.org/2000/svg">
<rect x="20" y="24" width="120" height="21" fill="#C6E400"/>
<path d="M21.128 10.8004C22.4323 11.3302 22.3327 13.2097 20.9796 13.5987L14.1492 15.5627L11.0292 21.949C10.4106 23.2143 8.54183 22.9857 8.24608 21.6088L5.0665 6.778C5.00968 6.51438 5.02581 6.24027 5.11315 5.98514C5.2005 5.73001 5.35575 5.50352 5.56221 5.33005C5.76867 5.15657 6.01852 5.04266 6.28488 5.00059C6.55124 4.95851 6.82404 4.98985 7.07392 5.09125L21.128 10.8004Z" fill="white" stroke="#1A1A1A" stroke-width="2"/>
<path d="M33.224 36.048V21.648H26.024V17.856H44.216V21.648H37.016V36.048H33.224ZM51.2379 25.056H61.8459V21.648H51.2379V25.056ZM47.4459 36.048V17.856H62.0379V21.456H65.6379V25.248H62.0379V32.256H65.6379V36.048H61.8459V32.448H58.2459V28.848H51.2379V36.048H47.4459ZM73.4098 25.056H84.0178V21.648H73.4098V25.056ZM69.6178 36.048V21.456H73.2178V17.856H84.2098V21.456H87.8098V36.048H84.0178V28.848H73.4098V36.048H69.6178ZM95.7646 36.048V32.448H92.1646V21.456H95.7646V17.856H106.757V21.456H110.357V25.248H106.565V21.648H95.9566V32.256H106.565V28.656H110.357V32.448H106.757V36.048H95.7646ZM114.477 36.048V17.856H118.269V25.056H125.277V21.456H128.877V17.856H132.669V21.648H129.069V25.248H125.469V28.656H129.069V32.256H132.669V36.048H128.877V32.448H125.277V28.848H118.269V36.048H114.477ZM136.508 36.048V32.256H150.908V28.848H140.108V25.248H136.508V21.456H140.108V17.856H154.7V21.648H140.3V25.056H151.1V28.656H154.7V32.448H151.1V36.048H136.508Z" fill="#1A1A1A"/>
</svg>
